<svg xmlns="http://www.w3.org/2000/svg" width="715" height="383.895" viewBox="0 0 715 383.895">
  <g id="_44" data-name="44" transform="translate(-705 -14676)">
    <rect id="dylan-shaw-UxyWwU6n_ts-unsplash" width="715" height="383.895" transform="translate(705 14676)" fill="#fff0cc"/>
    <g id="Grupo_118888" data-name="Grupo 118888" transform="translate(813 14627.047)">
      <g id="Background_Complete" data-name="Background Complete">
        <g id="Grupo_118843" data-name="Grupo 118843">
          <rect id="Rectángulo_36765" data-name="Rectángulo 36765" width="500" height="0.25" transform="translate(0 382.398)" fill="#ebebeb"/>
          <rect id="Rectángulo_36766" data-name="Rectángulo 36766" width="33.122" height="0.25" transform="translate(416.779 398.494)" fill="#ebebeb"/>
          <rect id="Rectángulo_36767" data-name="Rectángulo 36767" width="8.693" height="0.25" transform="translate(322.527 401.208)" fill="#ebebeb"/>
          <rect id="Rectángulo_36768" data-name="Rectángulo 36768" width="19.192" height="0.25" transform="translate(396.586 389.208)" fill="#ebebeb"/>
          <rect id="Rectángulo_36769" data-name="Rectángulo 36769" width="43.193" height="0.25" transform="translate(52.459 390.888)" fill="#ebebeb"/>
          <rect id="Rectángulo_36770" data-name="Rectángulo 36770" width="6.333" height="0.25" transform="translate(104.556 390.888)" fill="#ebebeb"/>
          <rect id="Rectángulo_36771" data-name="Rectángulo 36771" width="93.676" height="0.25" transform="translate(131.471 395.111)" fill="#ebebeb"/>
          <path id="Trazado_180927" data-name="Trazado 180927" d="M237.014,337.8H43.915a5.715,5.715,0,0,1-5.708-5.708V60.66a5.714,5.714,0,0,1,5.708-5.707h193.1a5.714,5.714,0,0,1,5.707,5.707V332.092A5.715,5.715,0,0,1,237.014,337.8ZM43.915,55.2a5.463,5.463,0,0,0-5.458,5.457V332.092a5.464,5.464,0,0,0,5.458,5.458h193.1a5.463,5.463,0,0,0,5.457-5.458V60.66a5.463,5.463,0,0,0-5.457-5.457Z" fill="#ebebeb"/>
          <path id="Trazado_180928" data-name="Trazado 180928" d="M453.31,337.8h-193.1a5.714,5.714,0,0,1-5.707-5.708V60.66a5.713,5.713,0,0,1,5.707-5.707h193.1a5.714,5.714,0,0,1,5.709,5.707V332.092A5.715,5.715,0,0,1,453.31,337.8ZM260.212,55.2a5.463,5.463,0,0,0-5.457,5.457V332.092a5.463,5.463,0,0,0,5.457,5.458h193.1a5.464,5.464,0,0,0,5.459-5.458V60.66A5.464,5.464,0,0,0,453.31,55.2Z" fill="#ebebeb"/>
        </g>
        <g id="Grupo_118848" data-name="Grupo 118848">
          <g id="Grupo_118845" data-name="Grupo 118845" transform="translate(6.651 -9)">
            <path id="Trazado_180929" data-name="Trazado 180929" d="M411.481,347.813s-7.685-15.04,1.1-29.865S423.9,299.63,418.3,296.592s-8.165,11.86-8.165,11.86-4.719-10.248-.823-20.974,6.339-28.2,1.019-30.07S409.32,279.2,404.7,287.269c0,0-3.877-8.981-4.515-17.6s.359-22.371-3.843-25.9-6.893-1.087-2.764,17.925a179.07,179.07,0,0,1,4.1,34.466s-9.119-24.939-15.24-25.667-6.113,7.349-.874,14.355,15.342,19.554,17,26.011c0,0-10.01-18.767-19.014-13.015s7.837,17.088,15.343,21.184S407.614,348.8,407.614,348.8Z" fill="#e0e0e0"/>
            <path id="Trazado_180930" data-name="Trazado 180930" d="M405.414,353.98s7.483-15.14-1.495-29.847-11.569-18.165-6.013-21.277,8.323,11.75,8.323,11.75,4.581-10.311.542-20.984-6.716-28.108-1.421-30.054,1.307,21.778,6.031,29.783c0,0,3.757-9.032,4.28-17.654s-.658-22.365,3.5-25.95,6.878-1.179,3,17.886a179.08,179.08,0,0,0-3.637,34.518s8.785-25.058,14.895-25.868,6.21,7.267,1.066,14.342-15.079,19.757-16.65,26.237c0,0,9.758-18.9,18.838-13.269s-7.608,17.191-15.059,21.387-12.319,29.941-12.319,29.941Z" fill="#e6e6e6"/>
            <g id="Grupo_118844" data-name="Grupo 118844">
              <path id="Trazado_180931" data-name="Trazado 180931" d="M439.928,343.187H378.11l5,39.678h51.812Z" fill="#f0f0f0"/>
            </g>
          </g>
          <g id="Grupo_118846" data-name="Grupo 118846" transform="translate(166.575)">
            <rect id="Rectángulo_36772" data-name="Rectángulo 36772" width="112.616" height="124.616" transform="translate(217.045 92.064)" fill="#e9e9e9"/>
            <rect id="Rectángulo_36773" data-name="Rectángulo 36773" width="103" height="115" transform="translate(222 97)" fill="#f4f4f4"/>
            <path id="Trazado_180932" data-name="Trazado 180932" d="M251.11,97,222,206.02V147l13.32-50Z" fill="#fff"/>
            <path id="Trazado_180933" data-name="Trazado 180933" d="M264.12,97l-30.7,115h-5.79l30.7-115Z" fill="#fff"/>
            <path id="Trazado_180934" data-name="Trazado 180934" d="M325,128.36v59.03L318.48,212H302.69Z" fill="#fff"/>
            <rect id="Rectángulo_36774" data-name="Rectángulo 36774" width="4" height="124.616" transform="translate(271.353 92.064)" fill="#e9e9e9"/>
            <rect id="Rectángulo_36775" data-name="Rectángulo 36775" width="108.5" height="4" transform="translate(219 117.35)" fill="#e9e9e9"/>
          </g>
          <g id="Grupo_118847" data-name="Grupo 118847" transform="translate(-86.045)">
            <rect id="Rectángulo_36776" data-name="Rectángulo 36776" width="112.616" height="124.616" transform="translate(63.045 92.064)" fill="#e9e9e9"/>
            <rect id="Rectángulo_36777" data-name="Rectángulo 36777" width="103" height="115" transform="translate(68 97)" fill="#f4f4f4"/>
            <path id="Trazado_180935" data-name="Trazado 180935" d="M97.11,97,68,206.02V147L81.32,97Z" fill="#fff"/>
            <path id="Trazado_180936" data-name="Trazado 180936" d="M110.12,97,79.42,212H73.63l30.7-115Z" fill="#fff"/>
            <path id="Trazado_180937" data-name="Trazado 180937" d="M171,128.36v59.03L164.48,212H148.69Z" fill="#fff"/>
            <rect id="Rectángulo_36778" data-name="Rectángulo 36778" width="4" height="124.616" transform="translate(117.353 92.064)" fill="#e9e9e9"/>
            <rect id="Rectángulo_36779" data-name="Rectángulo 36779" width="108.5" height="4" transform="translate(65 117.35)" fill="#e9e9e9"/>
          </g>
        </g>
      </g>
      <g id="Shadow">
        <ellipse id="_Path_" data-name="&lt;Path&gt;" cx="193.889" cy="11.323" rx="193.889" ry="11.323" transform="translate(56.111 404.915)" fill="#ffe299"/>
      </g>
      <g id="Exams_sheet" data-name="Exams sheet">
        <g id="Grupo_118865" data-name="Grupo 118865">
          <path id="Trazado_180938" data-name="Trazado 180938" d="M381.659,382.865H228.174a6.522,6.522,0,0,1-6.594-7.157l19.349-248.242a7.872,7.872,0,0,1,7.71-7.158H402.124a6.524,6.524,0,0,1,6.6,7.158l-19.35,248.242A7.871,7.871,0,0,1,381.659,382.865Z" fill="#2e353a"/>
          <path id="Trazado_180939" data-name="Trazado 180939" d="M381.659,382.865H228.174a6.522,6.522,0,0,1-6.594-7.157l19.349-248.242a7.872,7.872,0,0,1,7.71-7.158H402.124a6.524,6.524,0,0,1,6.6,7.158l-19.35,248.242A7.871,7.871,0,0,1,381.659,382.865Z" fill="#fff" opacity="0.2"/>
          <path id="Trazado_180940" data-name="Trazado 180940" d="M360.867,136.54h-73.5a2.28,2.28,0,0,1-2.3-2.5l1.131-14.512a2.751,2.751,0,0,1,2.7-2.5h73.5a2.281,2.281,0,0,1,2.3,2.5l-1.131,14.512A2.752,2.752,0,0,1,360.867,136.54Z" fill="#9d53e4"/>
          <path id="Trazado_180941" data-name="Trazado 180941" d="M360.867,136.54h-73.5a2.28,2.28,0,0,1-2.3-2.5l1.131-14.512a2.751,2.751,0,0,1,2.7-2.5h73.5a2.281,2.281,0,0,1,2.3,2.5l-1.131,14.512A2.752,2.752,0,0,1,360.867,136.54Z" transform="translate(0 0)" opacity="0.2" style="isolation: isolate"/>
          <path id="Trazado_180942" data-name="Trazado 180942" d="M331.037,121.528h-11.5l.448-5.755a6.328,6.328,0,0,1,6.2-5.754h0a5.243,5.243,0,0,1,5.3,5.754Z" fill="#9d53e4"/>
          <path id="Trazado_180943" data-name="Trazado 180943" d="M331.037,121.528h-11.5l.448-5.755a6.328,6.328,0,0,1,6.2-5.754h0a5.243,5.243,0,0,1,5.3,5.754Z" fill="#fff" opacity="0.4"/>
          <path id="Trazado_180944" data-name="Trazado 180944" d="M379.593,372.5H231.855L250.7,130.669H398.444Z" fill="#fff"/>
          <g id="Grupo_118851" data-name="Grupo 118851">
            <g id="Grupo_118849" data-name="Grupo 118849">
              <path id="Trazado_180945" data-name="Trazado 180945" d="M347.2,143.327H299.979a5.379,5.379,0,0,1-5.432-5.895l.6-7.683a6.49,6.49,0,0,1,6.351-5.895h47.217a5.378,5.378,0,0,1,5.432,5.895l-.6,7.683A6.491,6.491,0,0,1,347.2,143.327Zm-45.856-17.472a4.287,4.287,0,0,0-4.2,3.894l-.6,7.683a3.552,3.552,0,0,0,3.588,3.893h47.217a4.287,4.287,0,0,0,4.2-3.893l.6-7.683a3.553,3.553,0,0,0-3.588-3.894Z" fill="#9d53e4"/>
            </g>
            <g id="Grupo_118850" data-name="Grupo 118850" opacity="0.4">
              <path id="Trazado_180946" data-name="Trazado 180946" d="M347.2,143.327H299.979a5.379,5.379,0,0,1-5.432-5.895l.6-7.683a6.49,6.49,0,0,1,6.351-5.895h47.217a5.378,5.378,0,0,1,5.432,5.895l-.6,7.683A6.491,6.491,0,0,1,347.2,143.327Zm-45.856-17.472a4.287,4.287,0,0,0-4.2,3.894l-.6,7.683a3.552,3.552,0,0,0,3.588,3.893h47.217a4.287,4.287,0,0,0,4.2-3.893l.6-7.683a3.553,3.553,0,0,0-3.588-3.894Z" fill="#fff"/>
            </g>
          </g>
          <path id="Trazado_180947" data-name="Trazado 180947" d="M344.76,128.283h-40a1.253,1.253,0,0,1-1.267-1.376l.312-4a1.512,1.512,0,0,1,1.482-1.376h40a1.255,1.255,0,0,1,1.268,1.376l-.312,4A1.514,1.514,0,0,1,344.76,128.283Z" fill="#7c21d3"/>
          <g id="Grupo_118864" data-name="Grupo 118864">
            <path id="Trazado_180948" data-name="Trazado 180948" d="M378.63,166h-112l.953-12.226h112Z" fill="#ffc499"/>
            <g id="Grupo_118852" data-name="Grupo 118852">
              <path id="Trazado_180949" data-name="Trazado 180949" d="M333.3,183.013h-74.56l.246-3.156h74.56Z" fill="#ffe1cc"/>
              <path id="Trazado_180950" data-name="Trazado 180950" d="M332.6,192.109h-74.56l.246-3.156h74.56Z" fill="#ffe1cc"/>
              <path id="Trazado_180951" data-name="Trazado 180951" d="M331.886,201.206h-74.56l.246-3.156h74.56Z" fill="#ffe1cc"/>
              <path id="Trazado_180952" data-name="Trazado 180952" d="M331.177,210.3h-74.56l.246-3.156h74.56Z" fill="#ffe1cc"/>
            </g>
            <g id="Grupo_118853" data-name="Grupo 118853">
              <path id="Trazado_180953" data-name="Trazado 180953" d="M380.1,210.3h-30.42l2.373-30.444h30.42Z" fill="#ff8933"/>
              <text id="_" data-name="?" transform="matrix(0.997, 0.077, -0.077, 0.997, 359.319, 205.505)" fill="#fff" font-size="28" font-family="Roboto-Regular, Roboto"><tspan x="0" y="0">?</tspan></text>
            </g>
            <g id="Grupo_118854" data-name="Grupo 118854">
              <path id="Trazado_180954" data-name="Trazado 180954" d="M329.714,229.078h-74.56l.246-3.156h74.56Z" fill="#ffe1cc"/>
              <path id="Trazado_180955" data-name="Trazado 180955" d="M329,238.174h-74.56l.246-3.156h74.56Z" fill="#ffe1cc"/>
              <path id="Trazado_180956" data-name="Trazado 180956" d="M328.3,247.271h-74.56l.246-3.156h74.56Z" fill="#ffe1cc"/>
              <path id="Trazado_180957" data-name="Trazado 180957" d="M327.586,256.367h-74.56l.246-3.156h74.56Z" fill="#ffe1cc"/>
            </g>
            <g id="Grupo_118855" data-name="Grupo 118855">
              <path id="Trazado_180958" data-name="Trazado 180958" d="M376.512,256.367h-30.42l2.373-30.445h30.421Z" fill="#ff8933"/>
              <text id="_2" data-name="?" transform="matrix(0.997, 0.077, -0.077, 0.997, 355.728, 251.571)" fill="#fff" font-size="28" font-family="Roboto-Regular, Roboto"><tspan x="0" y="0">?</tspan></text>
            </g>
            <g id="Grupo_118856" data-name="Grupo 118856">
              <path id="Trazado_180959" data-name="Trazado 180959" d="M326.123,275.144h-74.56l.246-3.156h74.56Z" fill="#ffe1cc"/>
              <path id="Trazado_180960" data-name="Trazado 180960" d="M325.414,284.24h-74.56l.246-3.156h74.56Z" fill="#ffe1cc"/>
              <path id="Trazado_180961" data-name="Trazado 180961" d="M324.7,293.336h-74.56l.246-3.156h74.56Z" fill="#ffe1cc"/>
              <path id="Trazado_180962" data-name="Trazado 180962" d="M324,302.432h-74.56l.246-3.156h74.56Z" fill="#ffe1cc"/>
            </g>
            <g id="Grupo_118857" data-name="Grupo 118857">
              <path id="Trazado_180963" data-name="Trazado 180963" d="M372.921,302.432H342.5l2.373-30.444h30.42Z" fill="#ff8933"/>
              <text id="_3" data-name="?" transform="matrix(0.997, 0.077, -0.077, 0.997, 352.138, 297.636)" fill="#fff" font-size="28" font-family="Roboto-Regular, Roboto"><tspan x="0" y="0">?</tspan></text>
            </g>
            <g id="Grupo_118858" data-name="Grupo 118858">
              <path id="Trazado_180964" data-name="Trazado 180964" d="M322.532,321.209h-74.56l.246-3.156h74.56Z" fill="#ffe1cc"/>
              <path id="Trazado_180965" data-name="Trazado 180965" d="M321.823,330.3h-74.56l.246-3.156h74.56Z" fill="#ffe1cc"/>
              <path id="Trazado_180966" data-name="Trazado 180966" d="M321.114,339.4h-74.56l.246-3.156h74.56Z" fill="#ffe1cc"/>
              <path id="Trazado_180967" data-name="Trazado 180967" d="M320.405,348.5h-74.56l.246-3.156h74.56Z" fill="#ffe1cc"/>
            </g>
            <g id="Grupo_118859" data-name="Grupo 118859">
              <path id="Trazado_180968" data-name="Trazado 180968" d="M369.331,348.5H338.91l2.373-30.444H371.7Z" fill="#ff8933"/>
              <text id="_4" data-name="?" transform="matrix(0.997, 0.077, -0.077, 0.997, 348.547, 343.702)" fill="#fff" font-size="28" font-family="Roboto-Regular, Roboto"><tspan x="0" y="0">?</tspan></text>
            </g>
            <path id="Trazado_180974" data-name="Trazado 180974" d="M380.566,210.3h-30.8l2.4-30.444h30.8Z" transform="translate(-0.084)" fill="#fff" opacity="0.7"/>
            <path id="Trazado_180979" data-name="Trazado 180979" d="M376.294,256.367h-30.42l2.373-30.445h30.421Z" transform="translate(0.325)" fill="#fff" opacity="0.7"/>
            <path id="Trazado_180984" data-name="Trazado 180984" d="M372.68,302.432H342.259l2.373-30.444h30.42Z" transform="translate(0.325)" fill="#fff" opacity="0.7"/>
            <path id="Trazado_180989" data-name="Trazado 180989" d="M369.005,348.5H338.585l2.373-30.444h30.42Z" transform="translate(0.325)" fill="#fff" opacity="0.7"/>
          </g>
        </g>
      </g>
      <g id="Chair">
        <g id="Grupo_118877" data-name="Grupo 118877">
          <path id="Trazado_180990" data-name="Trazado 180990" d="M200,257v27.54a21.088,21.088,0,0,1-5.846,14.574L168.445,326H183l26.7-26.277a21.088,21.088,0,0,0,6.3-15.03V257Z" fill="#dec6f6"/>
          <path id="Trazado_180991" data-name="Trazado 180991" d="M216,257v27.69a20.238,20.238,0,0,1-.52,4.61,20.907,20.907,0,0,1-5.78,10.42L183,326H168.45l25.7-26.89A21.039,21.039,0,0,0,200,284.54V257Z" fill="#fff" opacity="0.4"/>
          <path id="Trazado_180992" data-name="Trazado 180992" d="M216,257v27.69a20.238,20.238,0,0,1-.52,4.61L200,283.05V257Z" opacity="0.2" style="isolation: isolate"/>
          <g id="Grupo_118866" data-name="Grupo 118866">
            <path id="Trazado_180993" data-name="Trazado 180993" d="M158.338,329,136.8,411.064a3.49,3.49,0,0,1-3.373,2.6H94.943a2.071,2.071,0,0,1-2-2.6L114.487,329h-4.135L89.07,410.053a6.074,6.074,0,0,0,5.873,7.614h38.489a7.492,7.492,0,0,0,7.242-5.587l21.8-83.08Z" fill="#7c21d3"/>
          </g>
          <g id="Grupo_118867" data-name="Grupo 118867" transform="translate(-3.004)" opacity="0.4" style="isolation: isolate">
            <path id="Trazado_180994" data-name="Trazado 180994" d="M158.338,329,136.8,411.064a3.49,3.49,0,0,1-3.373,2.6H94.943a2.071,2.071,0,0,1-2-2.6L114.487,329h-4.135L89.07,410.053a6.074,6.074,0,0,0,5.873,7.614h38.489a7.492,7.492,0,0,0,7.242-5.587l21.8-83.08Z" transform="translate(3)" fill="#fff"/>
          </g>
          <g id="Grupo_118868" data-name="Grupo 118868">
            <path id="Trazado_180995" data-name="Trazado 180995" d="M167.15,417.667l-23.549-89.8-3.869,1.014,23.283,88.786Z" fill="#9d53e4"/>
          </g>
          <g id="Grupo_118869" data-name="Grupo 118869">
            <path id="Trazado_180996" data-name="Trazado 180996" d="M215.15,417.667l-23.549-89.8-3.869,1.014,23.283,88.786Z" fill="#9d53e4"/>
          </g>
          <g id="Grupo_118870" data-name="Grupo 118870" transform="translate(-0.097)" opacity="0.5">
            <path id="Trazado_180997" data-name="Trazado 180997" d="M167.15,417.667l-23.549-89.8-3.869,1.014,23.283,88.786Z" fill="#fff"/>
          </g>
          <g id="Grupo_118871" data-name="Grupo 118871" transform="translate(-0.117)" opacity="0.5">
            <path id="Trazado_180998" data-name="Trazado 180998" d="M215.15,417.667l-23.549-89.8-3.869,1.014,23.283,88.786Z" fill="#fff"/>
          </g>
          <path id="Trazado_180999" data-name="Trazado 180999" d="M110.35,329h4.14l-3.25,12.37-3.83-1.17Z" opacity="0.2" style="isolation: isolate"/>
          <path id="Trazado_181000" data-name="Trazado 181000" d="M143.6,327.87l5.35,20.41-4.49-1.36-4.73-18.04Z" opacity="0.2" style="isolation: isolate"/>
          <path id="Trazado_181001" data-name="Trazado 181001" d="M158.34,329h4.13l-6.78,25.9-3.84-1.17Z" opacity="0.2" style="isolation: isolate"/>
          <path id="Trazado_181002" data-name="Trazado 181002" d="M201.05,364.15l-4.51-1.38-8.81-33.64,3.87-1.1Z" opacity="0.2" style="isolation: isolate"/>
          <g id="Grupo_118874" data-name="Grupo 118874">
            <g id="Grupo_118872" data-name="Grupo 118872">
              <path id="Trazado_181003" data-name="Trazado 181003" d="M106.7,330.374,87.959,229.145l-.252-1.531a6.578,6.578,0,0,1,1.351-5.412A6.141,6.141,0,0,1,93.87,220h40.48a8.646,8.646,0,0,1,8.056,6.923l.3,1.708,18.691,101-3.934.728L138.714,229.049l-.245-1.419A4.609,4.609,0,0,0,134.35,224H93.87a2.182,2.182,0,0,0-1.74.763,2.623,2.623,0,0,0-.482,2.167l.283,1.675,18.706,101.041Z" fill="#9d53e4"/>
            </g>
            <g id="Grupo_118873" data-name="Grupo 118873" opacity="0.5" style="isolation: isolate">
              <path id="Trazado_181004" data-name="Trazado 181004" d="M106.7,330.374,87.959,229.145l-.252-1.531a6.578,6.578,0,0,1,1.351-5.412A6.141,6.141,0,0,1,93.87,220h40.48a8.646,8.646,0,0,1,8.056,6.923l.3,1.708,18.691,101-3.934.728L138.714,229.049l-.245-1.419A4.609,4.609,0,0,0,134.35,224H93.87a2.182,2.182,0,0,0-1.74.763,2.623,2.623,0,0,0-.482,2.167l.283,1.675,18.706,101.041Z" fill="#fff"/>
            </g>
          </g>
          <g id="Grupo_118876" data-name="Grupo 118876">
            <path id="Rectángulo_36780" data-name="Rectángulo 36780" d="M5,0H81.933a5,5,0,0,1,5,5v6.689a0,0,0,0,1,0,0H0a0,0,0,0,1,0,0V5A5,5,0,0,1,5,0Z" transform="translate(109.877 320.333)" fill="#9d53e4"/>
            <g id="Grupo_118875" data-name="Grupo 118875">
              <rect id="Rectángulo_36781" data-name="Rectángulo 36781" width="93.346" height="5.845" rx="2.011" transform="translate(106.671 326.178)" fill="#9d53e4"/>
              <rect id="Rectángulo_36782" data-name="Rectángulo 36782" width="93.346" height="5.845" rx="2.011" transform="translate(106.671 326.177)" fill="#fff" opacity="0.6" style="isolation: isolate"/>
            </g>
          </g>
          <path id="Trazado_181005" data-name="Trazado 181005" d="M148.33,270H97.5l-7.58-41h50.82l7.52,40.62Z" fill="#7c21d3"/>
        </g>
      </g>
      <g id="Character">
        <g id="_Group_" data-name="&lt;Group&gt;">
          <path id="Trazado_181006" data-name="Trazado 181006" d="M198.332,182.629s-6.388-14.843-6.946-16.43.1-9.622-.384-11.052-7.916-2.37-9.486-2.188-.182,12.6.463,13.583a18.436,18.436,0,0,0,2.854,2.721l5.648,17.037Z" fill="#b97964"/>
          <g id="Grupo_118878" data-name="Grupo 118878">
            <path id="Trazado_181007" data-name="Trazado 181007" d="M165.97,210.644c4.363.689,22.21,3.263,26.2.606,3.223-2.148-5.851-36.959-5.851-36.959l8.074-3.286s19.171,42.212,8.929,51.855c-5.2,4.9-19.819,6.14-40.849,6.14Z" fill="#407bff"/>
            <path id="Trazado_181008" data-name="Trazado 181008" d="M165.97,210.644c4.363.689,22.21,3.263,26.2.606,3.223-2.148-5.851-36.959-5.851-36.959l8.074-3.286s19.171,42.212,8.929,51.855c-5.2,4.9-19.819,6.14-40.849,6.14Z" fill="#fff" opacity="0.8"/>
          </g>
          <path id="Trazado_181009" data-name="Trazado 181009" d="M173.39,228.86c-3.1.09-6.41.13-9.89.13l3-11.49A25.759,25.759,0,0,1,173.39,228.86Z" opacity="0.1" style="isolation: isolate"/>
          <line id="Línea_114" data-name="Línea 114" x2="21.167" y2="22.378" transform="translate(191.167 234.989)" fill="none" stroke="#2e353a" stroke-miterlimit="10" stroke-width="2"/>
          <path id="Trazado_181010" data-name="Trazado 181010" d="M176,248.167s16.152-.5,17.826-.667,8.674-4.167,10.174-4.333,5.5,6.166,6,7.666-11.333,5.5-12.5,5.334a18.443,18.443,0,0,1-3.674-1.433L176,256.833Z" fill="#b97964"/>
          <path id="Trazado_181011" data-name="Trazado 181011" d="M166.5,409.828l7.966-1.093,1.1-18.936-7.955,1.1Z" fill="#b97964"/>
          <path id="Trazado_181012" data-name="Trazado 181012" d="M175.07,407.775l-9-.561a.57.57,0,0,0-.628.506v.009l-.883,7.1a1.42,1.42,0,0,0,1.312,1.505c3.143.144,4.651.057,8.614.272,2.431.146,7.221.662,10.576.338s2.944-3.632,1.495-3.79c-3.435-.391-7.985-2.916-10.135-4.831A2.255,2.255,0,0,0,175.07,407.775Z" fill="#2e353a"/>
          <path id="Trazado_181013" data-name="Trazado 181013" d="M177.831,409.317a9.842,9.842,0,0,1-2.124-.421.171.171,0,0,1-.133-.15.213.213,0,0,1,.085-.188c.267-.163,2.636-1.568,3.6-1.128a.711.711,0,0,1,.4.559,1,1,0,0,1-.294,1.028A2.15,2.15,0,0,1,177.831,409.317ZM179.1,407.8c-.512-.238-1.887.351-2.855.885,1.416.371,2.472.392,2.874.047a.69.69,0,0,0,.175-.657.339.339,0,0,0-.194-.275Z" fill="#407bff"/>
          <path id="Trazado_181014" data-name="Trazado 181014" d="M175.748,408.9a.111.111,0,0,1-.08.007.213.213,0,0,1-.093-.153c0-.07-.034-2.416.817-3.15a1,1,0,0,1,.815-.21.721.721,0,0,1,.644.608c.125.883-1.174,2.488-2,2.91A.12.12,0,0,1,175.748,408.9Zm1.3-3.121a.541.541,0,0,0-.409.145,4.135,4.135,0,0,0-.681,2.507,3.937,3.937,0,0,0,1.517-2.347c-.009-.11-.071-.245-.336-.293Z" fill="#407bff"/>
          <path id="Trazado_181015" data-name="Trazado 181015" d="M167.619,390.9l7.956-1.092-.633,10.824-7.945.7Z" opacity="0.2" style="isolation: isolate"/>
          <path id="Trazado_181016" data-name="Trazado 181016" d="M166.824,298.509l-1.944-12.175-44.66-2.671s-4.749,25.337-1.1,32.087c6.513,12.05,41.618,5.969,51.89,7.154-6.14,25.11-5.54,74.18-5.54,74.18l14.67,1.12s11.288-52.877,13.57-78C195.25,303.25,181.2,303.672,166.824,298.509Z" fill="#2e353a"/>
          <path id="Trazado_181017" data-name="Trazado 181017" d="M163.75,397.774l17.63,1.16,1.51-7.55-19.37-.9Z" fill="#7c21d3"/>
          <path id="Trazado_181018" data-name="Trazado 181018" d="M184.881,402.757l8.019.59,5.024-18.291-8.01-.579Z" fill="#b97964"/>
          <path id="Trazado_181019" data-name="Trazado 181019" d="M193.687,402.533,185,400.11a.57.57,0,0,0-.72.363l0,.009-2.343,6.761a1.418,1.418,0,0,0,.97,1.744c3.044.8,4.537,1.025,8.368,2.062,2.347.648,6.925,2.151,10.274,2.533s3.635-2.94,2.251-3.4c-3.278-1.1-7.2-4.515-8.9-6.836A2.253,2.253,0,0,0,193.687,402.533Z" fill="#2e353a"/>
          <path id="Trazado_181020" data-name="Trazado 181020" d="M196.066,404.617a9.888,9.888,0,0,1-1.989-.855.172.172,0,0,1-.1-.174.206.206,0,0,1,.121-.166c.3-.1,2.906-.985,3.754-.354a.712.712,0,0,1,.274.629,1,1,0,0,1-.5.944A2.151,2.151,0,0,1,196.066,404.617Zm1.553-1.216c-.451-.339-1.918-.05-2.977.27,1.308.659,2.336.9,2.8.645a.69.69,0,0,0,.308-.606.341.341,0,0,0-.133-.309Z" fill="#407bff"/>
          <path id="Trazado_181021" data-name="Trazado 181021" d="M194.115,403.776a.1.1,0,0,1-.079-.01.21.21,0,0,1-.06-.168c.019-.069.47-2.37,1.455-2.912a1,1,0,0,1,.841-.035.72.72,0,0,1,.5.729c-.061.889-1.666,2.189-2.563,2.429A.12.12,0,0,1,194.115,403.776Zm1.923-2.781a.538.538,0,0,0-.431.056c-.594.319-1,1.577-1.188,2.31.824-.38,1.9-1.394,1.973-1.979.014-.109-.018-.254-.268-.356Z" fill="#407bff"/>
          <path id="Trazado_181022" data-name="Trazado 181022" d="M189.914,384.477l8.009.589-2.874,10.454-7.916-.973Z" opacity="0.2" style="isolation: isolate"/>
          <path id="Trazado_181023" data-name="Trazado 181023" d="M200.64,394.23l-14.12-4.15S194.95,342.5,203.5,326c-.64-.21-1.49-.48-2.54-.79-1.89-.57-4.4-1.28-7.35-2.1-20.52-5.69-62.11-16.36-62.11-16.36l19-17.73s75.68,11.54,77.25,31.48C228.5,330.09,200.64,394.23,200.64,394.23Z" fill="#2e353a"/>
          <path id="Trazado_181024" data-name="Trazado 181024" d="M184.7,390.393l17,4.807,3.049-7.07-18.758-4.915Z" fill="#7c21d3"/>
          <path id="Trazado_181025" data-name="Trazado 181025" d="M200.96,325.21c-1.89-.57-4.4-1.28-7.35-2.1.59-4.84.6-10.39-1.73-13.22-4.63-5.64-16.54-8.95-23.32-10.15-5.67-1-24.72-2.99-24.72-2.99s24.72-2.37,49.99,5C206.32,305.4,203.89,317.61,200.96,325.21Z" opacity="0.2" style="isolation: isolate"/>
          <g id="Grupo_118879" data-name="Grupo 118879">
            <path id="Trazado_181026" data-name="Trazado 181026" d="M165.97,210.644s6.48,24-1.09,75.69c-14.11-.3-37.82-.85-44.69-1-.17-7.2,5.14-42.48-1.07-76.51a92.885,92.885,0,0,1,13.53-1.34,172.464,172.464,0,0,1,19.91.43A87.415,87.415,0,0,1,165.97,210.644Z" fill="#407bff"/>
            <path id="Trazado_181027" data-name="Trazado 181027" d="M165.97,210.644s6.48,24-1.09,75.69c-14.11-.3-37.82-.85-44.69-1-.17-7.2,5.14-42.48-1.07-76.51a92.885,92.885,0,0,1,13.53-1.34,172.464,172.464,0,0,1,19.91.43A87.415,87.415,0,0,1,165.97,210.644Z" fill="#fff" opacity="0.7"/>
          </g>
          <path id="Trazado_181028" data-name="Trazado 181028" d="M134.83,252.67c-3.97-.88-8.77-4.73-12.7-8.53-.03-6.76-.33-13.95-1.06-21.28C126.63,231.09,141.69,254.18,134.83,252.67Z" opacity="0.1" style="isolation: isolate"/>
          <g id="Grupo_118880" data-name="Grupo 118880">
            <path id="Trazado_181029" data-name="Trazado 181029" d="M119.12,208.824C103.833,214.333,130.667,255.734,139,260s50.667-4.667,50.667-4.667L188,246.769s-37.457.956-40.91.083S135.436,228.333,130.718,220A26.653,26.653,0,0,0,119.12,208.824Z" fill="#407bff"/>
            <path id="Trazado_181030" data-name="Trazado 181030" d="M119.12,208.824C103.833,214.333,130.667,255.734,139,260s50.667-4.667,50.667-4.667L188,246.769s-37.457.956-40.91.083S135.436,228.333,130.718,220A26.653,26.653,0,0,0,119.12,208.824Z" fill="#fff" opacity="0.8"/>
          </g>
          <g id="Grupo_118881" data-name="Grupo 118881">
            <path id="Trazado_181031" data-name="Trazado 181031" d="M185,246l2.167,11.367,4-1.367-1.5-10Z" fill="#407bff"/>
            <path id="Trazado_181032" data-name="Trazado 181032" d="M185,246l2.167,11.367,4-1.367-1.5-10Z" fill="#fff" opacity="0.7"/>
          </g>
          <g id="Grupo_118882" data-name="Grupo 118882">
            <path id="Trazado_181033" data-name="Trazado 181033" d="M186.078,176.777l10.759-4.258-2.092-3.673-9.542,3.347Z" fill="#407bff"/>
            <path id="Trazado_181034" data-name="Trazado 181034" d="M186.078,176.777l10.759-4.258-2.092-3.673-9.542,3.347Z" fill="#fff" opacity="0.7"/>
          </g>
          <path id="Trazado_181035" data-name="Trazado 181035" d="M130.241,207.578s.285,4.672,9.459,9.172l6.344-4.586s1.809,11.711,2.945,20.461c0,0-.076-14-1.282-19.375l4.853,1.721s-4.134-7.1-11.16-8.721S130.241,207.578,130.241,207.578Z" opacity="0.1" style="isolation: isolate"/>
          <path id="Trazado_181036" data-name="Trazado 181036" d="M135.1,185.164c1.12,6.43,2.12,18.19-2.45,22.37l13.394,3.716,6.516-3.286c-7.11-1.86-6.81-7.16-5.46-12.11Z" fill="#b97964"/>
          <path id="Trazado_181037" data-name="Trazado 181037" d="M139.99,189.524l7.1,6.33a20.967,20.967,0,0,0-.69,3.52c-2.72-.45-6.4-3.53-6.63-6.39A9.4,9.4,0,0,1,139.99,189.524Z" opacity="0.2" style="isolation: isolate"/>
          <path id="Trazado_181038" data-name="Trazado 181038" d="M144.57,167.294c-2.91,3.16-.4,6.77,8.89,11.16,2.21-4.87.86-13-2.14-14.42S147.11,164.554,144.57,167.294Z" fill="#2e353a"/>
          <path id="Trazado_181039" data-name="Trazado 181039" d="M131.2,177.234c2.36,8.37,3.32,13.38,8.54,16.81,7.86,5.15,17.49-1,17.68-9.91.16-8-3.72-20.35-12.75-21.92a11.86,11.86,0,0,0-13.47,15.02Z" fill="#b97964"/>
          <path id="Trazado_181040" data-name="Trazado 181040" d="M144.37,176.814c.15.69.64,1.17,1.09,1.07s.69-.73.54-1.42-.63-1.17-1.08-1.08S144.27,176.124,144.37,176.814Z" fill="#2e353a"/>
          <path id="Trazado_181041" data-name="Trazado 181041" d="M152.22,175.124c.15.69.64,1.17,1.09,1.07s.7-.73.55-1.43-.64-1.17-1.09-1.07S152.07,174.434,152.22,175.124Z" fill="#2e353a"/>
          <path id="Trazado_181042" data-name="Trazado 181042" d="M149.73,176a25.248,25.248,0,0,0,4.58,5.19,4.079,4.079,0,0,1-3.17,1.33Z" fill="#a24e3f"/>
          <path id="Trazado_181043" data-name="Trazado 181043" d="M141.69,174.8a.391.391,0,0,1-.48-.55,4.1,4.1,0,0,1,2.94-2.39.4.4,0,0,1,.466.321l0,.029a.43.43,0,0,1-.35.47h0a3.268,3.268,0,0,0-2.3,1.91A.43.43,0,0,1,141.69,174.8Z" fill="#2e353a"/>
          <path id="Trazado_181044" data-name="Trazado 181044" d="M155.22,171.7a.431.431,0,0,1-.42-.15,3.3,3.3,0,0,0-2.68-1.34.417.417,0,0,1-.08-.83,4.14,4.14,0,0,1,3.41,1.66.41.41,0,0,1-.065.576l0,0A.5.5,0,0,1,155.22,171.7Z" fill="#2e353a"/>
          <path id="Trazado_181045" data-name="Trazado 181045" d="M132.95,168.984c4.26.5,4.7,4.88.5,14.25-4.85-2.26-9.12-9.32-7.75-12.34S129.23,168.554,132.95,168.984Z" fill="#2e353a"/>
          <path id="Trazado_181046" data-name="Trazado 181046" d="M128.63,184.894a8.27,8.27,0,0,0,4.89,4c2.78.81,4.2-1.67,3.46-4.31-.67-2.38-2.93-5.67-5.73-5.32S127.37,182.524,128.63,184.894Z" fill="#b97964"/>
          <path id="Trazado_181047" data-name="Trazado 181047" d="M126.08,170.194s-2.114-2.726,2.028-8.168,14.149-7.109,21.854-5.609,3.121,10,.371,11.416l.334-1.333a22.955,22.955,0,0,1-9.492,2.583l1.511-1.416S130.576,170.8,126.08,170.194Z" fill="#2e353a"/>
          <g id="Grupo_118883" data-name="Grupo 118883">
            <path id="Trazado_181048" data-name="Trazado 181048" d="M150.627,184.822a21.63,21.63,0,0,0-.285,3.11c-.182.028-.363.057-.546.076-2.472.329-3.727-.336-4.369-1.172a3.217,3.217,0,0,1-.585-1.406,3.122,3.122,0,0,1-.043-.87,11.749,11.749,0,0,0,4.983.36C150.3,184.875,150.627,184.822,150.627,184.822Z" fill="#2e353a"/>
            <path id="Trazado_181049" data-name="Trazado 181049" d="M149.782,184.92l-.107.915c-2.33.3-4.01.2-4.833-.405a3.122,3.122,0,0,1-.043-.87A11.749,11.749,0,0,0,149.782,184.92Z" fill="#fff"/>
            <path id="Trazado_181050" data-name="Trazado 181050" d="M149.8,188.008c-2.472.329-3.727-.336-4.369-1.172a8,8,0,0,1,2.817.18A3.007,3.007,0,0,1,149.8,188.008Z" fill="#a24e3f"/>
          </g>
          <g id="Grupo_118884" data-name="Grupo 118884">
            <path id="Trazado_181051" data-name="Trazado 181051" d="M134.99,203.577s7.224,5.423,11.054,6.673c0,0,1.773-3.345,1.046-6.1l5.47,3.811a13.5,13.5,0,0,1,0,7.007l-6.516-3.721-6.166,4.5s-9.112-2.639-9.637-8.172Z" fill="#407bff"/>
            <path id="Trazado_181052" data-name="Trazado 181052" d="M134.99,203.577s7.224,5.423,11.054,6.673c0,0,1.773-3.345,1.046-6.1l5.47,3.811a13.5,13.5,0,0,1,0,7.007l-6.516-3.721-6.166,4.5s-9.112-2.639-9.637-8.172Z" fill="#fff" opacity="0.8"/>
          </g>
        </g>
        <g id="Grupo_118885" data-name="Grupo 118885">
          <rect id="Rectángulo_36783" data-name="Rectángulo 36783" width="102.013" height="5.266" rx="1.167" transform="translate(153.33 254.865)" fill="#dec6f6"/>
          <path id="Trazado_181053" data-name="Trazado 181053" d="M255,255.9v2.93c0,.65-.18,1.17-.82,1.17H154.5c-.65,0-1.5-.52-1.5-1.17V255.9c0-.64.85-.9,1.5-.9h99.68C254.82,255,255,255.26,255,255.9Z" transform="translate(0 -0.134)" fill="#fff" opacity="0.5"/>
          <path id="Trazado_181054" data-name="Trazado 181054" d="M195,255.9v2.93c0,.65-.22,1.17-.86,1.17H154.5c-.65,0-1.5-.52-1.5-1.17V255.9c0-.64.85-.9,1.5-.9h39.64C194.78,255,195,255.26,195,255.9Z" opacity="0.2" style="isolation: isolate"/>
        </g>
      </g>
      <g id="Lightbulb">
        <g id="Grupo_118886" data-name="Grupo 118886">
          <path id="Trazado_181055" data-name="Trazado 181055" d="M172.356,109.131a19.129,19.129,0,1,0-25.9,22.7,5.461,5.461,0,0,1,2.882,2.778l.657,1.477,18.4-5.014-.183-1.6a5.518,5.518,0,0,1,1.092-3.885A19.261,19.261,0,0,0,172.356,109.131Z" fill="#7c21d3"/>
          <path id="Trazado_181056" data-name="Trazado 181056" d="M156,136.123s-2.769-8.7-7.668-12.544l2.715-.74.214-4.167,4.423,6.409-.358-7.8,4.37,7.111.443-4.031,3.872-1.055a22.221,22.221,0,0,0-1.078,15.115" fill="none" stroke="#fff" stroke-linecap="round" stroke-linejoin="round" stroke-width="1"/>
          <path id="Trazado_181057" data-name="Trazado 181057" d="M159.478,134.664c-3.258.888-5.075,4.632-4.059,8.363s4.482,6.035,7.74,5.148,5.075-4.632,4.058-8.363S162.736,133.777,159.478,134.664Z" fill="#2e353a"/>
          <path id="Trazado_181058" data-name="Trazado 181058" d="M165.758,144.743l-6.556,1.786a6.44,6.44,0,0,1-7.763-4.062l-2.151-6.066a.928.928,0,0,1,.63-1.205l18.092-4.929a.927.927,0,0,1,1.154.718l1.224,6.319A6.44,6.44,0,0,1,165.758,144.743Z" fill="#dec6f6"/>
        </g>
        <g id="Grupo_118887" data-name="Grupo 118887">
          <path id="Trazado_181060" data-name="Trazado 181060" d="M128.382,128.25a31.444,31.444,0,0,0-5.435-.509,22.641,22.641,0,0,0-2.71.148c-.445.07-.894.122-1.327.235-.216.057-.44.089-.649.166l-.635.2-.72.23.429-.63a23.793,23.793,0,0,0,2.871-5.8,18.145,18.145,0,0,0,.752-3.13,14.694,14.694,0,0,0,.145-1.591,12.516,12.516,0,0,0-.026-1.586,12.162,12.162,0,0,0-.217-1.561l-.188-.764-.249-.744a9.867,9.867,0,0,0-.649-1.423,11.991,11.991,0,0,0-.835-1.325,12.88,12.88,0,0,0-1.02-1.2l-.552-.561-.6-.516c-.385-.359-.841-.64-1.26-.961-.437-.3-.9-.566-1.348-.851l-1.04-.663,1.108-.532c.532-.255,1.092-.567,1.625-.882s1.063-.656,1.577-1.011a26.616,26.616,0,0,0,2.928-2.318c.458-.42.9-.858,1.321-1.306s.818-.924,1.2-1.408.727-.987,1.044-1.508a14.84,14.84,0,0,0,.876-1.6,14.111,14.111,0,0,0,.682-1.676l.258-.865.187-.881a11.785,11.785,0,0,0,.2-1.787,13.883,13.883,0,0,0-.034-1.8,15.09,15.09,0,0,0-.282-1.789l-.205-.886-.279-.87c-.163-.587-.438-1.141-.658-1.711-.245-.562-.543-1.1-.811-1.657l-1.427-2.95,2.736,1.761c.484.311,1.036.63,1.574.917s1.1.569,1.658.824a27.414,27.414,0,0,0,3.442,1.32c.586.178,1.176.337,1.77.463a16.4,16.4,0,0,0,1.789.3,13.654,13.654,0,0,0,1.791.108,13.132,13.132,0,0,0,1.767-.117l.865-.153.844-.222a10.72,10.72,0,0,0,1.6-.664,6.043,6.043,0,0,0,.747-.433,4.753,4.753,0,0,0,.709-.5,12.818,12.818,0,0,0,1.3-1.159,13.317,13.317,0,0,0,1.109-1.374,12.569,12.569,0,0,0,.945-1.518c.314-.51.523-1.089.791-1.629.233-.561.43-1.141.649-1.711l1.256-3.276.615,3.421a13.541,13.541,0,0,0,.429,1.649,15.716,15.716,0,0,0,.626,1.637,14.777,14.777,0,0,0,1.755,3.006,12.361,12.361,0,0,0,2.428,2.429,10.825,10.825,0,0,0,1.444.92,13.327,13.327,0,0,0,1.567.7,13.742,13.742,0,0,0,1.666.452,13.576,13.576,0,0,0,1.724.245,15.348,15.348,0,0,0,1.757.035c.588,0,1.177-.076,1.767-.13s1.175-.188,1.763-.277l1.747-.416,1.729-.521,1.706-.61,2.377-.849L173.5,84.721c-.242.373-.5.818-.728,1.245s-.443.879-.638,1.33a16.09,16.09,0,0,0-.931,2.782,11.841,11.841,0,0,0-.329,2.868,8.693,8.693,0,0,0,.488,2.787l.267.656.328.627a8.805,8.805,0,0,0,.826,1.158,8.953,8.953,0,0,0,1,1.03,10.917,10.917,0,0,0,1.161.883,12.722,12.722,0,0,0,1.263.759c.432.24.9.426,1.342.643l1.4.535,1.439.446,1.035.321-.846.648a13.508,13.508,0,0,0-1.584,1.442,15.51,15.51,0,0,0-1.39,1.662,9.764,9.764,0,0,0-.6.9,7.566,7.566,0,0,0-.525.943,5.868,5.868,0,0,0-.435.984,6.191,6.191,0,0,0-.335,1.021c-.071.349-.19.694-.226,1.05l-.1,1.071c0,.358.04.716.056,1.075a4.65,4.65,0,0,0,.177,1.064,6.427,6.427,0,0,0,.28,1.048l.41,1.011a5.672,5.672,0,0,0,.515.966l.56.948.2.345-.382,0a17.194,17.194,0,0,0-4.379.58,9.916,9.916,0,0,0-2.063.81c-.167.081-.315.194-.475.289a3,3,0,0,0-.45.326,3.5,3.5,0,0,0-.42.366l-.382.409.361-.43a3.457,3.457,0,0,1,.4-.391,2.976,2.976,0,0,1,.438-.354c.155-.1.3-.228.465-.319a10.126,10.126,0,0,1,2.053-.937,16.492,16.492,0,0,1,4.45-.789l-.178.348-.619-.956a6.05,6.05,0,0,1-.576-.983l-.473-1.047a6.784,6.784,0,0,1-.342-1.1,5.089,5.089,0,0,1-.234-1.131c-.035-.384-.1-.77-.106-1.156l.059-1.163a11.515,11.515,0,0,1,.2-1.145,6.883,6.883,0,0,1,.317-1.118,6.65,6.65,0,0,1,.426-1.079,8.491,8.491,0,0,1,.523-1.034,10.528,10.528,0,0,1,.606-.985,16.4,16.4,0,0,1,3.116-3.422l.189.969L178.6,103.1l-1.49-.528c-.483-.218-.979-.4-1.451-.652a13.824,13.824,0,0,1-1.394-.792,12.164,12.164,0,0,1-1.312-.949,10.355,10.355,0,0,1-1.171-1.143,10.137,10.137,0,0,1-.991-1.323l-.4-.727-.333-.763a10.1,10.1,0,0,1-.651-3.235,13.308,13.308,0,0,1,.288-3.244,17.776,17.776,0,0,1,.946-3.076c.2-.5.422-.982.658-1.463a15.141,15.141,0,0,1,.8-1.427l1.01,1.259-1.779.652-1.816.563c-.614.164-1.236.306-1.855.457-.631.1-1.256.24-1.895.314s-1.277.155-1.926.157a16.879,16.879,0,0,1-1.947-.024,15.262,15.262,0,0,1-1.945-.26,15.6,15.6,0,0,1-1.912-.5,15.08,15.08,0,0,1-1.822-.795,12.623,12.623,0,0,1-1.686-1.055,14.183,14.183,0,0,1-2.818-2.772,16.683,16.683,0,0,1-2-3.365,17.6,17.6,0,0,1-.711-1.818,14.831,14.831,0,0,1-.515-1.932l1.872.144c-.23.62-.44,1.247-.689,1.862-.289.6-.515,1.229-.86,1.809a14.471,14.471,0,0,1-1.056,1.726,15.392,15.392,0,0,1-1.274,1.6,12.8,12.8,0,0,1-1.546,1.376,6.323,6.323,0,0,1-.857.59,7.772,7.772,0,0,1-.9.514,12.845,12.845,0,0,1-1.927.78l-1,.256c-.337.067-.677.114-1.016.171a14.971,14.971,0,0,1-2.036.119,15.312,15.312,0,0,1-2.014-.137,18.229,18.229,0,0,1-1.97-.346c-.649-.143-1.287-.321-1.916-.518a29.124,29.124,0,0,1-3.667-1.44c-.594-.275-1.176-.576-1.752-.888s-1.13-.638-1.713-1.019l1.31-1.189c.286.6.6,1.185.863,1.8.237.625.526,1.227.7,1.878l.3.961.221.987a16.78,16.78,0,0,1,.3,2,15.881,15.881,0,0,1,.023,2.035,13.5,13.5,0,0,1-.241,2.024l-.22,1-.3.974a15.734,15.734,0,0,1-.778,1.872,14.2,14.2,0,0,1-.994,1.755c-.363.565-.767,1.1-1.181,1.62s-.866,1.01-1.327,1.487-.946.926-1.443,1.36a28.082,28.082,0,0,1-3.148,2.371c-.549.359-1.111.7-1.681,1.021s-1.144.621-1.774.9l.068-1.195c.472.316.957.61,1.417.944.445.356.921.669,1.333,1.069l.636.575.589.627a13.829,13.829,0,0,1,1.084,1.338,13,13,0,0,1,.887,1.483,11.009,11.009,0,0,1,.677,1.589l.254.826.186.842a13.243,13.243,0,0,1,.195,1.705,16.626,16.626,0,0,1-1.16,6.631,23.723,23.723,0,0,1-1.4,3.038,22.97,22.97,0,0,1-1.795,2.818l-.291-.4.677-.187c.224-.072.456-.1.683-.146.456-.1.919-.135,1.378-.189a21.392,21.392,0,0,1,2.761-.036A31.722,31.722,0,0,1,128.382,128.25Z" fill="#5a189a"/>
        </g>
      </g>
    </g>
  </g>
</svg>
