<svg xmlns="http://www.w3.org/2000/svg" width="715" height="383.895" viewBox="0 0 715 383.895">
  <g id="_46" data-name="46" transform="translate(5670 -3396.063)">
    <rect id="dylan-shaw-UxyWwU6n_ts-unsplash" width="715" height="383.895" transform="translate(-5670 3396.063)" fill="#fff0cc"/>
    <g id="Grupo_119057" data-name="Grupo 119057" transform="translate(-5562 3346.753)">
      <g id="Background_Complete" data-name="Background Complete">
        <g id="Grupo_119036" data-name="Grupo 119036">
          <rect id="Rectángulo_36797" data-name="Rectángulo 36797" width="500" height="0.25" transform="translate(0 382.398)" fill="#ebebeb"/>
          <rect id="Rectángulo_36798" data-name="Rectángulo 36798" width="53.068" height="0.25" transform="translate(396.833 398.494)" fill="#ebebeb"/>
          <rect id="Rectángulo_36799" data-name="Rectángulo 36799" width="58.665" height="0.25" transform="translate(272.556 395.361)" fill="#ebebeb"/>
          <rect id="Rectángulo_36800" data-name="Rectángulo 36800" width="19.192" height="0.25" transform="translate(380.195 393.917)" fill="#ebebeb"/>
          <rect id="Rectángulo_36801" data-name="Rectángulo 36801" width="43.193" height="0.25" transform="translate(100.473 390.888)" fill="#ebebeb"/>
          <rect id="Rectángulo_36802" data-name="Rectángulo 36802" width="15.444" height="0.25" transform="translate(79.459 390.888)" fill="#ebebeb"/>
          <rect id="Rectángulo_36803" data-name="Rectángulo 36803" width="54.195" height="0.25" transform="translate(131.471 395.111)" fill="#ebebeb"/>
          <path id="Trazado_181414" data-name="Trazado 181414" d="M237.014,337.8H43.915a5.715,5.715,0,0,1-5.708-5.708V60.66a5.714,5.714,0,0,1,5.708-5.707h193.1a5.714,5.714,0,0,1,5.707,5.707V332.092A5.715,5.715,0,0,1,237.014,337.8ZM43.915,55.2a5.463,5.463,0,0,0-5.458,5.457V332.092a5.464,5.464,0,0,0,5.458,5.458h193.1a5.463,5.463,0,0,0,5.457-5.458V60.66a5.463,5.463,0,0,0-5.457-5.457Z" fill="#ebebeb"/>
          <path id="Trazado_181415" data-name="Trazado 181415" d="M453.31,337.8h-193.1a5.714,5.714,0,0,1-5.707-5.708V60.66a5.713,5.713,0,0,1,5.707-5.707h193.1a5.714,5.714,0,0,1,5.709,5.707V332.092A5.715,5.715,0,0,1,453.31,337.8ZM260.212,55.2a5.463,5.463,0,0,0-5.457,5.457V332.092a5.463,5.463,0,0,0,5.457,5.458h193.1a5.464,5.464,0,0,0,5.459-5.458V60.66A5.464,5.464,0,0,0,453.31,55.2Z" fill="#ebebeb"/>
        </g>
        <g id="Grupo_119046" data-name="Grupo 119046">
          <g id="Grupo_119037" data-name="Grupo 119037" transform="translate(-80)">
            <rect id="Rectángulo_36804" data-name="Rectángulo 36804" width="70.969" height="12.455" rx="5.125" transform="translate(51.613 309.779)" fill="#ffe299"/>
            <path id="Trazado_181416" data-name="Trazado 181416" d="M71.3,322.234h-9.99L49.948,382.4h9.99Z" fill="#ffd366"/>
            <path id="Trazado_181417" data-name="Trazado 181417" d="M91.244,322.234h-9.99l-5.6,60.165h9.99Z" fill="#ffd366"/>
            <path id="Trazado_181418" data-name="Trazado 181418" d="M102.894,322.234h9.99L124.248,382.4h-9.99Z" fill="#ffd366"/>
          </g>
          <g id="Grupo_119038" data-name="Grupo 119038" transform="translate(118)">
            <rect id="Rectángulo_36805" data-name="Rectángulo 36805" width="233.653" height="203.552" transform="translate(197.156 70.654)" fill="#ffc533"/>
            <rect id="Rectángulo_36806" data-name="Rectángulo 36806" width="237.387" height="203.552" transform="translate(200.431 70.654)" fill="#ffe299"/>
            <rect id="Rectángulo_36807" data-name="Rectángulo 36807" width="233.653" height="3.944" transform="translate(197.156 274.206)" fill="#e6e6e6"/>
            <rect id="Rectángulo_36808" data-name="Rectángulo 36808" width="237.387" height="3.944" transform="translate(204.168 274.206)" fill="#ffd366"/>
            <rect id="Rectángulo_36809" data-name="Rectángulo 36809" width="190.902" height="217.76" transform="translate(428.004 76.979) rotate(90)" fill="#fff0cc"/>
            <path id="Trazado_181419" data-name="Trazado 181419" d="M279.863,267.881l41.046-190.9H348.1l-41.046,190.9Z" fill="#fff5dc"/>
            <path id="Trazado_181420" data-name="Trazado 181420" d="M248.12,267.881l41.046-190.9h27.191l-41.046,190.9Z" fill="#fff5dc"/>
            <path id="Trazado_181421" data-name="Trazado 181421" d="M215.37,77.5V255.881c0,.285.359.516.8.516h1.06c.443,0,.8-.231.8-.516V77.5c0-.285-.358-.516-.8-.516h-1.06C215.729,76.979,215.37,77.21,215.37,77.5Z" fill="#f0f0f0"/>
            <path id="Trazado_181422" data-name="Trazado 181422" d="M349.782,267.881l41.046-190.9h10.6l-41.046,190.9Z" fill="#fff5dc"/>
            <rect id="Rectángulo_36810" data-name="Rectángulo 36810" width="190.902" height="1.246" transform="translate(428.004 76.979) rotate(90)" fill="#ffd366"/>
            <g id="Grupo_119058" data-name="Grupo 119058">
              <path id="Trazado_181423" data-name="Trazado 181423" d="M440.139,84.9H206.486l-.9-5.461H439.236Z" fill="#ffc533" opacity="0.5"/>
              <path id="Trazado_181424" data-name="Trazado 181424" d="M440.139,103.635H206.486l-.9-5.461H439.236Z" fill="#ffc533" opacity="0.5"/>
              <path id="Trazado_181425" data-name="Trazado 181425" d="M440.139,122.371H206.486l-.9-5.461H439.236Z" fill="#ffc533" opacity="0.5"/>
              <path id="Trazado_181426" data-name="Trazado 181426" d="M440.139,141.107H206.486l-.9-5.461H439.236Z" fill="#ffc533" opacity="0.5"/>
              <path id="Trazado_181427" data-name="Trazado 181427" d="M440.139,159.843H206.486l-.9-5.461H439.236Z" fill="#ffc533" opacity="0.5"/>
              <path id="Trazado_181428" data-name="Trazado 181428" d="M440.139,178.579H206.486l-.9-5.461H439.236Z" fill="#ffc533" opacity="0.5"/>
              <path id="Trazado_181429" data-name="Trazado 181429" d="M440.139,94.267H206.486l-.9-5.461H439.236Z" fill="#ffc533" opacity="0.5"/>
              <path id="Trazado_181430" data-name="Trazado 181430" d="M440.139,113H206.486l-.9-5.461H439.236Z" fill="#ffc533" opacity="0.5"/>
              <path id="Trazado_181431" data-name="Trazado 181431" d="M440.139,131.739H206.486l-.9-5.461H439.236Z" fill="#ffc533" opacity="0.5"/>
              <path id="Trazado_181432" data-name="Trazado 181432" d="M440.139,150.475H206.486l-.9-5.461H439.236Z" fill="#ffc533" opacity="0.5"/>
              <path id="Trazado_181433" data-name="Trazado 181433" d="M440.139,169.211H206.486l-.9-5.461H439.236Z" fill="#ffc533" opacity="0.5"/>
              <path id="Trazado_181434" data-name="Trazado 181434" d="M440.139,187.947H206.486l-.9-5.461H439.236Z" fill="#ffc533" opacity="0.5"/>
            </g>
          </g>
          <g id="Grupo_119043" data-name="Grupo 119043">
            <g id="Grupo_119040" data-name="Grupo 119040">
              <g id="Grupo_119039" data-name="Grupo 119039">
                <rect id="Rectángulo_36811" data-name="Rectángulo 36811" width="30.943" height="92.761" transform="translate(399.866 289.638)" fill="#e6e6e6"/>
                <path id="Trazado_181435" data-name="Trazado 181435" d="M411.963,382.4h18.845V371.755H392.2Z" fill="#ffc533"/>
                <rect id="Rectángulo_36812" data-name="Rectángulo 36812" width="30.943" height="92.761" transform="translate(307.135 289.638)" fill="#ffe299"/>
                <path id="Trazado_181436" data-name="Trazado 181436" d="M340.476,382.4H321.631V371.755h38.6Z" fill="#ffc533"/>
                <rect id="Rectángulo_36813" data-name="Rectángulo 36813" width="109.177" height="90.548" transform="translate(321.631 289.638)" fill="#ffe299"/>
                <rect id="Rectángulo_36814" data-name="Rectángulo 36814" width="79.939" height="46.652" transform="translate(336.25 300.083)" fill="#fff0cc"/>
                <rect id="Rectángulo_36815" data-name="Rectángulo 36815" width="79.939" height="22.198" transform="translate(336.25 351.479)" fill="#fff0cc"/>
                <path id="Trazado_181437" data-name="Trazado 181437" d="M383.668,302.456h-14.9a4.3,4.3,0,0,1-4.3-4.3h23.489A4.3,4.3,0,0,1,383.668,302.456Z" fill="#ebebeb"/>
                <path id="Trazado_181438" data-name="Trazado 181438" d="M383.668,353.853h-14.9a4.3,4.3,0,0,1-4.3-4.3h23.489A4.3,4.3,0,0,1,383.668,353.853Z" fill="#ffd366"/>
              </g>
            </g>
            <g id="Grupo_119042" data-name="Grupo 119042">
              <g id="Grupo_119041" data-name="Grupo 119041">
                <rect id="Rectángulo_36816" data-name="Rectángulo 36816" width="30.943" height="92.761" transform="translate(282.322 289.638)" fill="#ffc533"/>
                <path id="Trazado_181439" data-name="Trazado 181439" d="M294.42,382.4h18.845V371.755h-38.6Z" fill="#ffd366"/>
                <rect id="Rectángulo_36817" data-name="Rectángulo 36817" width="30.943" height="92.761" transform="translate(189.591 289.638)" fill="#ffc533"/>
                <path id="Trazado_181440" data-name="Trazado 181440" d="M222.932,382.4H204.087V371.755h38.6Z" fill="#ffd366"/>
                <rect id="Rectángulo_36818" data-name="Rectángulo 36818" width="109.178" height="90.548" transform="translate(204.087 289.638)" fill="#ffe299"/>
                <rect id="Rectángulo_36819" data-name="Rectángulo 36819" width="79.939" height="46.652" transform="translate(218.707 300.083)" fill="#fff0cc"/>
                <rect id="Rectángulo_36820" data-name="Rectángulo 36820" width="79.939" height="22.198" transform="translate(218.707 351.479)" fill="#fff0cc"/>
                <path id="Trazado_181441" data-name="Trazado 181441" d="M266.124,302.456h-14.9a4.3,4.3,0,0,1-4.3-4.3H270.42A4.3,4.3,0,0,1,266.124,302.456Z" fill="#ebebeb"/>
                <path id="Trazado_181442" data-name="Trazado 181442" d="M266.124,353.853h-14.9a4.3,4.3,0,0,1-4.3-4.3H270.42A4.3,4.3,0,0,1,266.124,353.853Z" fill="#ffd366"/>
              </g>
            </g>
            <rect id="Rectángulo_36821" data-name="Rectángulo 36821" width="226.397" height="3.894" transform="translate(430.808 289.638) rotate(180)" fill="#f0f0f0"/>
            <rect id="Rectángulo_36822" data-name="Rectángulo 36822" width="14.82" height="3.894" transform="translate(189.591 285.744)" fill="#e0e0e0"/>
          </g>
          <g id="Grupo_119045" data-name="Grupo 119045" transform="translate(-80)">
            <path id="Trazado_181443" data-name="Trazado 181443" d="M84.393,294.878c-1.41-36.337-2.914-72.469.164-90.695l5.024-3.546s-1.1,3.4-1.678,59.071-1.295,26.9-.681,35.17Z" fill="#ffd366"/>
            <path id="Trazado_181444" data-name="Trazado 181444" d="M92.47,166c7.728-20.142,25.736-39.593,45.3-47.549,7.681-3.123-3.386,65.567-31.234,69.993-13.6,2.162-17.835,36.976-20.128,53.7C85.631,209.25,84.741,186.143,92.47,166Z" fill="#ffd366"/>
            <path id="Trazado_181445" data-name="Trazado 181445" d="M90.818,217.128c5.438-8.623,14.33-20.7,27.32-20.707,14.725-.014,1.839,24.235-15.469,31.979-8.452,3.782-15.5,15.784-17.326,23.3C85.5,236.472,85.379,225.75,90.818,217.128Z" fill="#ffd366"/>
            <path id="Trazado_181446" data-name="Trazado 181446" d="M77.578,191.066C68.12,174.306,47.04,157.451,24.6,149.783c-8.811-3.01-9.68,46.638,37.826,58.519,15.343,3.837,21.494,31,24.675,44.655C86.833,226.434,87.035,207.826,77.578,191.066Z" fill="#ffd366"/>
            <path id="Trazado_181447" data-name="Trazado 181447" d="M82.756,230.814c-6.028-10.683-22.415-15.906-37.153-14.908-5.786.392-6.418,22.318,25.767,30.785,9.762,2.568,13.7,19.759,15.728,28.463C86.929,258.249,88.784,241.5,82.756,230.814Z" fill="#ffd366"/>
            <path id="Trazado_181448" data-name="Trazado 181448" d="M83.381,174.382c-4.686-14.939-18.5-28.33-31.175-33.864-4.977-2.173-6.507,22.6,20.7,46.852,8.252,7.357,10.853,28.786,12.2,39.651C85.722,207.625,88.067,189.321,83.381,174.382Z" fill="#ffd366"/>
            <g id="Grupo_119044" data-name="Grupo 119044">
              <path id="Trazado_181449" data-name="Trazado 181449" d="M85.863,309.779h0c-9.9,0-18.078-.721-18.646-14.11L65.567,278.1h40.592l-1.649,17.573C103.942,309.058,95.762,309.779,85.863,309.779Z" fill="#ffe299"/>
              <path id="Trazado_181450" data-name="Trazado 181450" d="M106.307,285.338H65.419l-1.171-8.23h43.23Z" fill="#ffe299"/>
            </g>
          </g>
        </g>
      </g>
      <g id="Shadow">
        <ellipse id="_Path_" data-name="&lt;Path&gt;" cx="193.889" cy="11.323" rx="193.889" ry="11.323" transform="translate(56.111 404.915)" fill="#ffe299"/>
      </g>
      <g id="Board">
        <g id="Grupo_119050" data-name="Grupo 119050">
          <g id="Grupo_119047" data-name="Grupo 119047">
            <rect id="Rectángulo_36823" data-name="Rectángulo 36823" width="0.999" height="20.131" transform="translate(71.546 97.688) rotate(-2.786)" fill="#407bff"/>
            <rect id="Rectángulo_36824" data-name="Rectángulo 36824" width="0.999" height="9.894" transform="translate(72.855 124.579) rotate(-2.79)" fill="#407bff"/>
            <path id="Trazado_181451" data-name="Trazado 181451" d="M386.738,301.719H86.672a1.773,1.773,0,0,1-1.771-1.687L74.137,78.955A1.773,1.773,0,0,1,75.908,77.1H375.975a1.772,1.772,0,0,1,1.77,1.686L388.509,299.86A1.773,1.773,0,0,1,386.738,301.719Z" fill="#7c21d3"/>
            <path id="Trazado_181452" data-name="Trazado 181452" d="M88.352,296.4,77.942,82.583a1.773,1.773,0,0,1,1.771-1.859h292.81a1.773,1.773,0,0,1,1.771,1.686L384.7,296.232a1.773,1.773,0,0,1-1.771,1.859H90.123A1.773,1.773,0,0,1,88.352,296.4Z" fill="#fff" opacity="0.8"/>
            <path id="Trazado_181453" data-name="Trazado 181453" d="M161.9,286.143a.907.907,0,0,1-.9-.864L151.662,93.623a.907.907,0,0,1,.862-.95.921.921,0,0,1,.95.862L162.8,285.191a.909.909,0,0,1-.862.951Z" fill="#fff"/>
            <path id="Trazado_181454" data-name="Trazado 181454" d="M310.078,286.143a.909.909,0,0,1-.9-.864L299.841,93.623a.908.908,0,0,1,.862-.95.927.927,0,0,1,.951.862l9.332,191.656a.91.91,0,0,1-.863.951Z" fill="#fff"/>
            <path id="Trazado_181455" data-name="Trazado 181455" d="M235.988,286.143a.909.909,0,0,1-.906-.864L225.751,93.623a.908.908,0,0,1,1.813-.088L236.9,285.191a.909.909,0,0,1-.862.951Z" fill="#fff"/>
            <path id="Trazado_181456" data-name="Trazado 181456" d="M366.645,113.374H88.511a.907.907,0,1,1,0-1.814H366.645a.907.907,0,1,1,0,1.814Z" fill="#fff"/>
            <path id="Trazado_181457" data-name="Trazado 181457" d="M96.889,102.171a4.492,4.492,0,0,1,4.055.338c1.041.638,1.6,2.043,2.866,2.3,1.433.29,1.871-.882,2.878-1.55,1.28-.848,3.235-.469,4.663-.361q5.689.427,11.369.981c3.735.364,7.52,1,11.249.271,1.287-.253.742-2.22-.543-1.968-3.818.75-7.87-.074-11.694-.438-3.845-.367-7.7-.724-11.551-.973a8.523,8.523,0,0,0-3.913.424,4.71,4.71,0,0,0-1.559,1.117c-.156.161-.321.487-.575.444-.162-.027-.554-.625-.657-.741a6.522,6.522,0,0,0-7.13-1.811c-1.21.473-.683,2.447.542,1.968Z" fill="#fff"/>
            <path id="Trazado_181458" data-name="Trazado 181458" d="M164.409,105.172c1.518-1.147,3.806-2.661,5.065-.382.629,1.139,1.236,2.511,2.805,2.271,1.506-.23,2.612-2.188,3.713-3.115,1.642-1.382,3.3-1.8,5.213-.673a13.542,13.542,0,0,0,5.025,2.231,9.229,9.229,0,0,0,5.061-.815,8.255,8.255,0,0,1,2.925-.946,28.425,28.425,0,0,1,3.263.432,26.369,26.369,0,0,0,6.938-.67c1.289-.239.743-2.206-.543-1.968a21.679,21.679,0,0,1-7.543.434,9.13,9.13,0,0,0-2.791-.205,9.783,9.783,0,0,0-2.535.829c-2.1.916-4.116,1.355-6.308.388-1.7-.749-3.018-2.14-4.915-2.419a6.062,6.062,0,0,0-4.437,1.307,15.976,15.976,0,0,0-2.041,1.823,8.816,8.816,0,0,1-.9.962c-.494.37-.542.332-.834-.214-.735-1.372-1.432-2.491-3.073-2.819-1.948-.39-3.632.662-5.121,1.787-1.035.782-.019,2.554,1.03,1.762Z" fill="#fff"/>
            <path id="Trazado_181459" data-name="Trazado 181459" d="M241.034,104.608c1.188-.561,2.4-1.071,3.633-1.513a12.894,12.894,0,0,1,3.811-1.046c1.15-.021,2.164.664,3.264.9a3.932,3.932,0,0,0,2.523-.258c.719-.331,1.452-1.136,2.24-1.263.893-.145,1.639.9,2.4,1.25a4.542,4.542,0,0,0,2.471.283c.773-.087,1.908-.489,2.624-.029.666.428.867,1.359,1.587,1.791a2.156,2.156,0,0,0,2.058.084c.721-.356,1.117-1.029,1.713-1.528.879-.737,1.9-.328,2.911-.089a7.572,7.572,0,0,0,2.787.261c1.054-.139,2.27-.807,3.339-.6,1.751.347,2.663,2.21,4.625,1.249,1.179-.577.146-2.338-1.03-1.762-.5.243-1.947-1.037-2.431-1.24a4.474,4.474,0,0,0-2.7-.165,8.792,8.792,0,0,1-3.306.454,27.472,27.472,0,0,0-2.837-.577,3.511,3.511,0,0,0-2.376.66c-.395.292-1.236,1.577-1.743,1.472-.233-.048-.6-.812-.745-1a3.222,3.222,0,0,0-.826-.779,3.733,3.733,0,0,0-2.314-.434,7.8,7.8,0,0,1-2.716.183c-.864-.248-1.43-1.089-2.288-1.387-1.938-.673-2.871.921-4.528,1.407-1.074.315-2.175-.442-3.182-.714a6.165,6.165,0,0,0-3.2.053,37.045,37.045,0,0,0-6.8,2.571c-1.187.56-.153,2.32,1.029,1.762Z" fill="#fff"/>
            <path id="Trazado_181460" data-name="Trazado 181460" d="M309.154,104.065l5.446-1.554c.862-.246,1.729-.551,2.6-.744a3.878,3.878,0,0,1,2.477.452,12.641,12.641,0,0,0,4.572.523c1.815-.016,3.63-.045,5.445-.067l22.273-.276a1.021,1.021,0,0,0,0-2.041l-22.768.282c-1.79.023-3.579.061-5.369.066a12.577,12.577,0,0,1-2.644-.171c-.819-.172-1.509-.631-2.3-.851-1.486-.41-3.182.389-4.591.791l-5.682,1.622a1.021,1.021,0,0,0,.542,1.968Z" fill="#fff"/>
          </g>
          <g id="Grupo_119049" data-name="Grupo 119049">
            <path id="Trazado_181461" data-name="Trazado 181461" d="M163.552,183.4l-48.293,2.6a305.573,305.573,0,0,1-3.851-49.2l47.182-1.822A436.636,436.636,0,0,0,163.552,183.4Z" fill="#407bff" opacity="0.3"/>
            <path id="Trazado_181462" data-name="Trazado 181462" d="M164.654,181.186l-48.294,2.6a356.931,356.931,0,0,1-4.962-48.42l48.294-2.6A436.4,436.4,0,0,0,164.654,181.186Z" fill="#ff6b00"/>
            <path id="Trazado_181463" data-name="Trazado 181463" d="M224.368,201.153l-48.545-2.928V150.1l48.545,2.928Z" fill="#407bff" opacity="0.3"/>
            <path id="Trazado_181464" data-name="Trazado 181464" d="M223.732,200.066l-48.545-2.928.571-48.4,48.545,2.928Z" fill="#fff"/>
            <path id="Trazado_181465" data-name="Trazado 181465" d="M270.655,191.717l48.525-1.587c1.2-11.169-4.076-39.243-6.99-49.223l-47.074,2.99C269.137,161.612,270.866,178.271,270.655,191.717Z" fill="#407bff" opacity="0.3"/>
            <path id="Trazado_181466" data-name="Trazado 181466" d="M271.485,190.13l46.955-2.416c1.2-11.169-1.912-29.458-5.42-48.394l-48.245,3.064C268.8,160.1,271.7,176.684,271.485,190.13Z" fill="#ff8933"/>
            <g id="Grupo_119048" data-name="Grupo 119048">
              <path id="Trazado_181467" data-name="Trazado 181467" d="M137.556,266.111l49.546-5.035c-.128-11.3-5.938-37.533-9.384-47.365L131,219.262C135.97,236.779,136.178,252.656,137.556,266.111Z" fill="#ffb600" opacity="0.3"/>
              <path id="Trazado_181468" data-name="Trazado 181468" d="M138.727,265.424l47.765-5.192c.591-11.247-3.509-29.388-8.034-48.156l-47.878,5.69C134.457,235.331,138.206,251.95,138.727,265.424Z" fill="#ffb600"/>
            </g>
            <path id="Trazado_181469" data-name="Trazado 181469" d="M257.967,212.214l48.22,9.043c3.628-10.519,4.552-38.772,3.857-49.04l-47.1-7.373C263.046,182.821,261.113,199.28,257.967,212.214Z" fill="#407bff" opacity="0.3"/>
            <path id="Trazado_181470" data-name="Trazado 181470" d="M259.132,210.863l46.853,7.9c3.628-10.519,4.549-28.854,5.224-47.9l-48.266-7.556C263.04,181.286,262.278,197.928,259.132,210.863Z" fill="#fff"/>
          </g>
        </g>
      </g>
      <g id="Character">
        <g id="Grupo_119056" data-name="Grupo 119056">
          <path id="Trazado_181471" data-name="Trazado 181471" d="M372.636,167.277c.959,1.009,1.768,1.9,2.6,2.883q1.232,1.441,2.413,2.916c1.573,1.971,3.078,4,4.5,6.1s2.8,4.253,4.029,6.533a56.3,56.3,0,0,1,3.386,7.1l.37.932.092.236.116.343.221.688c.116.434.213.857.3,1.275.065.4.14.8.187,1.188a28.362,28.362,0,0,1,.15,4.3,56.381,56.381,0,0,1-.869,7.747,92.291,92.291,0,0,1-3.865,14.467L381,222.784c.391-4.705.75-9.5.881-14.123a63.869,63.869,0,0,0-.108-6.721,19.308,19.308,0,0,0-.426-2.92l-.152-.592-.167-.476-.57-1.155a79.1,79.1,0,0,0-7.153-11.374c-1.358-1.848-2.786-3.664-4.23-5.467q-1.08-1.354-2.2-2.673l-2.2-2.555Z" fill="#b65b52"/>
          <path id="Trazado_181472" data-name="Trazado 181472" d="M381.641,220.809l-3.647,3.914,7.116,4.2s2.461-3.274,1.5-6.62Z" fill="#b55b52"/>
          <path id="Trazado_181473" data-name="Trazado 181473" d="M373.259,230.5l6.93,2.431,4.92-4.014-7.115-4.2Z" fill="#b55b52"/>
          <path id="Trazado_181474" data-name="Trazado 181474" d="M393.223,246.518l-45.771-9.983a340.98,340.98,0,0,1,9.983-45.772l45.772,9.983A416.874,416.874,0,0,0,393.223,246.518Z" fill="#ff6b00"/>
          <rect id="Rectángulo_36825" data-name="Rectángulo 36825" width="46.847" height="46.847" transform="matrix(0.958, 0.285, -0.285, 0.958, 355.52, 189.595)" fill="#fff"/>
          <path id="Trazado_181475" data-name="Trazado 181475" d="M346.7,137.281c-.031.58-.363,1.038-.742,1.022s-.661-.5-.63-1.078.363-1.037.742-1.022S346.733,136.7,346.7,137.281Z" fill="#263238"/>
          <path id="Trazado_181476" data-name="Trazado 181476" d="M346.392,138.321a21.132,21.132,0,0,1-3.034,4.847,3.324,3.324,0,0,0,2.741.632Z" fill="#a02724"/>
          <path id="Trazado_181477" data-name="Trazado 181477" d="M349,134.147a.346.346,0,0,0,.216-.126.34.34,0,0,0-.052-.479,3.362,3.362,0,0,0-3.034-.651.344.344,0,0,0-.218.432.339.339,0,0,0,.428.214h0a2.685,2.685,0,0,1,2.4.542A.332.332,0,0,0,349,134.147Z" fill="#263238"/>
          <path id="Trazado_181478" data-name="Trazado 181478" d="M364.1,145.6c-1.1,5.264-1.816,12.557,1.822,16.07,0,0-1.507,5.34-11.288,5.34-10.755,0-5.114-4.687-5.114-4.687,4.488-1.387,4.515-6.48,3.544-10.57Z" fill="#b55b52"/>
          <path id="Trazado_181479" data-name="Trazado 181479" d="M341.329,409.26c-.923,0-1.814-.128-2.107-.543a.645.645,0,0,1,.024-.745.866.866,0,0,1,.545-.4c1.2-.326,3.7,1.107,3.8,1.169a.17.17,0,0,1,.081.175.174.174,0,0,1-.137.139A12.61,12.61,0,0,1,341.329,409.26Zm-1.123-1.4a1.26,1.26,0,0,0-.33.039.527.527,0,0,0-.337.238c-.123.212-.081.317-.038.377.329.465,2.148.476,3.488.287A7.6,7.6,0,0,0,340.206,407.864Z" fill="#407bff"/>
          <path id="Trazado_181480" data-name="Trazado 181480" d="M343.505,409.061a.165.165,0,0,1-.069-.015c-.864-.39-2.564-1.946-2.422-2.76.033-.191.172-.428.64-.476a1.23,1.23,0,0,1,.942.292c.906.752,1.074,2.69,1.081,2.772a.173.173,0,0,1-.072.155A.175.175,0,0,1,343.505,409.061Zm-1.718-2.917a.882.882,0,0,0-.1,0c-.307.031-.329.152-.335.192-.085.488,1.068,1.711,1.947,2.243a3.946,3.946,0,0,0-.921-2.219A.9.9,0,0,0,341.787,406.144Z" fill="#407bff"/>
          <path id="Trazado_181481" data-name="Trazado 181481" d="M351.72,408.89h-7.2l-.5-16.663h7.2Z" fill="#b55b52"/>
          <path id="Trazado_181482" data-name="Trazado 181482" d="M344.282,408.057h7.858a.617.617,0,0,1,.606.492l1.34,6.395a1.062,1.062,0,0,1-1.052,1.28c-2.834-.048-6.927-.214-10.49-.214-4.166,0-6.794.227-11.679.227-2.954,0-3.735-2.986-2.5-3.257,5.645-1.231,9.27-1.363,14.173-4.362A3.366,3.366,0,0,1,344.282,408.057Z" fill="#263238"/>
          <g id="Grupo_119051" data-name="Grupo 119051">
            <path id="Trazado_181483" data-name="Trazado 181483" d="M368.815,162.534c6.9.073,16.543,17.578,16.543,17.578l-10.693,10.914a25.522,25.522,0,0,1-10.9-11.228C359.684,171.454,361.761,162.458,368.815,162.534Z" fill="#407bff"/>
            <path id="Trazado_181484" data-name="Trazado 181484" d="M368.815,162.534c6.9.073,16.543,17.578,16.543,17.578l-10.693,10.914a25.522,25.522,0,0,1-10.9-11.228C359.684,171.454,361.761,162.458,368.815,162.534Z" opacity="0.3"/>
          </g>
          <g id="Grupo_119052" data-name="Grupo 119052">
            <path id="Trazado_181485" data-name="Trazado 181485" d="M336.078,170.513c-1.57,7.772-2.7,23.735,1.169,55.351h38.486c.3-5.123-2.179-27.473,1.106-51.471a11.212,11.212,0,0,0-10.494-12.7l-.422-.022a141.389,141.389,0,0,0-16.359,0c-1.808.165-3.583.426-5.165.705A10.336,10.336,0,0,0,336.078,170.513Z" fill="#407bff"/>
            <path id="Trazado_181486" data-name="Trazado 181486" d="M336.078,170.513c-1.57,7.772-2.7,23.735,1.169,55.351h38.486c.3-5.123-2.179-27.473,1.106-51.471a11.212,11.212,0,0,0-10.494-12.7l-.422-.022a141.389,141.389,0,0,0-16.359,0c-1.808.165-3.583.426-5.165.705A10.336,10.336,0,0,0,336.078,170.513Z" opacity="0.2"/>
          </g>
          <path id="Trazado_181487" data-name="Trazado 181487" d="M344.935,186.521,339.754,183c-5,1.621-5.267,6.481-4.989,13.5C339.047,195.427,343.97,191.352,344.935,186.521Z" opacity="0.2"/>
          <g id="Grupo_119053" data-name="Grupo 119053">
            <path id="Trazado_181488" data-name="Trazado 181488" d="M344.023,392.232l.258,8.589h7.2l-.258-8.589Z" opacity="0.2"/>
          </g>
          <path id="Trazado_181489" data-name="Trazado 181489" d="M366.1,136.837c-.818,7.1-.936,11.3-4.726,14.808-5.7,5.279-14.313,1.661-15.632-5.517-1.187-6.461.349-16.993,7.468-19.544A9.616,9.616,0,0,1,366.1,136.837Z" fill="#b55b52"/>
          <path id="Trazado_181490" data-name="Trazado 181490" d="M350.941,139.875c-2.208.5-3.208-4.708-.958-6.708-2-1-4.894-2.449-5.858-4.625-1.108-2.5,1.9-5.5,4.483-5.375-.834-1.667,1.015-6.128,6.281-4.445,5.389,1.722,7.76,4.278,7.76,4.278s1.74-5.778,5.407-1.111c3.257,4.146,1.968,7.688,1.968,7.688s4.834,4.59,3.584,8.006a8.321,8.321,0,0,1-4,4.625s.731,8.029-5.15,9.959-9.583-2.042-9.092-4.334C351.566,148.042,347.691,142.958,350.941,139.875Z" fill="#263238"/>
          <path id="Trazado_181491" data-name="Trazado 181491" d="M353.5,139.352a8.143,8.143,0,0,1-2.355,4.635c-1.689,1.63-3.252.464-3.383-1.647-.119-1.9.618-5.04,2.6-5.878C352.316,135.637,353.772,137.234,353.5,139.352Z" fill="#b55b52"/>
          <path id="Trazado_181492" data-name="Trazado 181492" d="M412.8,399.815l-6.394,2.293-6.363-16.468,6.394-2.294Z" fill="#b55b52"/>
          <path id="Trazado_181493" data-name="Trazado 181493" d="M403.564,403.153c-.726.571-1.5,1.021-1.992.877a.646.646,0,0,1-.441-.6.861.861,0,0,1,.182-.651c.743-1,3.591-1.416,3.712-1.433a.17.17,0,0,1,.172.087.176.176,0,0,1-.021.195A12.712,12.712,0,0,1,403.564,403.153Zm-1.746-.4a1.271,1.271,0,0,0-.235.234.521.521,0,0,0-.117.4c.034.242.132.3.2.319.546.163,1.982-.953,2.918-1.931A7.622,7.622,0,0,0,401.818,402.751Z" fill="#407bff"/>
          <path id="Trazado_181494" data-name="Trazado 181494" d="M405.151,401.651a.16.16,0,0,1-.064.031c-.919.228-3.218.056-3.609-.671-.092-.171-.13-.443.209-.771a1.231,1.231,0,0,1,.92-.352c1.177.031,2.508,1.45,2.564,1.51a.174.174,0,0,1,.039.166A.176.176,0,0,1,405.151,401.651ZM402,400.421c-.026.021-.052.043-.077.067-.222.214-.164.322-.145.358.235.436,1.9.684,2.918.559a3.95,3.95,0,0,0-2.1-1.174A.9.9,0,0,0,402,400.421Z" fill="#407bff"/>
          <path id="Trazado_181495" data-name="Trazado 181495" d="M405.18,400.351l6.176-4.858a.665.665,0,0,1,.8-.007l5.308,3.963a1,1,0,0,1,.025,1.608c-2.259,1.716-6.618,5.23-9.281,7.6-3.114,2.767-.69.916-4.341,4.161-2.208,1.963-4.909.368-4.174-.647,3.346-4.621,4.058-7.372,4.489-10.321A2.461,2.461,0,0,1,405.18,400.351Z" fill="#263238"/>
          <path id="Trazado_181496" data-name="Trazado 181496" d="M300.072,188.367l-2.81-6.047-7.654,4.733s2.521,5.151,7.743,4.583Z" fill="#b55b52"/>
          <path id="Trazado_181497" data-name="Trazado 181497" d="M290.066,180.678l-1.707,1.471a2.461,2.461,0,0,0-.077,3.66l1.326,1.244,7.654-4.733-4.594-2.029A2.463,2.463,0,0,0,290.066,180.678Z" fill="#b55b52"/>
          <g id="Grupo_119054" data-name="Grupo 119054">
            <path id="Trazado_181498" data-name="Trazado 181498" d="M400.044,385.645l3.279,8.489,6.4-2.294-3.279-8.489Z" opacity="0.2"/>
          </g>
          <path id="Trazado_181499" data-name="Trazado 181499" d="M350.9,225.864s12.007,55.269,16.6,75.784c5.03,22.467,31.493,90.769,31.493,90.769l11.616-6.3S398.181,332.535,389.1,303.3c-3.293-24.165-13.364-77.438-13.364-77.438Z" fill="#263238"/>
          <path id="Trazado_181500" data-name="Trazado 181500" d="M395.718,389.014c-.055.021,2.385,4.505,2.385,4.505l14.381-5.4-1.144-4.39Z" fill="#407bff"/>
          <path id="Trazado_181501" data-name="Trazado 181501" d="M357.961,251.479c9.058,1.207,10.081,33.124,9.913,51.854-.125-.593-.261-1.156-.377-1.688-2.506-11.2-7.222-32.786-10.99-50.064A3.257,3.257,0,0,1,357.961,251.479Z" opacity="0.3"/>
          <path id="Trazado_181502" data-name="Trazado 181502" d="M337.247,225.864s-3.058,53.8-2.557,75.74c.522,22.823,6.931,97.554,6.931,97.554H353.81s1.993-73.4,2.822-95.812c.9-24.436,5.913-77.482,5.913-77.482Z" fill="#263238"/>
          <path id="Trazado_181503" data-name="Trazado 181503" d="M339.338,394.3c-.056,0,.623,5.061.623,5.061h14.827l.459-4.517Z" fill="#407bff"/>
          <path id="Trazado_181504" data-name="Trazado 181504" d="M347.622,174.235a81.146,81.146,0,0,1-5.548,8.525,87.739,87.739,0,0,1-6.495,7.686c-2.284,2.435-4.687,4.732-7.154,6.911-2.432,2.183-5.056,4.266-7.375,6.175l-.823.677-.673.242a11.435,11.435,0,0,1-5.173.572,16.2,16.2,0,0,1-4.177-1.078,27.1,27.1,0,0,1-6.3-3.709,45.219,45.219,0,0,1-4.992-4.512c-.763-.8-1.484-1.625-2.193-2.458s-1.374-1.664-2.06-2.616l3.944-3.692c1.539,1.143,3.185,2.379,4.83,3.444a54.891,54.891,0,0,0,4.944,2.987,21.737,21.737,0,0,0,4.769,1.94,6.553,6.553,0,0,0,1.894.229,1.811,1.811,0,0,0,.949-.255l-1.495.919c2.441-2.286,4.649-4.319,6.85-6.472q3.267-3.213,6.262-6.585c1.978-2.264,3.886-4.569,5.642-6.964,1.775-2.382,3.369-4.867,4.9-7.375Z" fill="#b65b52"/>
          <g id="Grupo_119055" data-name="Grupo 119055">
            <path id="Trazado_181505" data-name="Trazado 181505" d="M352.736,172.721c-.686,10.347-12.555,19.037-12.555,19.037l-15.406-8.448s5.676-12.193,13.319-17.95C347.536,158.25,353.258,164.845,352.736,172.721Z" fill="#407bff"/>
            <path id="Trazado_181506" data-name="Trazado 181506" d="M352.736,172.721c-.686,10.347-12.555,19.037-12.555,19.037l-15.406-8.448s5.676-12.193,13.319-17.95C347.536,158.25,353.258,164.845,352.736,172.721Z" opacity="0.2"/>
          </g>
        </g>
      </g>
    </g>
  </g>
</svg>
