<svg xmlns="http://www.w3.org/2000/svg" width="715" height="383.895" viewBox="0 0 715 383.895">
  <g id="_47" data-name="47" transform="translate(5670 -3813.063)">
    <rect id="dylan-shaw-UxyWwU6n_ts-unsplash" width="715" height="383.895" transform="translate(-5670 3813.063)" fill="#fff0cc"/>
    <g id="Grupo_119387" data-name="Grupo 119387" transform="translate(-5629.26 3793.752)">
      <g id="Background_Complete" data-name="Background Complete" transform="translate(42.017 63.856)">
        <g id="Grupo_119075" data-name="Grupo 119075" transform="translate(0)">
          <g id="Grupo_119059" data-name="Grupo 119059" transform="translate(7.061 4.786)">
            <rect id="Rectángulo_36826" data-name="Rectángulo 36826" width="97.653" height="175.426" fill="#ffe299"/>
          </g>
          <g id="Grupo_119060" data-name="Grupo 119060" transform="translate(10.963 9.874)">
            <rect id="Rectángulo_36827" data-name="Rectángulo 36827" width="88.843" height="165.113" fill="#fff0cc"/>
          </g>
          <g id="Grupo_119061" data-name="Grupo 119061" transform="translate(10.963 9.874)">
            <path id="Trazado_181507" data-name="Trazado 181507" d="M146.814,83.642,57.971,196.653V81.7h88.843Z" transform="translate(-57.971 -81.697)" fill="#fcf3dd"/>
          </g>
          <g id="Grupo_119062" data-name="Grupo 119062" transform="translate(10.963 57.372)">
            <rect id="Rectángulo_36828" data-name="Rectángulo 36828" width="90.772" height="1.758" fill="#ffd366"/>
          </g>
          <g id="Grupo_119063" data-name="Grupo 119063" transform="translate(10.963 96.692)">
            <rect id="Rectángulo_36829" data-name="Rectángulo 36829" width="90.772" height="1.758" fill="#ffd366"/>
          </g>
          <g id="Grupo_119064" data-name="Grupo 119064" transform="translate(10.963 136.012)">
            <rect id="Rectángulo_36830" data-name="Rectángulo 36830" width="90.772" height="1.758" fill="#ffd366"/>
          </g>
          <g id="Grupo_119065" data-name="Grupo 119065" transform="translate(53.139 58.251)">
            <rect id="Rectángulo_36831" data-name="Rectángulo 36831" width="121.418" height="4.489" transform="translate(0 121.418) rotate(-90)" fill="#ffd366"/>
          </g>
          <g id="Grupo_119066" data-name="Grupo 119066" transform="translate(28.07 9.874)">
            <rect id="Rectángulo_36832" data-name="Rectángulo 36832" width="2.033" height="48.377" fill="#ffd366"/>
          </g>
          <g id="Grupo_119067" data-name="Grupo 119067" transform="translate(45.608 9.874)">
            <rect id="Rectángulo_36833" data-name="Rectángulo 36833" width="2.033" height="48.377" fill="#ffd366"/>
          </g>
          <g id="Grupo_119068" data-name="Grupo 119068" transform="translate(63.146 9.874)">
            <rect id="Rectángulo_36834" data-name="Rectángulo 36834" width="2.034" height="48.377" fill="#ffd366"/>
          </g>
          <g id="Grupo_119069" data-name="Grupo 119069" transform="translate(80.685 9.874)">
            <rect id="Rectángulo_36835" data-name="Rectángulo 36835" width="2.033" height="48.377" fill="#ffd366"/>
          </g>
          <g id="Grupo_119070" data-name="Grupo 119070" transform="translate(2.93 1.811)">
            <rect id="Rectángulo_36836" data-name="Rectángulo 36836" width="4.13" height="179.487" fill="#ffe299"/>
          </g>
          <g id="Grupo_119071" data-name="Grupo 119071" transform="translate(104.713 1.811)">
            <path id="Trazado_181508" data-name="Trazado 181508" d="M176.9,251.807l-4.13-1.581V71.824h4.13Z" transform="translate(-172.773 -71.824)" fill="#ffd366"/>
          </g>
          <g id="Grupo_119072" data-name="Grupo 119072" transform="translate(2.93)">
            <rect id="Rectángulo_36837" data-name="Rectángulo 36837" width="105.913" height="4.786" fill="#ffd366"/>
          </g>
          <g id="Grupo_119073" data-name="Grupo 119073" transform="translate(0 182.384)">
            <rect id="Rectángulo_36838" data-name="Rectángulo 36838" width="111.639" height="4.459" fill="#ffc533"/>
          </g>
          <g id="Grupo_119074" data-name="Grupo 119074" transform="translate(0 180.213)">
            <path id="Trazado_181509" data-name="Trazado 181509" d="M149.26,290.285l6.926,2.172H44.547l7.061-2.172Z" transform="translate(-44.547 -290.285)" fill="#ffd366"/>
          </g>
        </g>
        <g id="Grupo_119113" data-name="Grupo 119113" transform="translate(498.098 114.119)">
          <g id="Grupo_119091" data-name="Grupo 119091">
            <g id="Grupo_119076" data-name="Grupo 119076">
              <path id="Trazado_181510" data-name="Trazado 181510" d="M681.167,209.375s-6.9-.5-6.267,14.987,2.215,23.73,2.215,23.73-.2,3.433-2.862,2.759-7.661-4.015-10.131-1.517c-2.562,2.59-1.651,6.563,1.748,11.243s10.468,15.206,11.1,16.16c.624.937.875,2.693-1.01,2.524s-14.607-4.481-16.292,1.678,9.924,17.641,11.17,18.92,1.312,2.086.807,2.861-4.645-1.078-8.313-2.156-8.112-1.686-8.786,1.949,4.439,14.273,23.589,25.453l9.212,4.6L696.069,327c17.936-13.04,21.959-24.135,20.924-27.685s-5.395-2.5-8.936-1.062-7.476,3.7-8.056,2.977-.594-1.53.517-2.928,11.514-13.982,9.221-19.942-14.52-.4-16.378-.041-1.785-1.416-1.258-2.41c.536-1.013,6.518-12.194,9.431-17.189s3.422-9.041.613-11.362c-2.707-2.238-7.35,1.587-9.929,2.523s-3.123-2.459-3.123-2.459.746-8.364-.17-23.833-7.9-14.221-7.9-14.221" transform="translate(-654.491 -209.35)" fill="#ffe299"/>
            </g>
            <g id="Grupo_119078" data-name="Grupo 119078" transform="translate(27.219 13.891)">
              <g id="Grupo_119077" data-name="Grupo 119077">
                <path id="Trazado_181511" data-name="Trazado 181511" d="M687.824,226.361s.018.109.037.323l.073.951c.058.852.141,2.081.248,3.656.211,3.176.483,7.773.8,13.455.632,11.363,1.37,27.069,2.127,44.416s1.457,33.06,2.024,44.425c.288,5.671.522,10.265.684,13.459.078,1.576.14,2.807.182,3.659.016.407.029.723.038.952s0,.325,0,.325-.018-.109-.037-.323c-.018-.229-.042-.545-.073-.951-.058-.852-.141-2.081-.247-3.655-.212-3.176-.483-7.773-.8-13.454-.631-11.364-1.37-27.07-2.127-44.423s-1.457-33.052-2.024-44.418c-.288-5.671-.522-10.265-.684-13.46l-.182-3.66c-.016-.407-.029-.723-.038-.952S687.824,226.361,687.824,226.361Z" transform="translate(-687.822 -226.361)" fill="#ffc533"/>
              </g>
            </g>
            <g id="Grupo_119080" data-name="Grupo 119080" transform="translate(16.439 44.938)">
              <g id="Grupo_119079" data-name="Grupo 119079">
                <path id="Trazado_181512" data-name="Trazado 181512" d="M674.623,264.381a2.961,2.961,0,0,1,.573.477c.354.322.852.8,1.461,1.4,1.216,1.2,2.851,2.912,4.62,4.83l4.505,4.93,1.372,1.487a3.018,3.018,0,0,1,.479.57,3,3,0,0,1-.577-.473c-.354-.323-.852-.8-1.455-1.412-1.2-1.217-2.816-2.945-4.584-4.863l-4.54-4.895-1.379-1.481A3.017,3.017,0,0,1,674.623,264.381Z" transform="translate(-674.622 -264.379)" fill="#ffd366"/>
              </g>
            </g>
            <g id="Grupo_119082" data-name="Grupo 119082" transform="translate(30.365 42.82)">
              <g id="Grupo_119081" data-name="Grupo 119081">
                <path id="Trazado_181513" data-name="Trazado 181513" d="M691.675,277.3c-.069-.069,3.3-3.6,7.524-7.88s7.707-7.7,7.776-7.632-3.3,3.6-7.524,7.88S691.743,277.367,691.675,277.3Z" transform="translate(-691.674 -261.786)" fill="#ffd366"/>
              </g>
            </g>
            <g id="Grupo_119084" data-name="Grupo 119084" transform="translate(30.327 74.955)">
              <g id="Grupo_119083" data-name="Grupo 119083">
                <path id="Trazado_181514" data-name="Trazado 181514" d="M691.628,311.21a3.216,3.216,0,0,1,.642-.408l1.8-1.011c1.521-.854,3.616-2.042,5.881-3.434s4.281-2.714,5.729-3.685l1.719-1.147a3.145,3.145,0,0,1,.655-.387,3.145,3.145,0,0,1-.575.5c-.384.3-.947.729-1.656,1.24-1.416,1.025-3.411,2.388-5.688,3.78s-4.394,2.554-5.948,3.353c-.778.4-1.412.71-1.857.914A3.109,3.109,0,0,1,691.628,311.21Z" transform="translate(-691.628 -301.137)" fill="#ffd366"/>
              </g>
            </g>
            <g id="Grupo_119086" data-name="Grupo 119086" transform="translate(15.065 75.684)">
              <g id="Grupo_119085" data-name="Grupo 119085">
                <path id="Trazado_181515" data-name="Trazado 181515" d="M672.939,302.031a2.681,2.681,0,0,1,.638.3c.4.212.969.53,1.67.928,1.4.8,3.327,1.918,5.442,3.177s4.021,2.414,5.391,3.266c.685.425,1.236.776,1.613,1.024a2.7,2.7,0,0,1,.567.417,2.745,2.745,0,0,1-.637-.3c-.4-.212-.969-.53-1.67-.928-1.4-.8-3.328-1.918-5.443-3.177s-4.02-2.414-5.39-3.266c-.685-.425-1.236-.776-1.613-1.024A2.717,2.717,0,0,1,672.939,302.031Z" transform="translate(-672.938 -302.029)" fill="#ffd366"/>
              </g>
            </g>
            <g id="Grupo_119088" data-name="Grupo 119088" transform="translate(12.038 99.248)">
              <g id="Grupo_119087" data-name="Grupo 119087">
                <path id="Trazado_181516" data-name="Trazado 181516" d="M669.232,330.887a4.367,4.367,0,0,1,.81.392l2.144,1.182c1.8,1.012,4.281,2.431,7.007,4.017s5.186,3.04,6.956,4.108l2.087,1.279a4.414,4.414,0,0,1,.741.511,4.411,4.411,0,0,1-.81-.392l-2.144-1.182c-1.8-1.013-4.281-2.431-7.008-4.018s-5.185-3.039-6.955-4.107l-2.087-1.28A4.452,4.452,0,0,1,669.232,330.887Z" transform="translate(-669.231 -330.884)" fill="#ffd366"/>
              </g>
            </g>
            <g id="Grupo_119090" data-name="Grupo 119090" transform="translate(31.388 96.986)">
              <g id="Grupo_119089" data-name="Grupo 119089">
                <path id="Trazado_181517" data-name="Trazado 181517" d="M692.928,341.46a5.089,5.089,0,0,1,.8-.537l2.239-1.364c1.89-1.151,4.5-2.75,7.322-4.6s5.35-3.573,7.165-4.838l2.154-1.5a5.028,5.028,0,0,1,.814-.515,5.1,5.1,0,0,1-.733.626c-.486.385-1.2.929-2.089,1.588-1.781,1.319-4.282,3.086-7.119,4.931s-5.463,3.417-7.388,4.514c-.964.547-1.748.981-2.3,1.268A5.094,5.094,0,0,1,692.928,341.46Z" transform="translate(-692.928 -328.114)" fill="#ffd366"/>
              </g>
            </g>
          </g>
          <g id="Grupo_119112" data-name="Grupo 119112" transform="translate(19.749 126.23)">
            <g id="Grupo_119093" data-name="Grupo 119093">
              <g id="Grupo_119092" data-name="Grupo 119092">
                <path id="Trazado_181518" data-name="Trazado 181518" d="M704.16,363.925H678.674l8.318,62.968h8.85Z" transform="translate(-678.674 -363.925)" fill="#ffe299"/>
              </g>
            </g>
            <g id="Grupo_119096" data-name="Grupo 119096" transform="translate(1.321 5.144)">
              <g id="Grupo_119095" data-name="Grupo 119095">
                <g id="Grupo_119094" data-name="Grupo 119094">
                  <path id="Trazado_181519" data-name="Trazado 181519" d="M680.293,372.821c-.01.006.029.089.136.224a1.614,1.614,0,0,0,.615.44,3.087,3.087,0,0,0,2.692-.331c1.029-.568,1.926-1.683,3.3-2.176a7.23,7.23,0,0,1,4.687.093,20.09,20.09,0,0,1,4.364,2.114,30.121,30.121,0,0,0,3.549,1.9,9.823,9.823,0,0,0,2.617.757,4.916,4.916,0,0,0,.74.05c.169,0,.257-.007.258-.021a13.288,13.288,0,0,1-3.5-1.054,34.744,34.744,0,0,1-3.471-1.964,19.359,19.359,0,0,0-4.438-2.183,7.476,7.476,0,0,0-4.946-.054,6.511,6.511,0,0,0-1.862,1.151,14.6,14.6,0,0,1-1.459,1.13,2.994,2.994,0,0,1-2.482.43A2.582,2.582,0,0,1,680.293,372.821Z" transform="translate(-680.291 -370.225)" fill="#f5f5f5"/>
                </g>
              </g>
            </g>
            <g id="Grupo_119099" data-name="Grupo 119099" transform="translate(2.25 14.716)">
              <g id="Grupo_119098" data-name="Grupo 119098">
                <g id="Grupo_119097" data-name="Grupo 119097">
                  <path id="Trazado_181520" data-name="Trazado 181520" d="M681.431,386.567c.034.021.2-.259.6-.675a5.672,5.672,0,0,1,2.036-1.291,9.072,9.072,0,0,1,3.544-.534,37.361,37.361,0,0,1,4.435.6,15.277,15.277,0,0,0,4.541.189,12.512,12.512,0,0,0,3.573-1.021,11.384,11.384,0,0,0,2.149-1.277,3.045,3.045,0,0,0,.68-.612,22.627,22.627,0,0,1-2.946,1.62,13.059,13.059,0,0,1-3.5.91,15.659,15.659,0,0,1-4.429-.219,33.476,33.476,0,0,0-4.489-.577,8.974,8.974,0,0,0-3.666.644,5.348,5.348,0,0,0-2.045,1.455,3.6,3.6,0,0,0-.386.565C681.452,386.486,681.419,386.56,681.431,386.567Z" transform="translate(-681.429 -381.945)" fill="#f5f5f5"/>
                </g>
              </g>
            </g>
            <g id="Grupo_119102" data-name="Grupo 119102" transform="translate(3.695 23.788)">
              <g id="Grupo_119101" data-name="Grupo 119101">
                <g id="Grupo_119100" data-name="Grupo 119100">
                  <path id="Trazado_181521" data-name="Trazado 181521" d="M702.1,394.813a2.139,2.139,0,0,0-.7-.365,7.5,7.5,0,0,0-2.113-.452,13.486,13.486,0,0,0-3.193.182c-1.189.193-2.463.521-3.8.805a16.071,16.071,0,0,1-3.8.429,8.292,8.292,0,0,1-3.013-.652,6.968,6.968,0,0,1-2.286-1.7,1.984,1.984,0,0,0,.432.666,5.375,5.375,0,0,0,1.73,1.3,8.117,8.117,0,0,0,3.12.768,15.3,15.3,0,0,0,3.9-.4c1.353-.287,2.618-.625,3.781-.835a14.579,14.579,0,0,1,3.111-.266A11.7,11.7,0,0,1,702.1,394.813Z" transform="translate(-683.198 -393.055)" fill="#f5f5f5"/>
                </g>
              </g>
            </g>
            <g id="Grupo_119105" data-name="Grupo 119105" transform="translate(4.504 32.798)">
              <g id="Grupo_119104" data-name="Grupo 119104">
                <g id="Grupo_119103" data-name="Grupo 119103">
                  <path id="Trazado_181522" data-name="Trazado 181522" d="M684.19,405.569a4.133,4.133,0,0,1,2.474-.25,11.98,11.98,0,0,1,2.589.965,9.824,9.824,0,0,0,3.36.926,10.081,10.081,0,0,0,6.1-1.413,8.647,8.647,0,0,0,1.517-1.167c.31-.33.47-.52.449-.54a22.506,22.506,0,0,1-2.114,1.453,10.446,10.446,0,0,1-5.912,1.253c-2.412-.138-4.264-1.577-5.938-1.767a3.8,3.8,0,0,0-1.922.167C684.359,405.364,684.177,405.554,684.19,405.569Z" transform="translate(-684.189 -404.088)" fill="#f5f5f5"/>
                </g>
              </g>
            </g>
            <g id="Grupo_119108" data-name="Grupo 119108" transform="translate(5.924 42.844)">
              <g id="Grupo_119107" data-name="Grupo 119107">
                <g id="Grupo_119106" data-name="Grupo 119106">
                  <path id="Trazado_181523" data-name="Trazado 181523" d="M685.928,419.911a4.893,4.893,0,0,0,2.125-.423c1.281-.428,2.867-1.41,4.719-2.145a7.665,7.665,0,0,1,2.708-.568,4.989,4.989,0,0,1,2.177.5,4.82,4.82,0,0,1,1.574,1.359,1.155,1.155,0,0,0-.242-.537,3.5,3.5,0,0,0-1.194-1.08,4.988,4.988,0,0,0-2.31-.621,7.586,7.586,0,0,0-2.862.562c-1.919.764-3.454,1.775-4.678,2.26C686.737,419.737,685.918,419.844,685.928,419.911Z" transform="translate(-685.928 -416.39)" fill="#f5f5f5"/>
                </g>
              </g>
            </g>
            <g id="Grupo_119111" data-name="Grupo 119111" transform="translate(7.173 51.972)">
              <g id="Grupo_119110" data-name="Grupo 119110">
                <g id="Grupo_119109" data-name="Grupo 119109">
                  <path id="Trazado_181524" data-name="Trazado 181524" d="M687.458,427.583a5.949,5.949,0,0,0,1.614.524,29.689,29.689,0,0,0,8.124.8,5.937,5.937,0,0,0,1.685-.2c-.007-.126-2.583-.016-5.734-.332S687.489,427.462,687.458,427.583Z" transform="translate(-687.458 -427.568)" fill="#f5f5f5"/>
                </g>
              </g>
            </g>
          </g>
        </g>
        <g id="Grupo_119117" data-name="Grupo 119117" transform="translate(450.175 12.002)">
          <g id="Grupo_119114" data-name="Grupo 119114">
            <rect id="Rectángulo_36839" data-name="Rectángulo 36839" width="78.693" height="51.738" fill="#ffe299"/>
          </g>
          <g id="Grupo_119115" data-name="Grupo 119115" transform="translate(2.737 2.115)">
            <rect id="Rectángulo_36840" data-name="Rectángulo 36840" width="73.177" height="47.309" fill="#fafafa"/>
          </g>
          <g id="Grupo_119116" data-name="Grupo 119116" transform="translate(27.39 19.36)">
            <rect id="Rectángulo_36841" data-name="Rectángulo 36841" width="23.872" height="13.018" fill="#ffe299"/>
          </g>
        </g>
      </g>
      <g id="Floor" transform="translate(30.752 367.794)">
        <g id="Grupo_119119" data-name="Grupo 119119">
          <g id="Grupo_119118" data-name="Grupo 119118">
            <path id="Trazado_181525" data-name="Trazado 181525" d="M593,442.006c0,.118-125.873.212-281.11.212-155.29,0-281.136-.095-281.136-.212s125.846-.213,281.136-.213C467.125,441.793,593,441.889,593,442.006Z" transform="translate(-30.752 -441.793)" fill="#263238"/>
          </g>
        </g>
      </g>
      <g id="Device" transform="translate(88.477 38.248)">
        <g id="Grupo_119138" data-name="Grupo 119138" transform="translate(154.062)">
          <g id="Grupo_119120" data-name="Grupo 119120">
            <path id="Rectángulo_36842" data-name="Rectángulo 36842" d="M0,0H168.517a0,0,0,0,1,0,0V157.523a16.22,16.22,0,0,1-16.22,16.22H0a0,0,0,0,1,0,0V0A0,0,0,0,1,0,0Z" fill="#ebebeb"/>
          </g>
          <g id="Grupo_119135" data-name="Grupo 119135" transform="translate(18.552 51.072)">
            <g id="Grupo_119122" data-name="Grupo 119122">
              <g id="Grupo_119121" data-name="Grupo 119121">
                <path id="Trazado_181526" data-name="Trazado 181526" d="M448.863,101.426c0,.352-30.459.638-68.022.638s-68.028-.286-68.028-.638,30.452-.638,68.028-.638S448.863,101.074,448.863,101.426Z" transform="translate(-312.813 -100.788)" fill="#455a64"/>
              </g>
            </g>
            <g id="Grupo_119124" data-name="Grupo 119124" transform="translate(1.617 11.769)">
              <g id="Grupo_119123" data-name="Grupo 119123">
                <path id="Trazado_181527" data-name="Trazado 181527" d="M382.01,115.838c0,.353-15.049.639-33.607.639s-33.61-.286-33.61-.639,15.045-.638,33.61-.638S382.01,115.486,382.01,115.838Z" transform="translate(-314.793 -115.2)" fill="#455a64"/>
              </g>
            </g>
            <g id="Grupo_119126" data-name="Grupo 119126" transform="translate(77.917 10.679)">
              <g id="Grupo_119125" data-name="Grupo 119125">
                <path id="Trazado_181528" data-name="Trazado 181528" d="M426.029,114.5c0,.353-3.986.639-8.9.639s-8.9-.286-8.9-.639,3.984-.638,8.9-.638S426.029,114.151,426.029,114.5Z" transform="translate(-408.226 -113.865)" fill="#455a64"/>
              </g>
            </g>
            <g id="Grupo_119128" data-name="Grupo 119128" transform="translate(104.44 9.953)">
              <g id="Grupo_119127" data-name="Grupo 119127">
                <path id="Trazado_181529" data-name="Trazado 181529" d="M475.948,113.614c0,.352-7.89.638-17.621.638s-17.622-.286-17.622-.638,7.888-.638,17.622-.638S475.948,113.261,475.948,113.614Z" transform="translate(-440.705 -112.976)" fill="#455a64"/>
              </g>
            </g>
            <g id="Grupo_119130" data-name="Grupo 119130" transform="translate(0 23.033)">
              <g id="Grupo_119129" data-name="Grupo 119129">
                <path id="Trazado_181530" data-name="Trazado 181530" d="M376.033,129.631c0,.352-14.154.638-31.608.638s-31.612-.286-31.612-.638,14.151-.638,31.612-.638S376.033,129.278,376.033,129.631Z" transform="translate(-312.813 -128.993)" fill="#455a64"/>
              </g>
            </g>
            <g id="Grupo_119132" data-name="Grupo 119132" transform="translate(70.65 22.708)">
              <g id="Grupo_119131" data-name="Grupo 119131">
                <path id="Trazado_181531" data-name="Trazado 181531" d="M468.361,129.233c0,.353-15.455.638-34.515.638s-34.519-.285-34.519-.638,15.451-.638,34.519-.638S468.361,128.881,468.361,129.233Z" transform="translate(-399.327 -128.595)" fill="#455a64"/>
              </g>
            </g>
            <g id="Grupo_119134" data-name="Grupo 119134" transform="translate(108.946 34.042)">
              <g id="Grupo_119133" data-name="Grupo 119133">
                <path id="Trazado_181532" data-name="Trazado 181532" d="M476.96,143.112c0,.353-6.882.639-15.367.639s-15.37-.286-15.37-.639,6.88-.638,15.37-.638S476.96,142.76,476.96,143.112Z" transform="translate(-446.223 -142.474)" fill="#455a64"/>
              </g>
            </g>
          </g>
          <g id="Grupo_119137" data-name="Grupo 119137" transform="translate(20.168 38.456)">
            <g id="Grupo_119136" data-name="Grupo 119136">
              <path id="Trazado_181533" data-name="Trazado 181533" d="M389.274,85.977c0,.353-16.675.638-37.239.638s-37.242-.285-37.242-.638,16.671-.638,37.242-.638S389.274,85.625,389.274,85.977Z" transform="translate(-314.793 -85.339)" fill="#ff6b00"/>
            </g>
          </g>
        </g>
        <g id="Grupo_119159" data-name="Grupo 119159" transform="translate(0 97.316)">
          <g id="Grupo_119154" data-name="Grupo 119154">
            <g id="Grupo_119153" data-name="Grupo 119153">
              <g id="Grupo_119152" data-name="Grupo 119152">
                <g id="Grupo_119141" data-name="Grupo 119141" transform="translate(14.15)">
                  <g id="Grupo_119140" data-name="Grupo 119140">
                    <g id="Grupo_119139" data-name="Grupo 119139">
                      <rect id="Rectángulo_36843" data-name="Rectángulo 36843" width="350.06" height="231.491" rx="14.567" fill="#5a189a"/>
                    </g>
                  </g>
                </g>
                <g id="Grupo_119144" data-name="Grupo 119144" transform="translate(0 214.37)">
                  <g id="Grupo_119143" data-name="Grupo 119143">
                    <g id="Grupo_119142" data-name="Grupo 119142">
                      <path id="Rectángulo_36844" data-name="Rectángulo 36844" d="M0,0H379.263a0,0,0,0,1,0,0V2.458a17.8,17.8,0,0,1-17.8,17.8H17.8A17.8,17.8,0,0,1,0,2.458V0A0,0,0,0,1,0,0Z" fill="#263238"/>
                    </g>
                  </g>
                </g>
                <g id="Grupo_119147" data-name="Grupo 119147" transform="translate(24.035 9.197)">
                  <g id="Grupo_119146" data-name="Grupo 119146">
                    <g id="Grupo_119145" data-name="Grupo 119145">
                      <rect id="Rectángulo_36845" data-name="Rectángulo 36845" width="330.288" height="195.491" fill="#9d53e4"/>
                    </g>
                  </g>
                </g>
                <g id="Grupo_119151" data-name="Grupo 119151" transform="translate(155.16 214.143)">
                  <g id="Grupo_119150" data-name="Grupo 119150">
                    <g id="Grupo_119149" data-name="Grupo 119149">
                      <g id="Grupo_119148" data-name="Grupo 119148">
                        <path id="Trazado_181534" data-name="Trazado 181534" d="M291.44,419.872c-.007,0,.117-.007.365-.011l1.11-.011,4.313-.025,16-.065,53.509-.115h.4l-.2.341-2.123,3.639-2.247,3.847-.065.113h-.13l-66.224-.123h-.057l-.029-.047-3.468-5.64-.871-1.429c-.194-.318-.28-.472-.28-.472s.118.172.329.5.526.814.926,1.432l3.538,5.5-.087-.047,66.224-.124-.2.112,2.246-3.847,2.125-3.639.2.341-53.29-.114-16.079-.065-4.38-.025-1.147-.011C291.583,419.879,291.44,419.872,291.44,419.872Z" transform="translate(-291.44 -419.645)" fill="#455a64"/>
                      </g>
                    </g>
                  </g>
                </g>
              </g>
            </g>
          </g>
          <g id="Grupo_119158" data-name="Grupo 119158" transform="translate(14.15 214.158)">
            <g id="Grupo_119155" data-name="Grupo 119155" transform="translate(0 0.212)">
              <line id="Línea_115" data-name="Línea 115" x2="350.06" fill="#263238"/>
            </g>
            <g id="Grupo_119157" data-name="Grupo 119157" transform="translate(0)">
              <g id="Grupo_119156" data-name="Grupo 119156">
                <path id="Trazado_181535" data-name="Trazado 181535" d="M468.826,419.875c0,.118-78.37.213-175.021.213-96.686,0-175.039-.1-175.039-.213s78.353-.212,175.039-.212C390.456,419.663,468.826,419.758,468.826,419.875Z" transform="translate(-118.766 -419.663)" fill="#455a64"/>
              </g>
            </g>
          </g>
        </g>
        <g id="Grupo_119220" data-name="Grupo 119220" transform="translate(70.229 67.198)">
          <g id="Grupo_119160" data-name="Grupo 119160" transform="translate(185.18 0.274)">
            <path id="Trazado_181536" data-name="Trazado 181536" d="M433.661,120.871h0a9.778,9.778,0,0,1,9.778,9.778v20.066H414.2V132.2a11.333,11.333,0,0,1,11.333-11.333Z" transform="translate(-414.199 -120.871)" fill="#263238"/>
          </g>
          <g id="Grupo_119162" data-name="Grupo 119162" transform="translate(81.409)">
            <g id="Grupo_119161" data-name="Grupo 119161">
              <path id="Trazado_181537" data-name="Trazado 181537" d="M410.359,120.81c0,.118-27.589.189-61.614.158s-61.619-.149-61.619-.266,27.582-.189,61.619-.159S410.359,120.692,410.359,120.81Z" transform="translate(-287.127 -120.536)" fill="#263238"/>
            </g>
          </g>
          <g id="Grupo_119163" data-name="Grupo 119163" transform="translate(24.349 0.166)">
            <path id="Trazado_181538" data-name="Trazado 181538" d="M397.289,120.823l-12.194-.084-17.713.108H237.261a20.006,20.006,0,0,0-20.007,20.007v215H385.771V131.816C386.265,120.847,397.289,120.823,397.289,120.823Z" transform="translate(-217.254 -120.739)" fill="#fafafa"/>
          </g>
          <g id="Grupo_119164" data-name="Grupo 119164" transform="translate(23.942 0.029)">
            <path id="Trazado_181539" data-name="Trazado 181539" d="M397.2,120.792l-101.61.221-50.8.038-6.351,0c-1.064-.02-2.107.042-3.151.1a20.526,20.526,0,0,0-3.081.562A19.632,19.632,0,0,0,218.729,133.8c-.164.495-.391.971-.505,1.481l-.389,1.518a21.538,21.538,0,0,0-.364,3.109c-.09,4.207-.02,8.46-.038,12.688l.136,203.222-.406-.407,168.517.109-.3.3.082-120.864.1-60.43.059-30.215.015-7.553.007-3.777a12.341,12.341,0,0,1,.079-1.886,10.129,10.129,0,0,1,.3-1.866,10,10,0,0,1,4.081-6.152,11.827,11.827,0,0,1,3.389-1.637A14.258,14.258,0,0,1,397.2,120.792Zm0,0a14.262,14.262,0,0,0-3.706.658,11.815,11.815,0,0,0-3.376,1.647,9.955,9.955,0,0,0-4.041,6.142,10.172,10.172,0,0,0-.287,1.858,12.369,12.369,0,0,0-.071,1.882l.007,3.777.015,7.555.059,30.216.1,60.431.082,120.859v.3h-.3l-168.517.109h-.407v-.406l.136-203.222c.025-4.238-.041-8.456.056-12.712a22.075,22.075,0,0,1,.379-3.191l.4-1.557a16.049,16.049,0,0,1,.52-1.521,20.142,20.142,0,0,1,13.83-12.374,21.124,21.124,0,0,1,3.158-.571c1.071-.057,2.142-.118,3.2-.1l6.35,0,50.806.038Z" transform="translate(-216.756 -120.571)" fill="#263238"/>
          </g>
          <g id="Grupo_119165" data-name="Grupo 119165" transform="translate(49.686 38.957)">
            <path id="Trazado_181540" data-name="Trazado 181540" d="M248.327,168.24h29.407l.047,9.849h-1.407q-.692-5.286-3.958-7.152a12.2,12.2,0,0,0-5.486-1.124v25.73q0,2.7.942,3.58t3.923.884v1.24h-17.41v-1.24q2.861,0,3.8-.9t.942-3.569v-25.73a12.511,12.511,0,0,0-5.485,1.124q-3.506,1.915-3.958,7.152H248.28Z" transform="translate(-248.28 -168.24)" fill="#ff6b00"/>
          </g>
          <g id="Grupo_119167" data-name="Grupo 119167" transform="translate(97.285 40.539)">
            <g id="Grupo_119166" data-name="Grupo 119166">
              <path id="Trazado_181541" data-name="Trazado 181541" d="M379.025,170.816c0,.353-16.222.638-36.227.638s-36.231-.285-36.231-.638,16.217-.638,36.231-.638S379.025,170.464,379.025,170.816Z" transform="translate(-306.567 -170.178)" fill="#ff6b00"/>
            </g>
          </g>
          <g id="Grupo_119169" data-name="Grupo 119169" transform="translate(98.738 52.116)">
            <g id="Grupo_119168" data-name="Grupo 119168">
              <path id="Trazado_181542" data-name="Trazado 181542" d="M336.362,184.992c0,.352-6.272.638-14.007.638s-14.008-.286-14.008-.638,6.27-.638,14.008-.638S336.362,184.64,336.362,184.992Z" transform="translate(-308.347 -184.354)" fill="#455a64"/>
            </g>
          </g>
          <g id="Grupo_119171" data-name="Grupo 119171" transform="translate(38.237 87.429)">
            <g id="Grupo_119170" data-name="Grupo 119170">
              <path id="Trazado_181543" data-name="Trazado 181543" d="M287.466,228.236c0,.352-11.911.638-26.6.638s-26.6-.286-26.6-.638,11.909-.639,26.6-.639S287.466,227.883,287.466,228.236Z" transform="translate(-234.261 -227.597)" fill="#455a64"/>
            </g>
          </g>
          <g id="Grupo_119173" data-name="Grupo 119173" transform="translate(98.486 87.429)">
            <g id="Grupo_119172" data-name="Grupo 119172">
              <path id="Trazado_181544" data-name="Trazado 181544" d="M361.243,228.236c0,.352-11.911.638-26.6.638s-26.6-.286-26.6-.638,11.909-.639,26.6-.639S361.243,227.883,361.243,228.236Z" transform="translate(-308.038 -227.597)" fill="#ff6b00"/>
            </g>
          </g>
          <g id="Grupo_119175" data-name="Grupo 119175" transform="translate(38.237 96.86)">
            <g id="Grupo_119174" data-name="Grupo 119174">
              <path id="Trazado_181545" data-name="Trazado 181545" d="M287.466,239.784c0,.353-11.911.638-26.6.638s-26.6-.285-26.6-.638,11.909-.638,26.6-.638S287.466,239.432,287.466,239.784Z" transform="translate(-234.261 -239.146)" fill="#455a64"/>
            </g>
          </g>
          <g id="Grupo_119177" data-name="Grupo 119177" transform="translate(38.237 106.292)">
            <g id="Grupo_119176" data-name="Grupo 119176">
              <path id="Trazado_181546" data-name="Trazado 181546" d="M287.466,251.333c0,.352-11.911.638-26.6.638s-26.6-.286-26.6-.638,11.909-.638,26.6-.638S287.466,250.98,287.466,251.333Z" transform="translate(-234.261 -250.695)" fill="#ff6b00"/>
            </g>
          </g>
          <g id="Grupo_119179" data-name="Grupo 119179" transform="translate(98.738 71.325)">
            <g id="Grupo_119178" data-name="Grupo 119178">
              <path id="Trazado_181547" data-name="Trazado 181547" d="M336.362,208.515c0,.353-6.272.639-14.007.639s-14.008-.286-14.008-.639,6.27-.638,14.008-.638S336.362,208.163,336.362,208.515Z" transform="translate(-308.347 -207.877)" fill="#455a64"/>
            </g>
          </g>
          <g id="Grupo_119181" data-name="Grupo 119181" transform="translate(156.664 87.429)">
            <g id="Grupo_119180" data-name="Grupo 119180">
              <path id="Trazado_181548" data-name="Trazado 181548" d="M397.957,228.236c0,.352-4.181.638-9.338.638s-9.339-.286-9.339-.638,4.18-.639,9.339-.639S397.957,227.883,397.957,228.236Z" transform="translate(-379.28 -227.597)" fill="#455a64"/>
            </g>
          </g>
          <g id="Grupo_119183" data-name="Grupo 119183" transform="translate(132.268 52.116)">
            <g id="Grupo_119182" data-name="Grupo 119182">
              <path id="Trazado_181549" data-name="Trazado 181549" d="M397.476,184.992c0,.352-10.762.638-24.034.638s-24.036-.286-24.036-.638,10.759-.638,24.036-.638S397.476,184.64,397.476,184.992Z" transform="translate(-349.406 -184.354)" fill="#455a64"/>
            </g>
          </g>
          <g id="Grupo_119185" data-name="Grupo 119185" transform="translate(98.738 61.312)">
            <g id="Grupo_119184" data-name="Grupo 119184">
              <path id="Trazado_181550" data-name="Trazado 181550" d="M387.777,196.253c0,.353-17.783.639-39.713.639s-39.717-.286-39.717-.639,17.778-.638,39.717-.638S387.777,195.9,387.777,196.253Z" transform="translate(-308.347 -195.615)" fill="#455a64"/>
            </g>
          </g>
          <g id="Grupo_119187" data-name="Grupo 119187" transform="translate(98.486 96.86)">
            <g id="Grupo_119186" data-name="Grupo 119186">
              <path id="Trazado_181551" data-name="Trazado 181551" d="M384.893,239.784c0,.353-17.206.638-38.426.638s-38.43-.285-38.43-.638,17.2-.638,38.43-.638S384.893,239.432,384.893,239.784Z" transform="translate(-308.038 -239.146)" fill="#455a64"/>
            </g>
          </g>
          <g id="Grupo_119189" data-name="Grupo 119189" transform="translate(103.224 124.163)">
            <g id="Grupo_119188" data-name="Grupo 119188">
              <path id="Trazado_181552" data-name="Trazado 181552" d="M385.957,273.218c0,.352-16.146.638-36.057.638s-36.06-.286-36.06-.638,16.141-.639,36.06-.639S385.957,272.865,385.957,273.218Z" transform="translate(-313.84 -272.579)" fill="#ff6b00"/>
            </g>
          </g>
          <g id="Grupo_119191" data-name="Grupo 119191" transform="translate(103.224 133.342)">
            <g id="Grupo_119190" data-name="Grupo 119190">
              <path id="Trazado_181553" data-name="Trazado 181553" d="M385.957,284.457c0,.353-16.146.638-36.057.638s-36.06-.285-36.06-.638,16.141-.638,36.06-.638S385.957,284.1,385.957,284.457Z" transform="translate(-313.84 -283.819)" fill="#455a64"/>
            </g>
          </g>
          <g id="Grupo_119193" data-name="Grupo 119193" transform="translate(103.224 142.52)">
            <g id="Grupo_119192" data-name="Grupo 119192">
              <path id="Trazado_181554" data-name="Trazado 181554" d="M385.957,295.7c0,.352-16.146.638-36.057.638s-36.06-.286-36.06-.638,16.141-.638,36.06-.638S385.957,295.344,385.957,295.7Z" transform="translate(-313.84 -295.059)" fill="#455a64"/>
            </g>
          </g>
          <g id="Grupo_119195" data-name="Grupo 119195" transform="translate(103.224 151.699)">
            <g id="Grupo_119194" data-name="Grupo 119194">
              <path id="Trazado_181555" data-name="Trazado 181555" d="M385.957,306.936c0,.353-16.146.639-36.057.639s-36.06-.286-36.06-.639,16.141-.638,36.06-.638S385.957,306.584,385.957,306.936Z" transform="translate(-313.84 -306.298)" fill="#455a64"/>
            </g>
          </g>
          <g id="Grupo_119197" data-name="Grupo 119197" transform="translate(103.224 160.877)">
            <g id="Grupo_119196" data-name="Grupo 119196">
              <path id="Trazado_181556" data-name="Trazado 181556" d="M355.357,318.176c0,.176-2.323.336-6.08.452s-8.946.186-14.677.186-10.923-.071-14.68-.186-6.08-.275-6.08-.452,2.323-.336,6.08-.451,8.946-.187,14.68-.187,10.921.072,14.677.187S355.357,318,355.357,318.176Z" transform="translate(-313.84 -317.538)" fill="#455a64"/>
            </g>
          </g>
          <g id="Grupo_119199" data-name="Grupo 119199" transform="translate(100.157 106.785)">
            <g id="Grupo_119198" data-name="Grupo 119198">
              <path id="Trazado_181557" data-name="Trazado 181557" d="M372.2,251.937c0,.353-13.906.639-31.057.639s-31.06-.286-31.06-.639,13.9-.638,31.06-.638S372.2,251.585,372.2,251.937Z" transform="translate(-310.085 -251.299)" fill="#455a64"/>
            </g>
          </g>
          <g id="Grupo_119211" data-name="Grupo 119211" transform="translate(0 120.924)">
            <g id="Grupo_119202" data-name="Grupo 119202" transform="translate(24.681 4.312)">
              <g id="Grupo_119201" data-name="Grupo 119201">
                <g id="Grupo_119200" data-name="Grupo 119200">
                  <path id="Trazado_181558" data-name="Trazado 181558" d="M283.163,274.495l3.827,70.849-69.275,8.677-.054-80.127Z" transform="translate(-217.661 -273.894)" fill="#e0e0e0"/>
                </g>
              </g>
            </g>
            <g id="Grupo_119205" data-name="Grupo 119205">
              <g id="Grupo_119204" data-name="Grupo 119204">
                <g id="Grupo_119203" data-name="Grupo 119203">
                  <rect id="Rectángulo_36846" data-name="Rectángulo 36846" width="75.16" height="94.012" transform="translate(0 75.158) rotate(-89.632)" fill="#f5f5f5"/>
                </g>
              </g>
            </g>
            <g id="Grupo_119206" data-name="Grupo 119206" transform="translate(3.271 4.752)">
              <rect id="Rectángulo_36847" data-name="Rectángulo 36847" width="65.697" height="87.407" transform="translate(0 65.696) rotate(-89.632)" fill="#ffa666"/>
            </g>
            <g id="Grupo_119207" data-name="Grupo 119207" transform="translate(3.271 29.808)" opacity="0.2">
              <path id="Trazado_181559" data-name="Trazado 181559" d="M191.443,345.754l30.791-40.64,18.747,25.67,12.914-13.576,24.954,29.107Z" transform="translate(-191.443 -305.115)"/>
            </g>
            <g id="Grupo_119210" data-name="Grupo 119210" transform="translate(47.268 18.052)" opacity="0.2">
              <g id="Grupo_119209" data-name="Grupo 119209">
                <g id="Grupo_119208" data-name="Grupo 119208">
                  <path id="Trazado_181560" data-name="Trazado 181560" d="M259.084,297.646a6.882,6.882,0,1,1-6.838-6.927A6.882,6.882,0,0,1,259.084,297.646Z" transform="translate(-245.32 -290.719)"/>
                </g>
              </g>
            </g>
          </g>
          <g id="Grupo_119215" data-name="Grupo 119215" transform="translate(100.157 212.967)">
            <g id="Grupo_119212" data-name="Grupo 119212">
              <path id="Trazado_181561" data-name="Trazado 181561" d="M312.991,382.778a1.453,1.453,0,1,1-1.453-1.454A1.452,1.452,0,0,1,312.991,382.778Z" transform="translate(-310.085 -381.324)" fill="#263238"/>
            </g>
            <g id="Grupo_119213" data-name="Grupo 119213" transform="translate(8.626)">
              <path id="Trazado_181562" data-name="Trazado 181562" d="M323.555,382.778a1.454,1.454,0,1,1-1.454-1.454A1.453,1.453,0,0,1,323.555,382.778Z" transform="translate(-320.648 -381.324)" fill="#263238"/>
            </g>
            <g id="Grupo_119214" data-name="Grupo 119214" transform="translate(17.253)">
              <path id="Trazado_181563" data-name="Trazado 181563" d="M334.118,382.778a1.453,1.453,0,1,1-1.453-1.454A1.453,1.453,0,0,1,334.118,382.778Z" transform="translate(-331.212 -381.324)" fill="#263238"/>
            </g>
          </g>
          <g id="Grupo_119217" data-name="Grupo 119217" transform="translate(98.891 180.004)">
            <g id="Grupo_119216" data-name="Grupo 119216">
              <path id="Trazado_181564" data-name="Trazado 181564" d="M361.739,341.6c0,.353-11.911.638-26.6.638s-26.6-.285-26.6-.638,11.909-.638,26.6-.638S361.739,341.245,361.739,341.6Z" transform="translate(-308.534 -340.959)" fill="#ff6b00"/>
            </g>
          </g>
          <g id="Grupo_119219" data-name="Grupo 119219" transform="translate(98.891 189.435)">
            <g id="Grupo_119218" data-name="Grupo 119218">
              <path id="Trazado_181565" data-name="Trazado 181565" d="M385.389,353.146c0,.352-17.206.638-38.426.638s-38.429-.286-38.429-.638,17.2-.638,38.429-.638S385.389,352.793,385.389,353.146Z" transform="translate(-308.534 -352.508)" fill="#455a64"/>
            </g>
          </g>
        </g>
      </g>
      <g id="Box" transform="translate(473.543 302.598)">
        <g id="Grupo_119246" data-name="Grupo 119246">
          <g id="Grupo_119226" data-name="Grupo 119226" transform="translate(29.7 8.634)">
            <g id="Grupo_119223" data-name="Grupo 119223">
              <g id="Grupo_119222" data-name="Grupo 119222">
                <g id="Grupo_119221" data-name="Grupo 119221">
                  <rect id="Rectángulo_36848" data-name="Rectángulo 36848" width="45.273" height="56.629" transform="translate(0 45.272) rotate(-89.632)" fill="#f5f5f5"/>
                </g>
              </g>
            </g>
            <rect id="Rectángulo_36849" data-name="Rectángulo 36849" width="39.573" height="52.65" transform="translate(1.97 42.435) rotate(-89.632)" fill="#5a189a"/>
            <path id="Trazado_181566" data-name="Trazado 181566" d="M611.753,419,630.3,394.517l11.292,15.463,7.779-8.177L664.4,419.334Z" transform="translate(-609.782 -376.561)" opacity="0.2"/>
            <g id="Grupo_119225" data-name="Grupo 119225" transform="translate(28.473 10.874)" opacity="0.2">
              <g id="Grupo_119224" data-name="Grupo 119224">
                <path id="Trazado_181567" data-name="Trazado 181567" d="M652.5,390.017a4.145,4.145,0,1,1-4.118-4.172A4.145,4.145,0,0,1,652.5,390.017Z" transform="translate(-644.206 -385.845)"/>
              </g>
            </g>
          </g>
          <g id="Grupo_119232" data-name="Grupo 119232" transform="translate(21.395 3.907)">
            <g id="Grupo_119229" data-name="Grupo 119229">
              <g id="Grupo_119228" data-name="Grupo 119228">
                <g id="Grupo_119227" data-name="Grupo 119227">
                  <rect id="Rectángulo_36850" data-name="Rectángulo 36850" width="45.273" height="56.629" transform="translate(0 45.272) rotate(-89.632)" fill="#f5f5f5"/>
                </g>
              </g>
            </g>
            <rect id="Rectángulo_36851" data-name="Rectángulo 36851" width="39.573" height="52.65" transform="translate(1.97 42.435) rotate(-89.632)" fill="#9d53e4"/>
            <path id="Trazado_181568" data-name="Trazado 181568" d="M601.584,413.207l18.547-24.48,11.292,15.463,7.779-8.177,15.031,17.533Z" transform="translate(-599.613 -370.772)" opacity="0.2"/>
            <g id="Grupo_119231" data-name="Grupo 119231" transform="translate(28.473 10.874)" opacity="0.2">
              <g id="Grupo_119230" data-name="Grupo 119230">
                <path id="Trazado_181569" data-name="Trazado 181569" d="M642.327,384.228a4.145,4.145,0,1,1-4.118-4.172A4.145,4.145,0,0,1,642.327,384.228Z" transform="translate(-634.037 -380.056)"/>
              </g>
            </g>
          </g>
          <g id="Grupo_119238" data-name="Grupo 119238" transform="translate(14)">
            <g id="Grupo_119235" data-name="Grupo 119235">
              <g id="Grupo_119234" data-name="Grupo 119234">
                <g id="Grupo_119233" data-name="Grupo 119233">
                  <rect id="Rectángulo_36852" data-name="Rectángulo 36852" width="45.273" height="56.629" transform="translate(0 45.272) rotate(-89.632)" fill="#f5f5f5"/>
                </g>
              </g>
            </g>
            <rect id="Rectángulo_36853" data-name="Rectángulo 36853" width="39.573" height="52.65" transform="translate(1.971 42.435) rotate(-89.632)" fill="#7c21d3"/>
            <path id="Trazado_181570" data-name="Trazado 181570" d="M592.528,408.423l18.547-24.48,11.292,15.463,7.779-8.177,15.031,17.533Z" transform="translate(-590.557 -365.988)" opacity="0.2"/>
            <g id="Grupo_119237" data-name="Grupo 119237" transform="translate(28.472 10.874)" opacity="0.2">
              <g id="Grupo_119236" data-name="Grupo 119236">
                <path id="Trazado_181571" data-name="Trazado 181571" d="M633.271,379.444a4.146,4.146,0,1,1-4.119-4.172A4.145,4.145,0,0,1,633.271,379.444Z" transform="translate(-624.98 -375.272)"/>
              </g>
            </g>
          </g>
          <g id="Grupo_119244" data-name="Grupo 119244" transform="translate(5.696 4.863)">
            <g id="Grupo_119241" data-name="Grupo 119241">
              <g id="Grupo_119240" data-name="Grupo 119240">
                <g id="Grupo_119239" data-name="Grupo 119239">
                  <rect id="Rectángulo_36854" data-name="Rectángulo 36854" width="45.273" height="56.629" transform="translate(0 45.272) rotate(-89.632)" fill="#f5f5f5"/>
                </g>
              </g>
            </g>
            <rect id="Rectángulo_36855" data-name="Rectángulo 36855" width="39.573" height="52.65" transform="translate(1.971 42.435) rotate(-89.632)" fill="#455a64"/>
            <path id="Trazado_181572" data-name="Trazado 181572" d="M582.358,414.378l18.547-24.48L612.2,405.361l7.779-8.177,15.031,17.533Z" transform="translate(-580.388 -371.943)" opacity="0.2"/>
            <g id="Grupo_119243" data-name="Grupo 119243" transform="translate(28.472 10.874)" opacity="0.2">
              <g id="Grupo_119242" data-name="Grupo 119242">
                <path id="Trazado_181573" data-name="Trazado 181573" d="M623.1,385.4a4.146,4.146,0,1,1-4.119-4.172A4.145,4.145,0,0,1,623.1,385.4Z" transform="translate(-614.811 -381.227)"/>
              </g>
            </g>
          </g>
          <g id="Grupo_119245" data-name="Grupo 119245" transform="translate(0 21.697)">
            <rect id="Rectángulo_36856" data-name="Rectángulo 36856" width="32.694" height="43.712" transform="translate(62.614)" fill="#263238"/>
            <path id="Trazado_181574" data-name="Trazado 181574" d="M572.971,388.526v43.712h65.387V388.526Zm39.645,10.345h-13.9a3.009,3.009,0,0,1,0-6.018h13.9a3.009,3.009,0,0,1,0,6.018Z" transform="translate(-572.971 -388.526)" fill="#ff6b00"/>
          </g>
        </g>
      </g>
      <g id="Character" transform="translate(269.704 220.824)">
        <g id="Grupo_119371" data-name="Grupo 119371">
          <g id="Grupo_119283" data-name="Grupo 119283" transform="translate(0 59.003)">
            <g id="Grupo_119256" data-name="Grupo 119256" transform="translate(0 78.511)">
              <g id="Grupo_119247" data-name="Grupo 119247">
                <path id="Trazado_181575" data-name="Trazado 181575" d="M484.8,435.314,424,431.59c-.383-.87-.639-1.376-.639-1.376l-16.48.328-5.362-.328s-.082.163-.212.439l-55.319,1.1c-11.029,0-22.624,6.729-22.624,15.327-.14,8.183,3.823,17.065,13.705,16.863l75.371-.253,75.371.253c9.882.2,12.5-5.758,12.51-12.827C501.475,437.952,493.228,435.423,484.8,435.314Z" transform="translate(-323.36 -430.214)" fill="#455a64"/>
              </g>
              <g id="Grupo_119249" data-name="Grupo 119249" transform="translate(20.627 10.702)">
                <g id="Grupo_119248" data-name="Grupo 119248">
                  <path id="Trazado_181576" data-name="Trazado 181576" d="M348.618,466.354s.122-.014.363-.02l1.066-.02,4.106-.038,15.166-.066,50.608-.067-.212.225c-.1-1.652-.214-3.42-.325-5.2-.227-3.646-.45-7.233-.662-10.645l.187.2-46.621-5.188-13.815-1.58-3.722-.446-.963-.125a2.1,2.1,0,0,1-.326-.056,2,2,0,0,1,.33.016l.968.087,3.73.372,13.83,1.454L418.96,450.3l.176.019.011.177c.214,3.411.439,7,.667,10.644.111,1.782.221,3.55.324,5.2l.014.225h-.226l-50.608-.067-15.166-.065-4.106-.038-1.066-.02C348.741,466.367,348.618,466.354,348.618,466.354Z" transform="translate(-348.618 -443.319)" fill="#263238"/>
                </g>
              </g>
              <g id="Grupo_119251" data-name="Grupo 119251" transform="translate(19.989 7.128)">
                <g id="Grupo_119250" data-name="Grupo 119250">
                  <path id="Trazado_181577" data-name="Trazado 181577" d="M364.015,443.929c-.047.057-.8-.552-2.131-1.362a22.618,22.618,0,0,0-11.519-3.312c-1.555-.02-2.519.095-2.528.022a2.139,2.139,0,0,1,.668-.155,14.121,14.121,0,0,1,1.858-.167,20.019,20.019,0,0,1,11.684,3.36,13.968,13.968,0,0,1,1.485,1.129C363.861,443.736,364.034,443.907,364.015,443.929Z" transform="translate(-347.837 -438.942)" fill="#263238"/>
                </g>
              </g>
              <g id="Grupo_119253" data-name="Grupo 119253" transform="translate(103.057 8.877)">
                <g id="Grupo_119252" data-name="Grupo 119252">
                  <path id="Trazado_181578" data-name="Trazado 181578" d="M503.224,441.087c.027.114-11.966,3.014-26.783,6.477s-26.856,6.178-26.883,6.063,11.964-3.014,26.785-6.478S503.2,440.973,503.224,441.087Z" transform="translate(-449.558 -441.084)" fill="#263238"/>
                </g>
              </g>
              <g id="Grupo_119255" data-name="Grupo 119255" transform="translate(138.06 7.692)">
                <g id="Grupo_119254" data-name="Grupo 119254">
                  <path id="Trazado_181579" data-name="Trazado 181579" d="M500.942,439.649a17.342,17.342,0,0,0-8.517,5.8,4.18,4.18,0,0,1,.818-1.329,12.49,12.49,0,0,1,6.163-4.193A4.175,4.175,0,0,1,500.942,439.649Z" transform="translate(-492.421 -439.633)" fill="#263238"/>
                </g>
              </g>
            </g>
            <g id="Grupo_119257" data-name="Grupo 119257" transform="translate(100.103 17.188)">
              <path id="Trazado_181580" data-name="Trazado 181580" d="M469.786,355.121l19.26,33.526a14.245,14.245,0,0,1,.389,13.466h0a14.245,14.245,0,0,1-13.143,7.869l-29.573-.835-.779-10.755,26.046-4.987-17.561-30.393Z" transform="translate(-445.94 -355.121)" fill="#ffbe9d"/>
            </g>
            <g id="Grupo_119258" data-name="Grupo 119258" transform="translate(36.692 17.188)">
              <path id="Trazado_181581" data-name="Trazado 181581" d="M383.769,412.492l27.194,7.2.591-8.155-25.061-14.556,18.3-33.973-15.362-7.891-19.259,33.526h0a15.7,15.7,0,0,0,9.065,22.406Z" transform="translate(-368.291 -355.121)" fill="#ffbe9d"/>
            </g>
            <g id="Grupo_119259" data-name="Grupo 119259" transform="translate(48.106)">
              <path id="Trazado_181582" data-name="Trazado 181582" d="M449.933,372.787,468.52,363a94.118,94.118,0,0,0-7.963-13.279,40.782,40.782,0,0,0-24.821-15.647h0l-21.379.252a28.271,28.271,0,0,0-7.624,1.755l.015-.083c-11.6,2.559-24.478,27.865-24.478,27.865l16.914,8.9.374,2.661a18.068,18.068,0,0,0,4.408,9.48L399.038,417.3l54.895,1.135-6.99-23.2Z" transform="translate(-382.268 -334.073)" fill="#ffb600"/>
            </g>
            <g id="Grupo_119261" data-name="Grupo 119261" transform="translate(65.275 27.197)">
              <g id="Grupo_119260" data-name="Grupo 119260">
                <path id="Trazado_181583" data-name="Trazado 181583" d="M408.317,391.19a3.931,3.931,0,0,1-.817-.619,11.838,11.838,0,0,1-1.867-2.086,13.582,13.582,0,0,1-2.291-8.832,28.764,28.764,0,0,1,1.255-4.925c.492-1.476.991-2.786,1.427-3.877s.811-1.965,1.083-2.563a4.487,4.487,0,0,1,.468-.91,4.981,4.981,0,0,1-.314.973l-.955,2.607c-.4,1.1-.866,2.417-1.335,3.891a30.9,30.9,0,0,0-1.205,4.856,13.985,13.985,0,0,0,.462,4.916,13.062,13.062,0,0,0,1.655,3.7A22.76,22.76,0,0,0,408.317,391.19Z" transform="translate(-403.292 -367.377)" fill="#263238"/>
              </g>
            </g>
            <g id="Grupo_119264" data-name="Grupo 119264" transform="translate(58.973 54.918)">
              <g id="Grupo_119262" data-name="Grupo 119262">
                <path id="Trazado_181584" data-name="Trazado 181584" d="M398.674,437.456l-3.1-36.133h66.867l-4.431,36.583Z" transform="translate(-395.575 -401.323)" fill="#263238"/>
              </g>
              <g id="Grupo_119263" data-name="Grupo 119263" transform="translate(29.176 15.012)">
                <path id="Trazado_181585" data-name="Trazado 181585" d="M439.818,423.964a4.258,4.258,0,1,1-4.258-4.258A4.258,4.258,0,0,1,439.818,423.964Z" transform="translate(-431.302 -419.706)" fill="#fafafa"/>
              </g>
            </g>
            <g id="Grupo_119278" data-name="Grupo 119278" transform="translate(91.236 98.11)">
              <g id="Grupo_119265" data-name="Grupo 119265">
                <path id="Trazado_181586" data-name="Trazado 181586" d="M435.083,454.214l11.353,1.585v12.34l-10.441-.269Z" transform="translate(-435.083 -454.214)" fill="#ffbe9d"/>
              </g>
              <g id="Grupo_119275" data-name="Grupo 119275" transform="translate(11.353 1.584)">
                <g id="Grupo_119266" data-name="Grupo 119266">
                  <path id="Trazado_181587" data-name="Trazado 181587" d="M448.985,456.154h5.1a5.66,5.66,0,0,1,2.83.759l2.692,1.554a41.751,41.751,0,0,0,4.7,2.243c3.1,1,8.325,2.34,9.425,3.187,3.14,2.422,2.185,5.284.461,5.584-1.515.262-25.214-.986-25.214-.986Z" transform="translate(-448.985 -456.154)" fill="#ffb600"/>
                </g>
                <g id="Grupo_119268" data-name="Grupo 119268" transform="translate(7.827 4.879)">
                  <g id="Grupo_119267" data-name="Grupo 119267">
                    <path id="Trazado_181588" data-name="Trazado 181588" d="M459.128,468.57a11.666,11.666,0,0,1-.194-6.442,184.335,184.335,0,0,0,.194,6.442Z" transform="translate(-458.57 -462.129)" fill="#263238"/>
                  </g>
                </g>
                <g id="Grupo_119270" data-name="Grupo 119270" transform="translate(10.616 5.364)">
                  <g id="Grupo_119269" data-name="Grupo 119269">
                    <path id="Trazado_181589" data-name="Trazado 181589" d="M462.175,468.612a20.491,20.491,0,0,1,.047-5.89,20.491,20.491,0,0,1-.047,5.89Z" transform="translate(-461.984 -462.722)" fill="#263238"/>
                  </g>
                </g>
                <g id="Grupo_119272" data-name="Grupo 119272" transform="translate(13.113 5.669)">
                  <g id="Grupo_119271" data-name="Grupo 119271">
                    <path id="Trazado_181590" data-name="Trazado 181590" d="M465.6,469.169a21.969,21.969,0,0,1-.474-6.073,21.886,21.886,0,0,1,.474,6.073Z" transform="translate(-465.042 -463.096)" fill="#263238"/>
                  </g>
                </g>
                <g id="Grupo_119274" data-name="Grupo 119274" transform="translate(1.096 2.899)">
                  <g id="Grupo_119273" data-name="Grupo 119273">
                    <path id="Trazado_181591" data-name="Trazado 181591" d="M455.407,464.841a3.526,3.526,0,0,1-1.046-.329,9.813,9.813,0,0,1-2.55-1.576c-.242-.207-.487-.434-.729-.684a2.913,2.913,0,0,1-.65-.921,1.285,1.285,0,0,1,.142-1.267.96.96,0,0,1,.635-.349,1.619,1.619,0,0,1,.688.078,5.083,5.083,0,0,1,1.068,9.042,3.226,3.226,0,0,1-1.169.525,1.363,1.363,0,0,1-.666-.032.893.893,0,0,1-.514-.453,1.287,1.287,0,0,1,.149-1.176,3.618,3.618,0,0,1,.656-.788,7.833,7.833,0,0,1,2.509-1.644,3.239,3.239,0,0,1,1.057-.3c.011.034-.363.147-.989.45a8.444,8.444,0,0,0-2.364,1.705,3.372,3.372,0,0,0-.582.736.975.975,0,0,0-.12.86.675.675,0,0,0,.8.274,2.883,2.883,0,0,0,1.018-.483,4.719,4.719,0,0,0-.968-8.343.8.8,0,0,0-.914.134.931.931,0,0,0-.1.9,5,5,0,0,0,1.249,1.506A13.756,13.756,0,0,0,455.407,464.841Z" transform="translate(-450.328 -459.704)" fill="#263238"/>
                  </g>
                </g>
              </g>
              <g id="Grupo_119277" data-name="Grupo 119277" transform="translate(17.294 1.728)">
                <g id="Grupo_119276" data-name="Grupo 119276">
                  <path id="Trazado_181592" data-name="Trazado 181592" d="M475.533,469.514a2.994,2.994,0,0,0,.621-.776,2.921,2.921,0,0,0-.334-2.574,5.735,5.735,0,0,0-3.154-2.377c-1.442-.519-3.164-.77-4.9-1.311a34.174,34.174,0,0,1-8.432-3.842c-1-.639-1.775-1.211-2.3-1.619a4.625,4.625,0,0,1-.773-.682,4.957,4.957,0,0,1,.871.549c.55.365,1.344.9,2.358,1.5a38.117,38.117,0,0,0,8.4,3.691c1.71.535,3.415.791,4.916,1.352a5.934,5.934,0,0,1,3.281,2.6,3.029,3.029,0,0,1,.218,2.794,1.725,1.725,0,0,1-.526.581C475.626,469.489,475.54,469.525,475.533,469.514Z" transform="translate(-456.26 -456.33)" fill="#263238"/>
                </g>
              </g>
            </g>
            <g id="Grupo_119280" data-name="Grupo 119280" transform="translate(59.514 8.699)">
              <g id="Grupo_119279" data-name="Grupo 119279">
                <path id="Trazado_181593" data-name="Trazado 181593" d="M456.8,344.9a.656.656,0,0,1,0,.174l-.038.51q-.065.715-.18,1.974c-.176,1.753-.428,4.262-.745,7.413l-.019.19-.172-.09-9.858-5.19.234-.065-5.354,9.034-.115.194-.179-.137-9.017-6.914.259,0-3.927,3.079-5.355,4.193-.2.154-.118-.22c-1.777-3.289-3.487-6.451-5.1-9.436l.256.087-10.817,4.82-.2.088-.036-.213c-.63-3.707-1.177-6.933-1.632-9.62l.166.093-6.193,2.362-1.647.611-.427.149a.548.548,0,0,1-.149.04.519.519,0,0,1,.136-.072l.414-.18,1.624-.67,6.152-2.469.14-.056.027.149c.481,2.683,1.058,5.9,1.721,9.605l-.234-.124,10.792-4.874.167-.075.088.162,5.123,9.424-.315-.065,5.351-4.2,3.93-3.076.129-.1.13.1,9,6.933-.293.056c1.935-3.233,3.758-6.276,5.4-9.01l.087-.145.147.079,9.815,5.271-.19.1c.367-3.146.66-5.65.864-7.4l.247-1.966c.029-.206.053-.372.073-.505A.654.654,0,0,1,456.8,344.9Z" transform="translate(-396.237 -344.725)" fill="#f5f5f5"/>
              </g>
            </g>
            <g id="Grupo_119282" data-name="Grupo 119282" transform="translate(55.547 17.457)">
              <g id="Grupo_119281" data-name="Grupo 119281">
                <path id="Trazado_181594" data-name="Trazado 181594" d="M463.841,355.954a1.121,1.121,0,0,1-.046.239l-.171.693c-.166.633-.4,1.526-.7,2.671-.633,2.349-1.541,5.725-2.675,9.937l-.043.161-.152-.073-11.519-5.529.226-.058-9.7,13.838-.142.2-.175-.176c-2.962-3-6.1-6.182-9.325-9.451l-1.957-1.986.265.031-12.567,7.88-.18.113-.1-.184L408.1,362.3l.213.08-12.922,4.448-.122.042-.042-.122-2.867-8.316-.743-2.211c-.076-.236-.136-.424-.183-.571a.882.882,0,0,1-.051-.2.861.861,0,0,1,.085.185l.216.559q.288.78.807,2.189l2.981,8.276-.165-.079,12.89-4.539.139-.049.073.129,6.818,11.941-.283-.071,12.556-7.9.145-.091.12.122,1.957,1.985,9.317,9.459-.316.027,9.746-13.808.088-.126.138.067,11.483,5.6-.2.088c1.187-4.2,2.136-7.561,2.8-9.9l.77-2.652c.087-.285.155-.51.208-.684A1.165,1.165,0,0,1,463.841,355.954Z" transform="translate(-391.38 -355.45)" fill="#f5f5f5"/>
              </g>
            </g>
          </g>
          <g id="Grupo_119370" data-name="Grupo 119370" transform="translate(72.76)">
            <g id="Grupo_119284" data-name="Grupo 119284" transform="translate(5.592)">
              <path id="Trazado_181595" data-name="Trazado 181595" d="M460.724,281.816a11.985,11.985,0,0,1-9.127-2.88c2.975,1.5,6.938-.559,7.985-3.724s.188-9.051-2.41-11.138a10.3,10.3,0,0,0-8.96-1.927c-3.063.82-6.308,5.475-7.31,8.484l.057.091c-.471-.187-.946-.363-1.424-.523a24.528,24.528,0,0,0-10.57-1.279,17.136,17.136,0,0,0-9.661,4.253l20.765,33.376a12.37,12.37,0,0,0,9.089-6.105,22.847,22.847,0,0,0,2.921-10.854c.047-.948.044-1.908,0-2.866l6.678,1.074a14.887,14.887,0,0,0-4.44-3.969A5.575,5.575,0,0,0,460.724,281.816Z" transform="translate(-419.305 -261.822)" fill="#263238"/>
            </g>
            <g id="Grupo_119358" data-name="Grupo 119358" transform="translate(0.891 12.13)">
              <g id="Grupo_119357" data-name="Grupo 119357">
                <g id="Grupo_119356" data-name="Grupo 119356">
                  <g id="Grupo_119350" data-name="Grupo 119350">
                    <g id="Grupo_119349" data-name="Grupo 119349">
                      <g id="Grupo_119338" data-name="Grupo 119338">
                        <g id="Grupo_119337" data-name="Grupo 119337">
                          <g id="Grupo_119336" data-name="Grupo 119336">
                            <g id="Grupo_119289" data-name="Grupo 119289">
                              <g id="Grupo_119288" data-name="Grupo 119288">
                                <g id="Grupo_119287" data-name="Grupo 119287">
                                  <g id="Grupo_119286" data-name="Grupo 119286">
                                    <g id="Grupo_119285" data-name="Grupo 119285">
                                      <path id="Trazado_181596" data-name="Trazado 181596" d="M433.422,336.34A10.445,10.445,0,0,0,443.64,326.02l.482-41.524h0a3.3,3.3,0,0,0-2.957-3.352l-17.539-4.433c-5.617-.595-9.351,6.322-9.706,11.959-.4,6.263-.63,13.925.113,18.6,1.492,9.4,8.694,10.592,8.694,10.592,0-.025,0,3.636.026,8.09a10.447,10.447,0,0,0,10.669,10.392Z" transform="translate(-413.548 -276.675)" fill="#ffbe9d"/>
                                    </g>
                                  </g>
                                </g>
                              </g>
                            </g>
                            <g id="Grupo_119301" data-name="Grupo 119301" transform="translate(2.014 14.714)">
                              <g id="Grupo_119294" data-name="Grupo 119294" transform="translate(2 2.274)">
                                <g id="Grupo_119293" data-name="Grupo 119293">
                                  <g id="Grupo_119292" data-name="Grupo 119292">
                                    <g id="Grupo_119291" data-name="Grupo 119291">
                                      <g id="Grupo_119290" data-name="Grupo 119290">
                                        <path id="Trazado_181597" data-name="Trazado 181597" d="M418.465,298.567a1.2,1.2,0,0,0,1.162,1.216,1.153,1.153,0,0,0,1.242-1.086,1.207,1.207,0,0,0-1.161-1.217A1.153,1.153,0,0,0,418.465,298.567Z" transform="translate(-418.464 -297.478)" fill="#263238"/>
                                      </g>
                                    </g>
                                  </g>
                                </g>
                              </g>
                              <g id="Grupo_119300" data-name="Grupo 119300">
                                <g id="Grupo_119299" data-name="Grupo 119299">
                                  <g id="Grupo_119298" data-name="Grupo 119298">
                                    <g id="Grupo_119297" data-name="Grupo 119297">
                                      <g id="Grupo_119296" data-name="Grupo 119296">
                                        <g id="Grupo_119295" data-name="Grupo 119295">
                                          <path id="Trazado_181598" data-name="Trazado 181598" d="M416.034,295.96c.149.157,1.062-.519,2.359-.515,1.3-.015,2.247.652,2.388.493.069-.07-.083-.354-.5-.656a3.31,3.31,0,0,0-1.911-.589,3.18,3.18,0,0,0-1.878.606C416.095,295.605,415.96,295.889,416.034,295.96Z" transform="translate(-416.015 -294.693)" fill="#263238"/>
                                        </g>
                                      </g>
                                    </g>
                                  </g>
                                </g>
                              </g>
                            </g>
                            <g id="Grupo_119313" data-name="Grupo 119313" transform="translate(14.76 14.956)">
                              <g id="Grupo_119306" data-name="Grupo 119306" transform="translate(1.59 2.032)">
                                <g id="Grupo_119305" data-name="Grupo 119305">
                                  <g id="Grupo_119304" data-name="Grupo 119304">
                                    <g id="Grupo_119303" data-name="Grupo 119303">
                                      <g id="Grupo_119302" data-name="Grupo 119302">
                                        <path id="Trazado_181599" data-name="Trazado 181599" d="M433.571,298.567a1.2,1.2,0,0,0,1.162,1.216,1.153,1.153,0,0,0,1.242-1.086,1.206,1.206,0,0,0-1.161-1.217A1.153,1.153,0,0,0,433.571,298.567Z" transform="translate(-433.57 -297.478)" fill="#263238"/>
                                      </g>
                                    </g>
                                  </g>
                                </g>
                              </g>
                              <g id="Grupo_119312" data-name="Grupo 119312">
                                <g id="Grupo_119311" data-name="Grupo 119311">
                                  <g id="Grupo_119310" data-name="Grupo 119310">
                                    <g id="Grupo_119309" data-name="Grupo 119309">
                                      <g id="Grupo_119308" data-name="Grupo 119308">
                                        <g id="Grupo_119307" data-name="Grupo 119307">
                                          <path id="Trazado_181600" data-name="Trazado 181600" d="M431.642,296.256c.15.158,1.064-.518,2.36-.514,1.3-.016,2.247.652,2.388.493.069-.071-.082-.354-.5-.656a3.3,3.3,0,0,0-1.911-.59,3.186,3.186,0,0,0-1.878.606C431.7,295.9,431.569,296.185,431.642,296.256Z" transform="translate(-431.623 -294.989)" fill="#263238"/>
                                        </g>
                                      </g>
                                    </g>
                                  </g>
                                </g>
                              </g>
                            </g>
                            <g id="Grupo_119319" data-name="Grupo 119319" transform="translate(6.77 15.034)">
                              <g id="Grupo_119318" data-name="Grupo 119318">
                                <g id="Grupo_119317" data-name="Grupo 119317">
                                  <g id="Grupo_119316" data-name="Grupo 119316">
                                    <g id="Grupo_119315" data-name="Grupo 119315">
                                      <g id="Grupo_119314" data-name="Grupo 119314">
                                        <path id="Trazado_181601" data-name="Trazado 181601" d="M425.142,305.891a8.564,8.564,0,0,0-2.106-.381c-.332-.034-.645-.1-.7-.326a1.681,1.681,0,0,1,.221-.982q.467-1.2.979-2.521a43.276,43.276,0,0,0,2.2-6.6,43.4,43.4,0,0,0-2.725,6.4q-.491,1.328-.938,2.536a1.918,1.918,0,0,0-.172,1.3.831.831,0,0,0,.545.484,2.222,2.222,0,0,0,.562.078A8.447,8.447,0,0,0,425.142,305.891Z" transform="translate(-421.838 -295.085)" fill="#263238"/>
                                      </g>
                                    </g>
                                  </g>
                                </g>
                              </g>
                            </g>
                            <g id="Grupo_119324" data-name="Grupo 119324" transform="translate(9.178 37.828)">
                              <g id="Grupo_119323" data-name="Grupo 119323">
                                <g id="Grupo_119322" data-name="Grupo 119322">
                                  <g id="Grupo_119321" data-name="Grupo 119321">
                                    <g id="Grupo_119320" data-name="Grupo 119320">
                                      <path id="Trazado_181602" data-name="Trazado 181602" d="M424.787,326.353A23.908,23.908,0,0,0,437.371,323s-3.053,6.455-12.458,5.575Z" transform="translate(-424.787 -322.997)" fill="#eb996e"/>
                                    </g>
                                  </g>
                                </g>
                              </g>
                            </g>
                            <g id="Grupo_119329" data-name="Grupo 119329" transform="translate(10.492 28.083)">
                              <g id="Grupo_119328" data-name="Grupo 119328">
                                <g id="Grupo_119327" data-name="Grupo 119327">
                                  <g id="Grupo_119326" data-name="Grupo 119326">
                                    <g id="Grupo_119325" data-name="Grupo 119325">
                                      <path id="Trazado_181603" data-name="Trazado 181603" d="M426.526,311.946a2.335,2.335,0,0,1,2.095-.868,2.132,2.132,0,0,1,1.473.79,1.351,1.351,0,0,1,.1,1.546,1.568,1.568,0,0,1-1.7.43,4.912,4.912,0,0,1-1.657-.99,1.435,1.435,0,0,1-.371-.383.432.432,0,0,1,0-.483" transform="translate(-426.396 -311.064)" fill="#eb996e"/>
                                    </g>
                                  </g>
                                </g>
                              </g>
                            </g>
                            <g id="Grupo_119335" data-name="Grupo 119335" transform="translate(9.757 26.736)">
                              <g id="Grupo_119334" data-name="Grupo 119334">
                                <g id="Grupo_119333" data-name="Grupo 119333">
                                  <g id="Grupo_119332" data-name="Grupo 119332">
                                    <g id="Grupo_119331" data-name="Grupo 119331">
                                      <g id="Grupo_119330" data-name="Grupo 119330">
                                        <path id="Trazado_181604" data-name="Trazado 181604" d="M429.629,309.415c-.211-.012-.214,1.4-1.419,2.394s-2.7.844-2.714,1.041c-.02.088.334.274.967.291a3.509,3.509,0,0,0,2.266-.79,3.048,3.048,0,0,0,1.1-2.008C429.882,309.755,429.725,309.407,429.629,309.415Z" transform="translate(-425.496 -309.415)" fill="#263238"/>
                                      </g>
                                    </g>
                                  </g>
                                </g>
                              </g>
                            </g>
                          </g>
                        </g>
                      </g>
                      <g id="Grupo_119343" data-name="Grupo 119343" transform="translate(14.189 12.98)">
                        <g id="Grupo_119342" data-name="Grupo 119342">
                          <g id="Grupo_119341" data-name="Grupo 119341">
                            <g id="Grupo_119340" data-name="Grupo 119340">
                              <g id="Grupo_119339" data-name="Grupo 119339">
                                <path id="Trazado_181605" data-name="Trazado 181605" d="M430.931,293.542c.128.353,1.423.185,2.944.369,1.525.153,2.752.6,2.954.282.091-.151-.123-.483-.62-.824a5.157,5.157,0,0,0-4.493-.5C431.157,293.1,430.876,293.374,430.931,293.542Z" transform="translate(-430.924 -292.57)" fill="#263238"/>
                              </g>
                            </g>
                          </g>
                        </g>
                      </g>
                      <g id="Grupo_119348" data-name="Grupo 119348" transform="translate(2.18 12.245)">
                        <g id="Grupo_119347" data-name="Grupo 119347">
                          <g id="Grupo_119346" data-name="Grupo 119346">
                            <g id="Grupo_119345" data-name="Grupo 119345">
                              <g id="Grupo_119344" data-name="Grupo 119344">
                                <path id="Trazado_181606" data-name="Trazado 181606" d="M416.252,293.012c.229.295,1.121-.011,2.2-.025,1.074-.052,1.984.2,2.193-.11.091-.149-.051-.444-.449-.724a3.18,3.18,0,0,0-3.537.109C416.276,292.566,416.151,292.869,416.252,293.012Z" transform="translate(-416.218 -291.669)" fill="#263238"/>
                              </g>
                            </g>
                          </g>
                        </g>
                      </g>
                    </g>
                  </g>
                  <g id="Grupo_119352" data-name="Grupo 119352" transform="translate(29.245 19.203)">
                    <g id="Grupo_119351" data-name="Grupo 119351">
                      <path id="Trazado_181607" data-name="Trazado 181607" d="M449.648,300.486a2.354,2.354,0,0,1,2.457.122,4.356,4.356,0,0,1-2.745,8.09" transform="translate(-449.36 -300.19)" fill="#ffbe9d"/>
                    </g>
                  </g>
                  <g id="Grupo_119355" data-name="Grupo 119355" transform="translate(29.974 21.298)">
                    <g id="Grupo_119354" data-name="Grupo 119354">
                      <g id="Grupo_119353" data-name="Grupo 119353">
                        <path id="Trazado_181608" data-name="Trazado 181608" d="M450.469,306.366c.027-.067.365.08.819-.128a1.636,1.636,0,0,0,.806-1.605,1.657,1.657,0,0,0-1-1.507c-.47-.193-.816-.1-.835-.172-.034-.047.319-.3.939-.157a1.725,1.725,0,0,1,.919.572,2.093,2.093,0,0,1,.466,1.237,1.865,1.865,0,0,1-1.176,1.954C450.765,306.73,450.419,306.4,450.469,306.366Z" transform="translate(-450.253 -302.756)" fill="#eb996e"/>
                      </g>
                    </g>
                  </g>
                </g>
              </g>
            </g>
            <g id="Grupo_119360" data-name="Grupo 119360" transform="translate(32.132 38.206)">
              <g id="Grupo_119359" data-name="Grupo 119359">
                <path id="Trazado_181609" data-name="Trazado 181609" d="M453.321,309.341a1.893,1.893,0,0,1,.43.3l1.151.94,4.055,3.445.136.116-.115.138c-1.51,1.813-3.192,4.083-5.083,6.455-.428.536-.856,1.059-1.271,1.548l-.347.409-.024-.536c-.171-3.826-.3-7.212-.377-9.644-.028-1.157-.051-2.117-.069-2.866a5.318,5.318,0,0,1,.029-1.044,5.353,5.353,0,0,1,.124,1.037c.051.746.118,1.7.2,2.859.15,2.427.333,5.812.517,9.637l-.372-.127,1.261-1.541c1.885-2.363,3.587-4.623,5.14-6.422l.021.254-3.957-3.56-1.086-1.016A1.954,1.954,0,0,1,453.321,309.341Z" transform="translate(-451.805 -308.607)" fill="#455a64"/>
              </g>
            </g>
            <g id="Grupo_119361" data-name="Grupo 119361" transform="translate(0 8.058)">
              <path id="Trazado_181610" data-name="Trazado 181610" d="M427.1,271.689a34.2,34.2,0,0,0-6.852.749,11.47,11.47,0,0,0-5.924,3.335,6.963,6.963,0,0,0-1.637,6.408,5.044,5.044,0,0,0,5.2,3.627c1.732-.232,3.393-1.514,5.065-1,1.579.481,2.449,2.409,4.073,2.709,1.6.3,3.03-1.142,4.654-1.284,1.792-.155,3.347,1.316,4.144,2.927s1.1,3.434,1.9,5.043a4.089,4.089,0,0,0,2.42,2.3,3.328,3.328,0,0,0,2.929-.824,6.808,6.808,0,0,0,1.716-2.626,14.593,14.593,0,0,0-11.857-20" transform="translate(-412.458 -271.689)" fill="#263238"/>
            </g>
            <g id="Grupo_119363" data-name="Grupo 119363" transform="translate(27.418 8.875)">
              <g id="Grupo_119362" data-name="Grupo 119362">
                <path id="Trazado_181611" data-name="Trazado 181611" d="M456.156,281.853c-.073.02-.292-.759-.869-1.908a13.608,13.608,0,0,0-7.269-6.567c-1.2-.458-2-.6-1.985-.671,0-.029.207-.016.571.031a8.5,8.5,0,0,1,1.515.357,12.4,12.4,0,0,1,7.441,6.722,8.609,8.609,0,0,1,.508,1.472C456.152,281.645,456.184,281.845,456.156,281.853Z" transform="translate(-446.033 -272.69)" fill="#e8505b"/>
              </g>
            </g>
            <g id="Grupo_119365" data-name="Grupo 119365" transform="translate(31.349 3.079)">
              <g id="Grupo_119364" data-name="Grupo 119364">
                <path id="Trazado_181612" data-name="Trazado 181612" d="M464.226,266.787a15.576,15.576,0,0,0-2.263-.7,9.027,9.027,0,0,0-5.511.83,12.234,12.234,0,0,0-4.26,3.706c-.871,1.182-1.278,2.011-1.343,1.978a1.815,1.815,0,0,1,.224-.612,11.645,11.645,0,0,1,.873-1.539,11.448,11.448,0,0,1,4.316-3.914,8.753,8.753,0,0,1,5.76-.743,6.477,6.477,0,0,1,1.669.622C464.059,266.618,464.239,266.765,464.226,266.787Z" transform="translate(-450.845 -265.592)" fill="#455a64"/>
              </g>
            </g>
            <g id="Grupo_119367" data-name="Grupo 119367" transform="translate(30.637 15.314)">
              <g id="Grupo_119366" data-name="Grupo 119366">
                <path id="Trazado_181613" data-name="Trazado 181613" d="M455.032,280.574a5.878,5.878,0,0,1,.015,1.932,15.341,15.341,0,0,1-3.654,8.477,5.919,5.919,0,0,1-1.414,1.316,19.688,19.688,0,0,0,5.054-11.725Z" transform="translate(-449.974 -280.574)" fill="#455a64"/>
              </g>
            </g>
            <g id="Grupo_119369" data-name="Grupo 119369" transform="translate(32.526 15.513)">
              <g id="Grupo_119368" data-name="Grupo 119368">
                <path id="Trazado_181614" data-name="Trazado 181614" d="M455.727,280.818c.029-.008.109.183.23.538a9.214,9.214,0,0,1,.367,1.549,13.26,13.26,0,0,1-2.518,9.967,9.115,9.115,0,0,1-1.059,1.188c-.276.256-.437.385-.457.364-.054-.052.528-.64,1.273-1.728a14.648,14.648,0,0,0,2.464-9.752C455.888,281.634,455.655,280.839,455.727,280.818Z" transform="translate(-452.287 -280.818)" fill="#455a64"/>
              </g>
            </g>
          </g>
        </g>
      </g>
      <g id="Speech_Bubble" data-name="Speech Bubble" transform="translate(400.554 143.148)">
        <g id="Grupo_119386" data-name="Grupo 119386">
          <g id="Grupo_119372" data-name="Grupo 119372" transform="translate(0 95.2)">
            <path id="Trazado_181615" data-name="Trazado 181615" d="M486.179,283.411a3.848,3.848,0,1,0,1.759-.132" transform="translate(-483.592 -283.28)" fill="#ebebeb"/>
          </g>
          <g id="Grupo_119373" data-name="Grupo 119373" transform="translate(10.659 79.138)">
            <path id="Trazado_181616" data-name="Trazado 181616" d="M499.613,263.761a4.414,4.414,0,1,0,2.017-.15" transform="translate(-496.645 -263.611)" fill="#ebebeb"/>
          </g>
          <g id="Grupo_119377" data-name="Grupo 119377" transform="translate(0.674)">
            <g id="Grupo_119374" data-name="Grupo 119374" transform="translate(0.159 0.094)">
              <path id="Trazado_181617" data-name="Trazado 181617" d="M520.985,175.288c-7.388-.624-14.86,1.026-19.926,6.439a25.019,25.019,0,0,0-6.368,20.528c-7.858,3.265-12.142,13.257-9.089,21.2s12.926,12.494,20.947,9.656a28.411,28.411,0,0,0,48.312,7.691c7.707,1.742,16.356,1.628,22.83-2.9s9.4-14.492,4.471-20.663c8.878-2.162,13.389-13.248,10.756-22s-10.513-15.028-18.93-18.584c-5.563-2.349-12.5-3.576-17.245.158a21.973,21.973,0,0,0-35.759-1.527" transform="translate(-484.612 -166.818)" fill="#f5f5f5"/>
            </g>
            <g id="Grupo_119376" data-name="Grupo 119376">
              <g id="Grupo_119375" data-name="Grupo 119375">
                <path id="Trazado_181618" data-name="Trazado 181618" d="M520.949,175.267s.145-.2.448-.57a18.509,18.509,0,0,1,1.433-1.582,22.2,22.2,0,0,1,6.823-4.578,22.594,22.594,0,0,1,5.765-1.631,21.12,21.12,0,0,1,7.146.218,22.574,22.574,0,0,1,7.644,3.093,22.348,22.348,0,0,1,6.62,6.5l-.209-.034a11.935,11.935,0,0,1,6.99-2.4,22.643,22.643,0,0,1,7.874,1.255,41.1,41.1,0,0,1,7.712,3.538,36.175,36.175,0,0,1,7.15,5.394,26.744,26.744,0,0,1,5.524,7.6,22.436,22.436,0,0,1,1.572,4.618,19.726,19.726,0,0,1-2.861,14.595,15.459,15.459,0,0,1-3.589,3.834,14.228,14.228,0,0,1-4.816,2.3l.111-.327a11.631,11.631,0,0,1,2.193,4.663,14.054,14.054,0,0,1,.128,5.24,17.248,17.248,0,0,1-4.88,9.414,19.849,19.849,0,0,1-9.72,4.966,32.833,32.833,0,0,1-11.192.33c-1.366-.167-2.713-.433-4.037-.715l.211-.072a28.427,28.427,0,0,1-40.542,3.45,28.735,28.735,0,0,1-8.115-11.2l.246.112a17.084,17.084,0,0,1-13.708-1.433,16.071,16.071,0,0,1-8.021-10.165,17.26,17.26,0,0,1,1.659-11.982,16.687,16.687,0,0,1,8.09-7.594l-.089.158a25.177,25.177,0,0,1,.509-9.7,25.61,25.61,0,0,1,3.523-7.9,24.859,24.859,0,0,1,2.439-3.062,19.606,19.606,0,0,1,2.733-2.378,20.285,20.285,0,0,1,5.631-2.83,27.332,27.332,0,0,1,8.584-1.284,26.68,26.68,0,0,1,3.02.162s-.26,0-.768-.029-1.262-.052-2.252-.05a27.768,27.768,0,0,0-8.533,1.353,20.184,20.184,0,0,0-5.566,2.837,19.5,19.5,0,0,0-2.692,2.365,24.72,24.72,0,0,0-2.4,3.045,25.414,25.414,0,0,0-3.459,7.834,24.919,24.919,0,0,0-.474,9.59l.017.113-.106.045a16.4,16.4,0,0,0-7.917,7.473,16.936,16.936,0,0,0-1.606,11.75,15.715,15.715,0,0,0,7.862,9.924,16.716,16.716,0,0,0,13.4,1.39l.177-.061.069.174a28.864,28.864,0,0,0,20.782,17.295,28.758,28.758,0,0,0,27.186-9.668l.083-.1.128.027c1.312.28,2.645.544,4,.709a32.454,32.454,0,0,0,11.045-.323,19.446,19.446,0,0,0,9.517-4.852,16.839,16.839,0,0,0,4.764-9.179,12.236,12.236,0,0,0-2.23-9.582l-.2-.246.308-.081a13.828,13.828,0,0,0,4.67-2.231,15.073,15.073,0,0,0,3.5-3.732,19.344,19.344,0,0,0,2.817-14.3,22.031,22.031,0,0,0-1.538-4.534,26.361,26.361,0,0,0-5.436-7.5,35.859,35.859,0,0,0-7.072-5.355,40.881,40.881,0,0,0-7.64-3.524,22.365,22.365,0,0,0-7.76-1.259,11.645,11.645,0,0,0-6.824,2.317l-.124.1-.085-.13a22.105,22.105,0,0,0-6.518-6.438,22.381,22.381,0,0,0-7.551-3.088,20.993,20.993,0,0,0-7.074-.249,22.716,22.716,0,0,0-12.559,6.077,21.047,21.047,0,0,0-1.458,1.55C521.116,175.087,520.949,175.267,520.949,175.267Z" transform="translate(-484.418 -166.702)" fill="#263238"/>
              </g>
            </g>
          </g>
          <g id="Grupo_119379" data-name="Grupo 119379" transform="translate(23.017 33.383)">
            <g id="Grupo_119378" data-name="Grupo 119378">
              <path id="Trazado_181619" data-name="Trazado 181619" d="M576.462,208.219c0,.353-14.481.638-32.341.638s-32.344-.285-32.344-.638,14.478-.638,32.344-.638S576.462,207.867,576.462,208.219Z" transform="translate(-511.777 -207.581)" fill="#455a64"/>
            </g>
          </g>
          <g id="Grupo_119381" data-name="Grupo 119381" transform="translate(23.017 40.401)">
            <g id="Grupo_119380" data-name="Grupo 119380">
              <path id="Trazado_181620" data-name="Trazado 181620" d="M576.462,216.813c0,.352-14.481.638-32.341.638s-32.344-.286-32.344-.638,14.478-.638,32.344-.638S576.462,216.46,576.462,216.813Z" transform="translate(-511.777 -216.175)" fill="#455a64"/>
            </g>
          </g>
          <g id="Grupo_119383" data-name="Grupo 119383" transform="translate(23.017 47.418)">
            <g id="Grupo_119382" data-name="Grupo 119382">
              <path id="Trazado_181621" data-name="Trazado 181621" d="M576.462,225.406c0,.353-14.481.639-32.341.639s-32.344-.286-32.344-.639,14.478-.638,32.344-.638S576.462,225.054,576.462,225.406Z" transform="translate(-511.777 -224.768)" fill="#455a64"/>
            </g>
          </g>
          <g id="Grupo_119385" data-name="Grupo 119385" transform="translate(23.017 54.436)">
            <g id="Grupo_119384" data-name="Grupo 119384">
              <path id="Trazado_181622" data-name="Trazado 181622" d="M576.462,234c0,.353-14.481.638-32.341.638s-32.344-.285-32.344-.638,14.478-.638,32.344-.638S576.462,233.648,576.462,234Z" transform="translate(-511.777 -233.362)" fill="#455a64"/>
            </g>
          </g>
        </g>
      </g>
    </g>
  </g>
</svg>
