<svg xmlns="http://www.w3.org/2000/svg" width="715" height="383.895" viewBox="0 0 715 383.895">
  <g id="_49" data-name="49" transform="translate(5670 -4666.512)">
    <rect id="dylan-shaw-UxyWwU6n_ts-unsplash" width="715" height="383.895" transform="translate(-5670 4666.512)" fill="#fff0cc"/>
    <g id="Grupo_121419" data-name="Grupo 121419" transform="translate(-5605.743 4655.059)">
      <g id="Grupo_121311" data-name="Grupo 121311" transform="translate(139.287 20.611)">
        <path id="Trazado_182205" data-name="Trazado 182205" d="M387.906,178.052l-153.975,88.9c-14.015,8.092-14.015,8.092-14.015-8.068V141.691c0-16.162,0-16.162,14.036-24.266L387.994,28.488c13.894-8.022,13.894-8.022,13.894,8.246V153.868c0,16.11,0,16.11-13.984,24.184" transform="translate(-219.915 -23.235)" fill="#eef7fc" fill-rule="evenodd"/>
      </g>
      <g id="Grupo_121312" data-name="Grupo 121312" transform="translate(135.789 18.592)">
        <path id="Trazado_182206" data-name="Trazado 182206" d="M395.577,20.863l-3.486-2.014h0c-1.743-1.006-5.216,1-12.139,5L225.908,112.781c-14.036,8.1-14.036,8.1-14.036,24.266v117.19c0,8.119,0,12.158,1.778,13.141v0l3.471,2c-1.75-1.01-1.751-5.05-1.751-13.128V139.068c0-16.162,0-16.162,14.036-24.266L383.45,25.865c6.908-3.988,10.38-5.992,12.127-5m.077.045-.028-.016c.01.005.018.013.028.018Z" transform="translate(-211.872 -18.592)" fill="#a8c2cf" fill-rule="evenodd"/>
      </g>
      <g id="Grupo_121313" data-name="Grupo 121313" transform="translate(142.809 40.103)">
        <path id="Trazado_182207" data-name="Trazado 182207" d="M402.633,68.043l.331,116.989a8.842,8.842,0,0,1-4.013,6.951L232.382,288.153c-2.221,1.282-4.032.254-4.039-2.3l-.332-116.989Z" transform="translate(-228.011 -68.043)" fill="#bcded0" fill-rule="evenodd"/>
      </g>
      <g id="Grupo_121314" data-name="Grupo 121314" transform="translate(142.787 29.495)">
        <path id="Trazado_182208" data-name="Trazado 182208" d="M398.543,44.211c2.225-1.285,4.032-.254,4.039,2.3l.023,7.752L227.982,155.084l-.022-7.753a8.846,8.846,0,0,1,4.013-6.951Z" transform="translate(-227.96 -43.658)" fill="#1d1f38" fill-rule="evenodd"/>
      </g>
      <g id="Grupo_121315" data-name="Grupo 121315" transform="translate(271.281 148.401)">
        <path id="Trazado_182209" data-name="Trazado 182209" d="M554.367,317.132c.488-.282.888-.054.889.515a1.953,1.953,0,0,1-.883,1.529l-30.128,17.394c-.487.281-.887.054-.888-.506a1.951,1.951,0,0,1,.881-1.538Z" transform="translate(-523.358 -317.012)" fill="#fff" fill-rule="evenodd"/>
      </g>
      <g id="Grupo_121316" data-name="Grupo 121316" transform="translate(275.914 147.006)">
        <path id="Trazado_182210" data-name="Trazado 182210" d="M555.729,313.924c.486-.281.885-.054.886.507a1.95,1.95,0,0,1-.881,1.536L534.9,328c-.487.282-.886.054-.889-.515a1.96,1.96,0,0,1,.883-1.529Z" transform="translate(-534.007 -313.803)" fill="#fff" fill-rule="evenodd"/>
      </g>
      <g id="Grupo_121317" data-name="Grupo 121317" transform="translate(269.074 140.736)">
        <path id="Trazado_182211" data-name="Trazado 182211" d="M552.546,299.666c1.112-.642,2.016-.127,2.019,1.142l.021,7.147a4.425,4.425,0,0,1-2.007,3.469l-32.256,18.621c-1.113.642-2.018.128-2.021-1.141l-.019-7.149a4.416,4.416,0,0,1,2.007-3.467l15.591-9,1.072-.619Zm-1.04,9.554a1.953,1.953,0,0,0,.883-1.529c0-.569-.4-.8-.889-.514L521.372,324.57a1.951,1.951,0,0,0-.881,1.538c0,.56.4.788.888.506Zm-25.5,8.59a1.957,1.957,0,0,0-.883,1.529c0,.568.4.8.889.515l20.838-12.03a1.95,1.95,0,0,0,.881-1.536c0-.561-.4-.788-.888-.507Z" transform="translate(-518.283 -299.39)" fill="#64ae44" fill-rule="evenodd"/>
      </g>
      <g id="Grupo_121318" data-name="Grupo 121318" transform="translate(172.887 99.568)">
        <path id="Trazado_182212" data-name="Trazado 182212" d="M411.874,205.366l.041,14.529-1.072.619L410.8,206.6l-55.759,32.191.04,13.913-1.064.614-.039-13.913L298.225,271.6l.039,13.912-1.063.614-.041-13.912v-1.232l56.821-32.807-.03-10.74,1.064-.614.031,10.74,56.829-32.81Z" transform="translate(-297.158 -204.75)" fill="#1d1f38" fill-rule="evenodd"/>
      </g>
      <g id="Grupo_121319" data-name="Grupo 121319" transform="translate(268.972 105.435)">
        <path id="Trazado_182213" data-name="Trazado 182213" d="M552.312,218.512c1.112-.642,2.016-.126,2.02,1.142l.02,7.148a4.418,4.418,0,0,1-2.007,3.468l-32.256,18.624c-1.112.642-2.016.126-2.02-1.142l-.021-7.148a4.424,4.424,0,0,1,2.008-3.468l15.592-9,1.072-.619Zm-1.038,9.554a1.954,1.954,0,0,0,.882-1.528c0-.569-.4-.8-.889-.515L521.14,243.417a1.956,1.956,0,0,0-.883,1.538c0,.559.4.788.889.506Zm-25.5,8.592a1.947,1.947,0,0,0-.883,1.528c0,.568.4.8.888.515l20.839-12.031a1.953,1.953,0,0,0,.882-1.536c0-.561-.4-.788-.887-.506Z" transform="translate(-518.048 -218.236)" fill="#df8817" fill-rule="evenodd"/>
      </g>
      <g id="Grupo_121320" data-name="Grupo 121320" transform="translate(275.814 111.704)">
        <path id="Trazado_182214" data-name="Trazado 182214" d="M555.5,232.77c.487-.282.886-.054.887.507a1.951,1.951,0,0,1-.882,1.536l-20.838,12.03c-.487.283-.886.055-.888-.515a1.947,1.947,0,0,1,.883-1.528Z" transform="translate(-533.779 -232.649)" fill="#fff" fill-rule="evenodd"/>
      </g>
      <g id="Grupo_121321" data-name="Grupo 121321" transform="translate(271.181 113.101)">
        <path id="Trazado_182215" data-name="Trazado 182215" d="M554.137,235.98c.488-.281.887-.054.889.516a1.955,1.955,0,0,1-.882,1.528l-30.128,17.394c-.488.282-.888.054-.889-.506a1.959,1.959,0,0,1,.883-1.538Z" transform="translate(-523.127 -235.86)" fill="#fff" fill-rule="evenodd"/>
      </g>
      <g id="Grupo_121322" data-name="Grupo 121322" transform="translate(229.784 159.282)">
        <path id="Trazado_182216" data-name="Trazado 182216" d="M427.983,351.037l-.024-8.4,1.063-.613.024,8.4Z" transform="translate(-427.959 -342.026)" fill="#1d1f38" fill-rule="evenodd"/>
      </g>
      <g id="Grupo_121323" data-name="Grupo 121323" transform="translate(214.351 145.907)">
        <path id="Trazado_182217" data-name="Trazado 182217" d="M423.5,311.4c.489-.283.886-.053.889.515a1.956,1.956,0,0,1-.883,1.529l-30.128,17.393c-.5.286-.895.059-.9-.5a1.962,1.962,0,0,1,.891-1.543Z" transform="translate(-392.48 -311.277)" fill="#fff" fill-rule="evenodd"/>
      </g>
      <g id="Grupo_121324" data-name="Grupo 121324" transform="translate(212.151 138.24)">
        <path id="Trazado_182218" data-name="Trazado 182218" d="M421.686,293.929c1.113-.642,2.017-.127,2.021,1.142l.02,7.148a4.418,4.418,0,0,1-2.009,3.467l-15.6,9.008-1.063.613-15.591,9c-1.113.642-2.017.127-2.021-1.142l-.02-7.148a4.423,4.423,0,0,1,2.007-3.468l15.593-9,1.064-.614Zm-1.038,9.555a1.954,1.954,0,0,0,.883-1.529c0-.57-.4-.8-.889-.515l-30.128,17.393a1.962,1.962,0,0,0-.891,1.543c0,.56.4.787.9.5Zm-25.5,8.591a1.954,1.954,0,0,0-.891,1.532c0,.568.4.8.9.51l20.829-12.027a1.943,1.943,0,0,0,.89-1.541c0-.56-.4-.787-.9-.5Z" transform="translate(-387.423 -293.652)" fill="#df8817" fill-rule="evenodd"/>
      </g>
      <g id="Grupo_121325" data-name="Grupo 121325" transform="translate(218.985 144.512)">
        <path id="Trazado_182219" data-name="Trazado 182219" d="M424.854,308.2c.495-.286.894-.058.9.5a1.946,1.946,0,0,1-.89,1.542L404.03,322.264c-.5.287-.894.06-.9-.51a1.955,1.955,0,0,1,.89-1.532Z" transform="translate(-403.133 -308.071)" fill="#fff" fill-rule="evenodd"/>
      </g>
      <g id="Grupo_121326" data-name="Grupo 121326" transform="translate(218.878 106.86)">
        <path id="Trazado_182220" data-name="Trazado 182220" d="M424.609,221.636c.495-.286.894-.058.9.511a1.95,1.95,0,0,1-.889,1.532l-20.83,12.026c-.5.286-.895.059-.9-.5a1.954,1.954,0,0,1,.89-1.542Z" transform="translate(-402.888 -221.512)" fill="#fff" fill-rule="evenodd"/>
      </g>
      <g id="Grupo_121327" data-name="Grupo 121327" transform="translate(214.244 108.263)">
        <path id="Trazado_182221" data-name="Trazado 182221" d="M423.254,224.859c.489-.281.888-.054.889.506a1.951,1.951,0,0,1-.883,1.528l-30.128,17.394c-.495.286-.894.06-.9-.5a1.957,1.957,0,0,1,.89-1.533Z" transform="translate(-392.235 -224.739)" fill="#fff" fill-rule="evenodd"/>
      </g>
      <g id="Grupo_121328" data-name="Grupo 121328" transform="translate(212.044 100.588)">
        <path id="Trazado_182222" data-name="Trazado 182222" d="M421.442,207.37c1.111-.642,2.016-.127,2.019,1.151l.021,7.139a4.421,4.421,0,0,1-2.009,3.476l-15.6,9.007-1.064.615-15.591,9c-1.113.642-2.017.127-2.021-1.151l-.02-7.139a4.421,4.421,0,0,1,2.008-3.477Zm-1.039,9.554a1.953,1.953,0,0,0,.883-1.528c0-.56-.4-.787-.889-.506l-30.128,17.394a1.956,1.956,0,0,0-.89,1.533c0,.561.4.787.9.5Zm-25.5,8.591a1.956,1.956,0,0,0-.89,1.542c0,.56.4.787.9.5l20.829-12.027a1.945,1.945,0,0,0,.891-1.532c0-.569-.4-.8-.9-.511Z" transform="translate(-387.177 -207.094)" fill="#64ae44" fill-rule="evenodd"/>
      </g>
      <g id="Grupo_121329" data-name="Grupo 121329" transform="translate(155.422 206.352)">
        <path id="Trazado_182223" data-name="Trazado 182223" d="M257.765,481.1a.786.786,0,0,1-.073-.03m.073.03a.786.786,0,0,1-.073-.03h0a1.355,1.355,0,0,1-.665-1.323l-.01-3.567-.01-3.581v-.019c0-.075,0-.151.01-.227v-.009h0a4.472,4.472,0,0,1,2-3.213l5.053-2.917,0,0,10.536-6.082.009-.005,1.064-.615,10.4-6,5.2-3h0l.052-.029h0l.051-.028.051-.026h0l.05-.024.05-.022.05-.021h0l.05-.02.05-.018.049-.016.048-.014.048-.013h0l.047-.011h0l.047-.01.047-.008h0l.046-.007.045,0,.045,0,.044,0h.087l.042,0h0l.041,0h0l.041.006.04.007h0l.04.009.039.01h0l.038.012h0l.037.013h0l.036.014h0l.036.016h0l.034.017h0l.035.019.034.02h0c.022.013.044.028.065.044h0a1.476,1.476,0,0,1,.5,1.224l.02,7.148a3.248,3.248,0,0,1-.089.735h0l-.015.062h0l-.017.062h0c-.017.063-.036.125-.055.188h0l-.02.062h0l-.044.125-.024.062h0l-.024.062h0l-.026.062-.027.062h0l-.027.061h0l-.029.061-.029.061h0l-.031.06h0l-.031.06-.032.06-.033.059h0l-.033.059-.035.059-.035.058-.036.057-.037.057-.037.057-.038.056-.04.055-.04.055-.04.054-.041.054-.042.052-.043.052-.043.051-.043.05-.044.05h0l-.044.048-.046.047-.046.047-.046.046-.047.044-.047.044-.048.042-.048.042-.049.041-.05.04-.05.038-.05.037h0l-.05.035h0l-.051.034-.051.034-.052.032h0l-.052.031h0l-32.255,18.621h0l-.051.03h0l-.051.028h0l-.05.025h0l-.05.025h0l-.05.023h0l-.049.02h0l-.05.02h0l-.049.017h0l-.048.017h0l-.048.014h0l-.047.013h0l-.047.011h0l-.046.009h0l-.046.008h0l-.045.007h0l-.045.005h0l-.044,0h0l-.043,0h-.088l-.042,0h0l-.041,0h0l-.041-.005h0l-.039-.008h0l-.039-.009h0l-.039-.01h0l-.038-.011h0l-.037-.013Zm32.467-21.038a1.952,1.952,0,0,0,.883-1.529c0-.559-.387-.789-.865-.528h0l-.022.013-15.769,9.1-14.359,8.29a1.293,1.293,0,0,0-.156.106h0l-.02.017h0l-.042.036h0l-.062.057h0l-.02.02h0l-.019.02h0l-.02.021h0l-.038.043h0l-.019.021h0l-.037.045h0l-.017.023h0l-.017.023-.053.072h0l-.033.049h0l-.016.024h0l-.016.025h0l-.015.025h0l-.029.051h0l-.014.026h0l-.013.026h0l-.013.026h0l-.026.054h0l-.012.026-.035.082h0l-.01.027h0l-.01.027h0l-.019.055h0l-.009.027h0l-.008.027h0l-.007.028h0l-.007.028h0l-.007.027h0l-.006.028h0l-.007.027h0l-.005.027h0l0,.027h0l0,.028h0l0,.027h0l0,.027h0l0,.027,0,.027h0l0,.027v.027h0v.08h0v.026h0v.025h0l0,.025,0,.024h0l0,.023h0l0,.023,0,.023,0,.022,0,.021h0l.006.021.006.02.007.02.007.019.008.019.008.019h0l.009.018.009.016h0l.009.017h0l.01.016h0l.01.015h0l.023.03.012.013h0l.037.037h0a.445.445,0,0,0,.071.051l.014.008h0l.016.007h0l.015.008h0l.015.006h0l.016.006h0l.016.006h0l.017,0h0l.017,0h0l.017,0h0l.017,0h0l.017,0h.1l.019,0h0l.019,0h0l.02,0h0l.02,0h0l.02-.005h0l.02-.005h0l.02-.007h0l.02-.007h0l.021-.008.022-.009h0l.021-.009h0l.021-.01h0l.022-.011h0l.021-.011h0l.022-.013h0l.022-.013Zm-25.5,8.592a1.949,1.949,0,0,0-.883,1.528,1.035,1.035,0,0,0,.018.2h0l0,.022h0l.005.021h0l.005.021h0l.013.041h0l.007.019h0l.007.019h0l.008.018h0l.009.018h0l.009.017h0l.009.016h0l.01.016.011.016h0l.011.015.011.014h0l.011.013h0l.012.013h0l.013.012h0l.013.012.014.011.014.011.014.01.015.01.014.009.015.008.016.008.016.007h0l.016.006h0l.017.006.017,0,.017,0,.017,0,.018,0h0l.018,0,.019,0h.1l.02,0h0l.02,0h0l.02,0h0l.02,0h0l.02,0h0l.02-.005h0l.021-.006h0l.021-.007h0l.022-.007h0l.021-.008h0l.021-.009h0l.022-.01h0l.022-.01h0c.022-.011.044-.022.067-.037l20.838-12.031a1.966,1.966,0,0,0,.88-1.456h0l0-.081a.84.84,0,0,0-.07-.356l-.008-.017h0a.549.549,0,0,0-.062-.094l-.011-.013h0l-.012-.013h0l-.012-.012h0l-.012-.011h0l-.027-.022h0l-.013-.01h0l-.013-.009h0l-.014-.008h0l-.015-.008h0l-.015-.007h0l-.015-.007h0l-.015-.006h0l-.016-.006h0l-.017-.006h0l-.017,0h0l-.017,0h0l-.017,0h0l-.017,0h0l-.017,0h-.038a.579.579,0,0,0-.12.011h0l-.02,0h0l-.02,0h0l-.02.006h0l-.02.006h0l-.02.007h0l-.021.007-.022.008h0l-.021.01h0l-.022.01h0l-.021.011h0l-.021.011h0l-.022.012h0l-.022.013Z" transform="translate(-257.007 -450.235)" fill="#64ae44" fill-rule="evenodd"/>
      </g>
      <g id="Grupo_121330" data-name="Grupo 121330" transform="translate(162.264 212.622)">
        <path id="Trazado_182224" data-name="Trazado 182224" d="M294.457,464.77c.487-.281.887-.053.888.507a1.953,1.953,0,0,1-.882,1.538l-20.838,12.029c-.488.281-.887.055-.889-.515a1.949,1.949,0,0,1,.883-1.528Z" transform="translate(-272.736 -464.65)" fill="#fff" fill-rule="evenodd"/>
      </g>
      <g id="Grupo_121331" data-name="Grupo 121331" transform="translate(157.63 214.014)">
        <path id="Trazado_182225" data-name="Trazado 182225" d="M293.094,467.974c.5-.286.894-.057.9.512a1.954,1.954,0,0,1-.89,1.532l-30.128,17.394c-.487.281-.886.054-.889-.506a1.957,1.957,0,0,1,.883-1.538Z" transform="translate(-262.083 -467.85)" fill="#fff" fill-rule="evenodd"/>
      </g>
      <g id="Grupo_121332" data-name="Grupo 121332" transform="translate(155.321 171.05)">
        <path id="Trazado_182226" data-name="Trazado 182226" d="M292.992,378.383c-.015.063-.031.125-.049.188l-.018.063h0l-.02.063-.021.062h0l-.021.062h0l-.047.124h0c-.024.062-.05.124-.076.186l-.028.061-.028.061h0l-.06.121h0l-.031.059h0l-.032.06h0l-.033.059h0l-.034.059h0l-.034.058h0l-.035.058h0l-.036.057h0l-.037.057h0l-.037.056-.039.056-.039.055h0l-.04.055-.04.054h0l-.041.053h0l-.041.053h0l-.042.052h0l-.042.051h0l-.044.05h0l-.043.049h0l-.09.1h0a3.352,3.352,0,0,1-.737.587l-6.48,3.742h0l-6.845,3.953-18.93,10.93-.052.029-.052.027h0l-.051.026h0l-.051.023h0l-.051.022-.05.021-.05.019h0l-.05.018h0l-.049.015h0l-.049.014h0l-.048.013h0l-.047.01h0l-.094.018h0l-.046.006c-.03,0-.06.007-.09.008l-.044,0h-.087a1.091,1.091,0,0,1-.126-.012h0l-.04-.007h0l-.04-.008h0l-.039-.01h0l-.038-.012h0l-.038-.012h0a1,1,0,0,1-.144-.066h0l-.033-.02h0l-.034-.021h0l-.032-.022h0l-.031-.024-.031-.025h0l-.029-.027h0l-.028-.028-.028-.03h0l-.027-.03h0l-.026-.032-.025-.034-.024-.035-.023-.036h0l-.022-.037h0l-.02-.039-.02-.04-.019-.041-.017-.042-.017-.044h0l-.016-.044h0l-.027-.094c-.013-.048-.023-.1-.033-.149h0a2.451,2.451,0,0,1-.033-.389l-.02-7.148v-.06l0-.06h0l0-.06,0-.061h0l.006-.061.007-.061.008-.061.01-.062h0l.01-.062h0c.011-.062.023-.124.038-.187h0l.031-.125h0l.017-.063h0l.018-.063h0c.019-.063.039-.125.061-.188h0l.023-.062h0a4.835,4.835,0,0,1,.247-.553h0a4.9,4.9,0,0,1,.355-.578h0a4.577,4.577,0,0,1,.336-.417,3.532,3.532,0,0,1,.828-.683l15.592-9,.974-.562.1-.057,1.956-1.13,13.636-7.872.052-.029h0l.052-.027h0l.052-.026h0l.05-.024h0l.051-.022h0l.05-.02h0l.05-.019h0l.049-.017h0l.05-.015h0l.049-.014h0l.048-.013h0l.047-.01h0l.047-.009h0l.047-.008h0l.046-.006.046,0h0l.045,0,.044,0H292l.042,0h0l.042,0,.041.006h0l.041.006h0l.039.009h0l.04.01h0l.038.011.038.013h0l.037.014h0l.037.016.035.017h0l.035.018h0l.034.02h0l.033.021.032.023.031.025h0l.03.025h0l.03.026h0l.028.028h0l.027.029h0l.027.031h0l.026.032h0l.025.033h0l.024.035h0l.023.035h0l.022.037h0l.021.038h0l.02.04h0l.019.04h0l.018.042h0l.017.044.015.045h0l.015.046h0l.013.047h0l.012.049.011.05h0l.009.05h0l.009.052h0l.007.053h0l.006.054h0l0,.055h0l0,.056h0l0,.057h0v.059h0l.02,7.147h0v.06l0,.06h0l0,.06h0l0,.06-.006.061-.007.062h0l-.008.061h0l-.01.062-.01.062h0l-.011.062-.013.062-.014.063Z" transform="translate(-256.776 -369.08)" fill="#df8817" fill-rule="evenodd"/>
      </g>
      <g id="Grupo_121333" data-name="Grupo 121333" transform="translate(188.08 69.679)">
        <path id="Trazado_182227" data-name="Trazado 182227" d="M416.192,137.466c0-1.278-.907-1.793-2.011-1.156l-80.088,46.238a4.425,4.425,0,0,0-2.007,3.476l.02,7.139c0,1.278.908,1.793,2.021,1.152l80.086-46.239a4.416,4.416,0,0,0,2-3.472Z" transform="translate(-332.085 -136.037)" fill="#fc6e3d" fill-rule="evenodd"/>
      </g>
      <g id="Grupo_121334" data-name="Grupo 121334" transform="translate(191.569 43.126)">
        <path id="Trazado_182228" data-name="Trazado 182228" d="M445.284,75.133c.552-.319,1.008-.068,1.01.576l.009,3a2.224,2.224,0,0,1-1,1.738L341.117,140.592c-.552.319-1,.054-1-.58l-.009-3a2.2,2.2,0,0,1,1-1.734Z" transform="translate(-340.106 -74.995)" fill="#fff" fill-rule="evenodd"/>
      </g>
      <g id="Grupo_121335" data-name="Grupo 121335" transform="translate(168.397 116.132)">
        <path id="Trazado_182229" data-name="Trazado 182229" d="M288.915,243.114c1.154-.665,2.091-.132,2.1,1.193a4.582,4.582,0,0,1-2.081,3.6c-1.153.666-2.09.132-2.093-1.194a4.584,4.584,0,0,1,2.079-3.6" transform="translate(-286.836 -242.828)" fill="#fc6e3d" fill-rule="evenodd"/>
      </g>
      <g id="Grupo_121336" data-name="Grupo 121336" transform="translate(157.921 122.18)">
        <path id="Trazado_182230" data-name="Trazado 182230" d="M264.833,257.018c1.154-.666,2.091-.131,2.094,1.194a4.578,4.578,0,0,1-2.081,3.6c-1.152.667-2.09.133-2.094-1.193a4.586,4.586,0,0,1,2.08-3.6" transform="translate(-262.753 -256.732)" fill="#64ae44" fill-rule="evenodd"/>
      </g>
      <g id="Grupo_121337" data-name="Grupo 121337" transform="translate(147.446 128.232)">
        <path id="Trazado_182231" data-name="Trazado 182231" d="M240.75,270.928c1.145-.662,2.083-.127,2.086,1.2a4.582,4.582,0,0,1-2.072,3.6c-1.154.665-2.091.131-2.094-1.193a4.582,4.582,0,0,1,2.079-3.6" transform="translate(-238.671 -270.645)" fill="#df8817" fill-rule="evenodd"/>
      </g>
      <g id="Grupo_121338" data-name="Grupo 121338" transform="translate(156.533 177.323)">
        <path id="Trazado_182232" data-name="Trazado 182232" d="M287.663,384.76h0c.015-.037.029-.074.042-.11h0a1.593,1.593,0,0,0,.1-.525.727.727,0,0,0-.141-.466h0l-.012-.013h0a.57.57,0,0,0-.742-.021l-20.83,12.026h0l-.023.013-.022.014h0l-.022.014h0l-.022.015h0l-.021.014h0l-.021.016h0l-.042.033h0l-.02.016,0,0-.019.017h0a1.975,1.975,0,0,0-.659,1.368c0,.506.318.743.732.588l.02-.007h0l.02-.008h0l.02-.009h0l.021-.01h0l.022-.011h0l.023-.012.023-.013,20.829-12.027a1.913,1.913,0,0,0,.753-.906M291.8,386.9a1.978,1.978,0,0,0,.659-1.366c0-.5-.308-.735-.711-.6l-.019.007h0l-.019.007h0l-.019.008h0l-.021.009h0l-.02.01h0l-.021.01h0l-.045.025-2.659,1.535-4.875,2.813-.387.224-3.32,1.917-18.887,10.9a1.951,1.951,0,0,0-.882,1.538c0,.5.317.732.729.582h0l.02-.008h0l.02-.008h0l.02-.01h0l.021-.01h0l.022-.011h0l.022-.012h0l.023-.013h0l25.684-14.828,4.445-2.567a1.3,1.3,0,0,0,.134-.089l0,0,.02-.015,0,0,.019-.015,0,0,.019-.015,0,0,.018-.016Zm-32.147,21.255c-.031,0-.061.007-.09.008" transform="translate(-259.562 -383.499)" fill="#fff" fill-rule="evenodd"/>
      </g>
      <g id="Grupo_121339" data-name="Grupo 121339" transform="translate(172.998 134.869)">
        <path id="Trazado_182233" data-name="Trazado 182233" d="M298.48,352.744v.006l.039,13.912-1.063.614-.041-13.912v-.617l1.063-.613v-.006l-1.063.613v-.614l4.377-2.528v0l52.431-30.271,1.063-.614,56.83-32.811,0,1.231.04,13.913-1.072.62-.039-13.913L355.29,319.944l-1.063.614L340.82,328.3h0Z" transform="translate(-297.413 -285.902)" fill="#1d1f38" fill-rule="evenodd"/>
      </g>
      <g id="Grupo_121340" data-name="Grupo 121340" transform="translate(136.381 261.997)" opacity="0.2">
        <path id="Trazado_182234" data-name="Trazado 182234" d="M391.159,579.83,216.138,680.878c-3.5,2.019-3.5,2.019-1.782,3.008,1.785,1.031,1.785,1.031,5.29-.993l174.972-101.02c3.5-2.019,3.5-2.019,1.565-3.134-1.569-.906-1.569-.906-5.025,1.09" transform="translate(-213.234 -578.157)" fill="#ffb600" fill-rule="evenodd"/>
      </g>
      <g id="Grupo_121341" data-name="Grupo 121341" transform="translate(138.847 336.833)" opacity="0.2">
        <path id="Trazado_182235" data-name="Trazado 182235" d="M254.849,750.2c19.852,0,35.946,9.29,35.946,20.749S274.7,791.7,254.849,791.7s-35.946-9.29-35.946-20.75S235,750.2,254.849,750.2" transform="translate(-218.903 -750.2)" fill-rule="evenodd"/>
      </g>
      <g id="Grupo_121342" data-name="Grupo 121342" transform="translate(169.574 208.365)">
        <path id="Trazado_182236" data-name="Trazado 182236" d="M300.993,461.86s-1.743-7.488,4.454-6.971,6.262,9.037,4.2,12.007a6.842,6.842,0,0,1-5.229,2.97s1.678,1.679.839,5.423-2.905,4.261-2.905,4.261-1.614-4.519-3.809-2.969,1.355,5.165,1.355,5.165a11.762,11.762,0,0,0,.71,3.615,6.091,6.091,0,0,0,1.227,2s-4.648-1.162-6.391-2.518S288.6,474.514,289.7,471.48s2.259-3.293,2.259-3.293-.71-3.938,2.454-5.488a11.367,11.367,0,0,1,6.585-.839" transform="translate(-289.542 -454.863)" fill="#513024" fill-rule="evenodd"/>
      </g>
      <g id="Grupo_121343" data-name="Grupo 121343" transform="translate(177.855 221.472)">
        <path id="Trazado_182237" data-name="Trazado 182237" d="M319.487,485a13.94,13.94,0,0,1,2.269,8.287c-.323,7.424-4.649,11.169-5.746,11.3a19.453,19.453,0,0,1-3.422-.194h0v0l0,0-.216-.241a7.758,7.758,0,0,1-1-1.754,11.763,11.763,0,0,1-.71-3.615s-3.55-3.616-1.355-5.165,3.809,2.969,3.809,2.969,2.067-.516,2.905-4.261-.839-5.423-.839-5.423a6.789,6.789,0,0,0,4.316-1.9" transform="translate(-308.579 -484.995)" fill="#f7a772" fill-rule="evenodd"/>
      </g>
      <g id="Grupo_121344" data-name="Grupo 121344" transform="translate(175.241 238.695)">
        <path id="Trazado_182238" data-name="Trazado 182238" d="M309.186,526.75l-.211-.235a2.524,2.524,0,0,0,.211.235m-5.866-2.161-.75,2.017a71.7,71.7,0,0,1,7.359,2.709l.163-2.451c-.522-.054-.9-.107-.9-.107A28.018,28.018,0,0,1,303.32,524.589Z" transform="translate(-302.57 -524.589)" fill="#e88848" fill-rule="evenodd"/>
      </g>
      <g id="Grupo_121345" data-name="Grupo 121345" transform="translate(157.477 240.515)">
        <path id="Trazado_182239" data-name="Trazado 182239" d="M290.218,535.414s-2.131-.9-8.586-3.55-9.555-3.422-11.62-2.97-5.553,7.423-7.231,23.433a199.582,199.582,0,0,0-.84,29.6,10.5,10.5,0,0,0,2.163,3.1,8.532,8.532,0,0,0,2.356,1.969l2.324-5.487,1.679,7.618s6.424,2.807,12.428.547,8.2-5.875,8.2-5.875a93.311,93.311,0,0,1-2-19.5c.194-9.749,3.746-15.885,4.908-21.437a6.4,6.4,0,0,0-3.778-7.448" transform="translate(-261.731 -528.773)" fill="#71787e" fill-rule="evenodd"/>
      </g>
      <g id="Grupo_121346" data-name="Grupo 121346" transform="translate(162.635 293.247)">
        <path id="Trazado_182240" data-name="Trazado 182240" d="M273.589,654.476a9.577,9.577,0,0,0,1.93,1.036c.384.15.813.29,1.272.419L275.484,650Z" transform="translate(-273.589 -650)" fill="#a8c2cf" fill-rule="evenodd"/>
      </g>
      <g id="Grupo_121347" data-name="Grupo 121347" transform="translate(183.66 234.553)">
        <path id="Trazado_182241" data-name="Trazado 182241" d="M323.878,529.335c1.485-2.712,8.2-6.2,12.2-9.1s6.262-5.164,8.263-5.164,4.777,2.647,2.066,7.488-16.2,16.333-18.916,17.818-4.648,1.033-5.423-2.453,1.808-8.586,1.808-8.586" transform="translate(-321.925 -515.068)" fill="#61686e" fill-rule="evenodd"/>
      </g>
      <g id="Grupo_121348" data-name="Grupo 121348" transform="translate(202.199 201.083)">
        <path id="Trazado_182242" data-name="Trazado 182242" d="M364.544,473.444a59.138,59.138,0,0,1,3.3-9.469,141.21,141.21,0,0,0,5.165-13.557s-2.582-2.485-2.743-4.809-.225-3.68.129-3.874,1.194.033,1.678,1.485a3.64,3.64,0,0,0,1.9,2.034s.775-2.808-.031-4.293-1.582-1.647-1.646-2.292,2.228-.807,3.647,0,4.907,2.582,4.487,7.1-2.034,5.553-2.034,5.553-3.42,18.2-5.034,22.787a19.885,19.885,0,0,1-4.581,7.34,16.793,16.793,0,0,0,1.705-2.369c2.711-4.841-.065-7.488-2.066-7.488-1.124,0-2.329.712-3.879,1.851" transform="translate(-364.544 -438.122)" fill="#e88848" fill-rule="evenodd"/>
      </g>
      <g id="Grupo_121349" data-name="Grupo 121349" transform="translate(202.199 212.855)">
        <path id="Trazado_182243" data-name="Trazado 182243" d="M364.544,488.735a59.141,59.141,0,0,1,3.3-9.469,141.211,141.211,0,0,0,5.165-13.557,4.568,4.568,0,0,1,2.749-.489,4.385,4.385,0,0,1,2.644,1.394s-3.42,18.2-5.034,22.787a19.885,19.885,0,0,1-4.581,7.34,16.789,16.789,0,0,0,1.705-2.369c2.711-4.841-.065-7.488-2.066-7.488-1.124,0-2.329.712-3.879,1.851" transform="translate(-364.544 -465.185)" fill="#a8c2cf" fill-rule="evenodd"/>
      </g>
      <g id="Grupo_121350" data-name="Grupo 121350" transform="translate(202.199 215.392)">
        <path id="Trazado_182244" data-name="Trazado 182244" d="M364.544,492.03a59.142,59.142,0,0,1,3.3-9.469c1.71-3.7,3.315-8.126,4.27-10.888a5.114,5.114,0,0,1,3.386-.544,4.676,4.676,0,0,1,2.408,1.353c-1.006,5.187-3.3,16.7-4.541,20.214a19.885,19.885,0,0,1-4.581,7.34,16.789,16.789,0,0,0,1.705-2.369c2.711-4.841-.065-7.488-2.066-7.488-1.124,0-2.329.712-3.879,1.851" transform="translate(-364.544 -471.017)" fill="#71787e" fill-rule="evenodd"/>
      </g>
      <g id="Grupo_121351" data-name="Grupo 121351" transform="translate(172.501 240.393)">
        <path id="Trazado_182245" data-name="Trazado 182245" d="M296.271,529.842c.466-.645,1.035-1.316,1.4-1.348.71-.065,9.361,2.97,9.943,3.744a4.934,4.934,0,0,1,.347,2.276c-1.331-.554-3.5-1.452-6.812-2.809-1.9-.777-3.5-1.393-4.877-1.864" transform="translate(-296.271 -528.493)" fill="#61686e" fill-rule="evenodd"/>
      </g>
      <g id="Grupo_121352" data-name="Grupo 121352" transform="translate(207.333 203.141)">
        <path id="Trazado_182246" data-name="Trazado 182246" d="M388.64,450.456l-11.027-6.049-1.267-1.552,1.887.275,11.027,6.049a.74.74,0,0,1-.62,1.277" transform="translate(-376.346 -442.854)" fill="#313459" fill-rule="evenodd"/>
      </g>
      <g id="Grupo_121353" data-name="Grupo 121353" transform="translate(145.816 240.737)">
        <path id="Trazado_182247" data-name="Trazado 182247" d="M254.564,529.289c-.259.127-4.494,2.291-10.184,11.422-5.874,9.426-9.488,17.493-9.456,19.591s4.279,4.292,8.424-1c1.746-2.23,3.121-3.911,4.129-5.108q.074-.785.157-1.578c1.6-15.258,4.841-22.306,6.93-23.326m.012-.006h0Z" transform="translate(-234.924 -529.283)" fill="#61686e" fill-rule="evenodd"/>
      </g>
      <g id="Grupo_121354" data-name="Grupo 121354" transform="translate(142.238 269.057)">
        <path id="Trazado_182248" data-name="Trazado 182248" d="M227.6,621.2s.8-19.693,2.066-23.241,4.971-4.841,7.36-2.066-2.9,23.821-2.9,23.821,2.358,2.452,2.487,3.775a16.115,16.115,0,0,1-.388,4.713c-.258.452-1.162.323-1.323-.839s-.032-2-.387-2.55-.645-.613-.645-.613a7.632,7.632,0,0,0-.194,3.549c.355,2,1.292,2.647.969,3.616s-4.616,2.807-5.907,2.13-2.066-3.583-2.034-6.488a24.233,24.233,0,0,1,.9-5.807" transform="translate(-226.699 -594.389)" fill="#e88848" fill-rule="evenodd"/>
      </g>
      <g id="Grupo_121355" data-name="Grupo 121355" transform="translate(143.138 269.057)">
        <path id="Trazado_182249" data-name="Trazado 182249" d="M228.768,621.2s.8-19.693,2.066-23.241,4.971-4.841,7.36-2.066-2.9,23.821-2.9,23.821a9.479,9.479,0,0,1-3.226,1.738,4.56,4.56,0,0,1-3.3-.252" transform="translate(-228.768 -594.389)" fill="#a8c2cf" fill-rule="evenodd"/>
      </g>
      <g id="Grupo_121356" data-name="Grupo 121356" transform="translate(143.37 269.057)">
        <path id="Trazado_182250" data-name="Trazado 182250" d="M229.3,616.347c.323-6.072.968-15.974,1.833-18.39,1.271-3.548,4.971-4.841,7.36-2.066,1.82,2.114-.817,14.832-2.177,20.77a10.391,10.391,0,0,1-3.822.69,5.8,5.8,0,0,1-3.195-1Z" transform="translate(-229.302 -594.389)" fill="#71787e" fill-rule="evenodd"/>
      </g>
      <g id="Grupo_121357" data-name="Grupo 121357" transform="translate(164.23 295.538)">
        <path id="Trazado_182251" data-name="Trazado 182251" d="M277.257,658.347c.1,2.183.559,5.134,2.187,6.983a14.581,14.581,0,0,0,6.133,4.2s6.2,4.841,12.266,8.843,10.33,4.583,12.524,3.1,1.549-5.164-.258-8.327-10.247-17.874-10.247-17.874-2.195,3.615-8.2,5.875-12.428-.547-12.428-.547l-.371-1.687c-.46-.129-.888-.269-1.272-.419-.113-.045-.225-.091-.334-.14" transform="translate(-277.257 -655.265)" fill="#61686e" fill-rule="evenodd"/>
      </g>
      <g id="Grupo_121358" data-name="Grupo 121358" transform="translate(189.815 316.628)">
        <path id="Trazado_182252" data-name="Trazado 182252" d="M337.684,709.077c-.771,2.976-1.824,7.81-1.572,11.2.387,5.23,4.067,16.721,4.067,16.721s-1.386,2.065-.837,3.647,3.357,7.327,4.455,7.65,10.3-3.26,14.106-8.812,4-8.779,3.551-10.006a3.2,3.2,0,0,0-2.13-1.872c-.323,0-4.326,4.842-7.942,5.81s-4.583.517-4.583.517-.709-20.917-.773-25.178-1.331-5.006-1.331-5.006h0c.571,2.145.374,4.118-1.094,5.111-1.283.868-3.272,1.029-5.915.215" transform="translate(-336.074 -703.751)" fill="#71787e" fill-rule="evenodd"/>
      </g>
      <g id="Grupo_121359" data-name="Grupo 121359" transform="translate(192.954 340.485)">
        <path id="Trazado_182253" data-name="Trazado 182253" d="M344.257,767.99s-1.386,2.065-.837,3.647,3.357,7.327,4.455,7.65,10.3-3.26,14.106-8.812,4-8.779,3.551-10.007a3.2,3.2,0,0,0-2.13-1.872c-.323,0-4.326,4.842-7.942,5.81s-4.583.517-4.583.517a6.161,6.161,0,0,1-3,3.162,3.951,3.951,0,0,1-3.622-.1" transform="translate(-343.291 -758.596)" fill="#313459" fill-rule="evenodd"/>
      </g>
      <g id="Grupo_121360" data-name="Grupo 121360" transform="translate(158.545 293.247)">
        <path id="Trazado_182254" data-name="Trazado 182254" d="M264.188,651.931a20.8,20.8,0,0,0,.621,5.376c1.227,4.583,2.84,5.745,2.84,5.745s-.515,23.078.647,25.66,5.455,2.9,7.038-1.034c1.065-2.65,4.7-12.115,6.969-18.021-2.446-1.808-4.11-3.108-4.11-3.108a14.581,14.581,0,0,1-6.133-4.2c-1.627-1.849-2.089-4.8-2.187-6.983l-.027-.012h0l-.027-.012,0,0-.022-.01-.01,0-.017-.008-.015-.007-.012-.006-.02-.009-.007,0-.025-.011h0l-.027-.013,0,0-.024-.01-.008,0-.018-.009-.013-.006-.013-.006-.018-.009-.009,0-.023-.012h0l-.026-.013h0l-.024-.012-.007,0-.019-.009-.012-.007-.015-.007-.016-.009-.01,0-.021-.011,0,0-.025-.013h0l-.025-.013-.005,0-.021-.01-.01-.006-.016-.008-.015-.008-.011-.006-.019-.01-.007,0-.024-.013h0l-.026-.014,0,0-.022-.012-.009,0-.017-.01-.013-.008-.012-.006-.017-.01-.007,0-.023-.013h0l-.025-.014h0l-.023-.013-.007,0-.017-.011-.012-.006-.013-.008-.017-.009-.008-.005-.021-.012,0,0-.025-.015h0l-.024-.014-.005,0-.019-.012-.01-.006-.014-.009-.015-.009-.01-.006-.019-.011-.005,0-.023-.014h0l-.024-.014,0,0-.02-.013-.008-.005-.016-.009-.013-.008-.011-.007-.017-.01-.006,0-.022-.014h0l-.023-.015,0,0-.02-.013-.007,0-.017-.011-.012-.007-.011-.008-.016-.01-.008-.005-.02-.013,0,0-.023-.015h0l-.022-.014-.006,0-.017-.011-.01-.007-.013-.009-.015-.01-.008-.006-.018-.013,0,0-.023-.016L270.172,650l-2.324,5.487a8.53,8.53,0,0,1-2.356-1.969,12.891,12.891,0,0,1-1.3-1.587" transform="translate(-264.187 -650)" fill="#61686e" fill-rule="evenodd"/>
      </g>
      <g id="Grupo_121361" data-name="Grupo 121361" transform="translate(140.756 328.373)">
        <path id="Trazado_182255" data-name="Trazado 182255" d="M228.41,753.831s5.747-14.527,9.813-18.723,8.457-5.681,11.427-3.034-.775,6.779-4.971,11.621-10.588,14.267-10.588,14.267.58,7.23,3.615,8.908,5.617,1,5.907,1.679-.447,2.97-2.352,4a12.805,12.805,0,0,1-12.393-1.227c-4.778-3.422-6.069-8.522-5.423-10.911s4.964-6.582,4.964-6.582" transform="translate(-223.291 -730.751)" fill="#71787e" fill-rule="evenodd"/>
      </g>
      <g id="Grupo_121362" data-name="Grupo 121362" transform="translate(140.756 351.453)">
        <path id="Trazado_182256" data-name="Trazado 182256" d="M234.092,787.94s.58,7.23,3.615,8.908,5.617,1,5.907,1.679-.447,2.97-2.352,4a12.806,12.806,0,0,1-12.393-1.227c-4.778-3.422-6.069-8.522-5.423-10.911s4.964-6.582,4.964-6.582A8.535,8.535,0,0,1,231.421,785a9.007,9.007,0,0,1,2.671,2.938" transform="translate(-223.291 -783.81)" fill="#313459" fill-rule="evenodd"/>
      </g>
      <g id="Grupo_121363" data-name="Grupo 121363" transform="translate(140.756 358.178)">
        <path id="Trazado_182257" data-name="Trazado 182257" d="M243.114,809.408a4.814,4.814,0,0,1-1.852,1.856,12.806,12.806,0,0,1-12.393-1.227c-4.265-3.055-5.751-7.447-5.562-10.053a2.929,2.929,0,0,1,2.954-.536c3.809,1.227,4.584,10.329,10.652,11.362a8.147,8.147,0,0,0,6.2-1.4" transform="translate(-223.291 -799.269)" fill="#252848" fill-rule="evenodd"/>
      </g>
      <g id="Grupo_121364" data-name="Grupo 121364" transform="translate(275.518 297.092)" opacity="0.2">
        <path id="Trazado_182258" data-name="Trazado 182258" d="M627.165,658.839,533.1,713.148l62.711,36.206,94.066-54.309Z" transform="translate(-533.099 -658.839)" fill="#ffb600" fill-rule="evenodd"/>
      </g>
      <g id="Grupo_121365" data-name="Grupo 121365" transform="translate(338.23 278.989)">
        <path id="Trazado_182259" data-name="Trazado 182259" d="M760.881,671.532l-83.614,48.275V665.5l83.615-48.275Z" transform="translate(-677.266 -617.223)" fill="#8baaba" fill-rule="evenodd"/>
      </g>
      <g id="Grupo_121366" data-name="Grupo 121366" transform="translate(285.971 297.093)">
        <path id="Trazado_182260" data-name="Trazado 182260" d="M557.128,713.149l52.259,30.172V689.012L557.128,658.84Z" transform="translate(-557.128 -658.84)" fill="#a8c2cf" fill-rule="evenodd"/>
      </g>
      <g id="Grupo_121367" data-name="Grupo 121367" transform="translate(279.43 275.985)">
        <path id="Trazado_182261" data-name="Trazado 182261" d="M542.091,628.41h0v3h0q-.015,2.262,3.881,4.512L593.048,663.1a14.684,14.684,0,0,0,15.631.032l78.485-45.313q3.889-2.246,3.888-4.5h0v-3h0q-.013,2.245-3.888,4.487l-78.485,45.313a14.684,14.684,0,0,1-15.631-.031L545.973,632.9q-3.88-2.24-3.882-4.5" transform="translate(-542.091 -610.315)" fill="#a8c2cf" fill-rule="evenodd"/>
      </g>
      <g id="Grupo_121368" data-name="Grupo 121368" transform="translate(279.43 242.032)">
        <path id="Trazado_182262" data-name="Trazado 182262" d="M624.405,534.523,546,579.791q-7.808,4.507-.025,9.013l47.075,27.179a14.684,14.684,0,0,0,15.631.031L687.164,570.7c5.181-2.991,5.18-6.009.023-8.986l-47.056-27.168a14.734,14.734,0,0,0-15.726-.025" transform="translate(-542.091 -532.261)" fill="#c8dce6" fill-rule="evenodd"/>
      </g>
      <g id="Grupo_121369" data-name="Grupo 121369" transform="translate(293.81 277.481)">
        <path id="Trazado_182263" data-name="Trazado 182263" d="M575.148,625.824l31.356,18.1,20.9-12.068-31.356-18.1Z" transform="translate(-575.148 -613.755)" fill="#fff" fill-rule="evenodd"/>
      </g>
      <g id="Grupo_121370" data-name="Grupo 121370" transform="translate(304.262 277.481)">
        <path id="Trazado_182264" data-name="Trazado 182264" d="M599.177,625.824l31.355,18.1,20.9-12.068-31.356-18.1Z" transform="translate(-599.177 -613.755)" fill="#fff" fill-rule="evenodd"/>
      </g>
      <g id="Grupo_121371" data-name="Grupo 121371" transform="translate(361.258 249.651)">
        <path id="Trazado_182265" data-name="Trazado 182265" d="M730.206,556.6l14.773,8.529,11.818-6.823-14.773-8.529Z" transform="translate(-730.206 -549.776)" fill="#df8817" fill-rule="evenodd"/>
      </g>
      <g id="Grupo_121372" data-name="Grupo 121372" transform="translate(373.075 246.239)">
        <path id="Trazado_182266" data-name="Trazado 182266" d="M757.374,541.932l14.773,8.529v3.412l-14.773-8.529Z" transform="translate(-757.373 -541.932)" fill="#f29e30" fill-rule="evenodd"/>
      </g>
      <g id="Grupo_121373" data-name="Grupo 121373" transform="translate(361.997 253.061)">
        <path id="Trazado_182267" data-name="Trazado 182267" d="M731.906,557.616l14.034,8.1v3.413l-14.034-8.1Z" transform="translate(-731.906 -557.616)" fill="#eef7fc" fill-rule="evenodd"/>
      </g>
      <g id="Grupo_121374" data-name="Grupo 121374" transform="translate(376.031 254.555)">
        <path id="Trazado_182268" data-name="Trazado 182268" d="M775.617,561.05l-11.448,6.609v3.413l11.448-6.609Z" transform="translate(-764.169 -561.05)" fill="#bcded0" fill-rule="evenodd"/>
      </g>
      <g id="Grupo_121375" data-name="Grupo 121375" transform="translate(361.258 246.239)">
        <path id="Trazado_182269" data-name="Trazado 182269" d="M730.207,548.755l14.773,8.529,11.817-6.823-14.773-8.529Z" transform="translate(-730.207 -541.932)" fill="#df8817" fill-rule="evenodd"/>
      </g>
      <g id="Grupo_121376" data-name="Grupo 121376" transform="translate(342.311 269.829)">
        <path id="Trazado_182270" data-name="Trazado 182270" d="M686.648,596.592a.175.175,0,0,0,.082.173l.676.515a.26.26,0,0,1-.081-.214.681.681,0,0,1,.279-.538.187.187,0,0,1,.167-.025l-.778-.326a.135.135,0,0,0-.136.014.508.508,0,0,0-.209.4" transform="translate(-686.648 -596.165)" fill="#9ce2fc" fill-rule="evenodd"/>
      </g>
      <g id="Grupo_121377" data-name="Grupo 121377" transform="translate(344.438 270.184)">
        <path id="Trazado_182271" data-name="Trazado 182271" d="M691.539,597.262v.288l.487-.281v-.288Z" transform="translate(-691.539 -596.981)" fill="#0f264d" fill-rule="evenodd"/>
      </g>
      <g id="Grupo_121378" data-name="Grupo 121378" transform="translate(342.836 269.936)">
        <path id="Trazado_182272" data-name="Trazado 182272" d="M688.56,596.432c4.357,2.45,6.479,3.74,10.81,6.241h0a.272.272,0,0,0-.287.024,1.05,1.05,0,0,0-.431.831.424.424,0,0,0,.106.315L688,597.64a.379.379,0,0,1-.148-.346,1.053,1.053,0,0,1,.431-.831A.28.28,0,0,1,688.56,596.432Z" transform="translate(-687.855 -596.409)" fill="#1a3d7a" fill-rule="evenodd"/>
      </g>
      <g id="Grupo_121379" data-name="Grupo 121379" transform="translate(353.633 276.17)">
        <path id="Trazado_182273" data-name="Trazado 182273" d="M712.676,611.627c0,.235.106.375.257.375l.916,0c-.03-.01-.049-.044-.049-.1a.277.277,0,0,1,.113-.218.064.064,0,0,1,.1.019h0l-.509-.8a.275.275,0,0,0-.107-.134l0,0h0a.271.271,0,0,0-.287.024,1.05,1.05,0,0,0-.431.831" transform="translate(-712.676 -610.741)" fill="#3765b3" fill-rule="evenodd"/>
      </g>
      <g id="Grupo_121380" data-name="Grupo 121380" transform="translate(355.022 277.319)">
        <path id="Trazado_182274" data-name="Trazado 182274" d="M715.869,613.463c0,.029.017.041.039.029a.094.094,0,0,0,.039-.075c0-.029-.017-.041-.039-.029a.1.1,0,0,0-.039.075" transform="translate(-715.869 -613.383)" fill="#fff" fill-rule="evenodd"/>
      </g>
      <g id="Grupo_121381" data-name="Grupo 121381" transform="translate(354.756 277.1)">
        <path id="Trazado_182275" data-name="Trazado 182275" d="M715.259,613.111c0,.072.037.109.087.1h.188a.039.039,0,0,1-.01-.029.094.094,0,0,1,.039-.075.023.023,0,0,1,.033,0l-.125-.2h0a.065.065,0,0,0-.1-.019.278.278,0,0,0-.113.218" transform="translate(-715.259 -612.879)" fill="#5b81c1" fill-rule="evenodd"/>
      </g>
      <g id="Grupo_121382" data-name="Grupo 121382" transform="translate(344.925 270.184)">
        <path id="Trazado_182276" data-name="Trazado 182276" d="M695.649,598.708V599l-2.991-1.727v-.288Z" transform="translate(-692.658 -596.981)" fill="#1a3d7a" fill-rule="evenodd"/>
      </g>
      <g id="Grupo_121383" data-name="Grupo 121383" transform="translate(344.314 270.04)">
        <path id="Trazado_182277" data-name="Trazado 182277" d="M691.253,597l.124.072.487-.281,2.991,1.727.125-.072-3.116-1.8Z" transform="translate(-691.253 -596.65)" fill="#3765b3" fill-rule="evenodd"/>
      </g>
      <g id="Grupo_121384" data-name="Grupo 121384" transform="translate(347.916 271.839)">
        <path id="Trazado_182278" data-name="Trazado 182278" d="M699.66,600.785l-.125.072v.288l.125-.072Z" transform="translate(-699.535 -600.785)" fill="#5b81c1" fill-rule="evenodd"/>
      </g>
      <g id="Grupo_121385" data-name="Grupo 121385" transform="translate(350.556 274.388)">
        <path id="Trazado_182279" data-name="Trazado 182279" d="M706.576,606.816l-.257-.149-.008,0a.277.277,0,0,0-.279.028,1.05,1.05,0,0,0-.431.831.381.381,0,0,0,.147.346h0l.25.144a.38.38,0,0,1-.147-.346,1.051,1.051,0,0,1,.431-.831.271.271,0,0,1,.291-.02l0-.006" transform="translate(-705.602 -606.644)" fill="#fff" fill-rule="evenodd"/>
      </g>
      <g id="Grupo_121386" data-name="Grupo 121386" transform="translate(342.311 270)">
        <path id="Trazado_182280" data-name="Trazado 182280" d="M686.648,596.814a.175.175,0,0,0,.082.173l.676.515a.26.26,0,0,1-.081-.214.7.7,0,0,1,.091-.33l-.694-.4a.534.534,0,0,0-.074.257" transform="translate(-686.648 -596.557)" fill="#3bbeef" fill-rule="evenodd"/>
      </g>
      <g id="Grupo_121387" data-name="Grupo 121387" transform="translate(342.836 270.335)">
        <path id="Trazado_182281" data-name="Trazado 182281" d="M698.78,603.56a1.081,1.081,0,0,0-.128.487.424.424,0,0,0,.106.315L688,598.159a.379.379,0,0,1-.148-.346,1.084,1.084,0,0,1,.129-.486Z" transform="translate(-687.855 -597.326)" fill="#0f264d" fill-rule="evenodd"/>
      </g>
      <g id="Grupo_121388" data-name="Grupo 121388" transform="translate(353.633 276.569)">
        <path id="Trazado_182282" data-name="Trazado 182282" d="M712.676,612.144c0,.235.106.375.257.375l.916,0c-.03-.009-.049-.043-.049-.1a.294.294,0,0,1,.053-.159l-1.048-.605a1.081,1.081,0,0,0-.128.487" transform="translate(-712.676 -611.657)" fill="#1a3d7a" fill-rule="evenodd"/>
      </g>
      <g id="Grupo_121389" data-name="Grupo 121389" transform="translate(355.022 277.322)">
        <path id="Trazado_182283" data-name="Trazado 182283" d="M715.869,613.466c0,.029.017.041.039.029a.094.094,0,0,0,.039-.075v-.012l-.033-.019,0,0a.094.094,0,0,0-.039.075" transform="translate(-715.869 -613.389)" fill="#fff" fill-rule="evenodd"/>
      </g>
      <g id="Grupo_121390" data-name="Grupo 121390" transform="translate(354.756 277.174)">
        <path id="Trazado_182284" data-name="Trazado 182284" d="M715.259,613.207c0,.072.037.109.087.1h.188a.038.038,0,0,1-.01-.029.093.093,0,0,1,.039-.075l0,0-.256-.148a.3.3,0,0,0-.053.159" transform="translate(-715.259 -613.048)" fill="#3765b3" fill-rule="evenodd"/>
      </g>
      <g id="Grupo_121391" data-name="Grupo 121391" transform="translate(350.556 274.791)">
        <path id="Trazado_182285" data-name="Trazado 182285" d="M705.728,607.57a1.09,1.09,0,0,0-.126.483.381.381,0,0,0,.147.346h0l.25.144a.38.38,0,0,1-.147-.346,1.086,1.086,0,0,1,.126-.483Z" transform="translate(-705.602 -607.57)" fill="#5b81c1" fill-rule="evenodd"/>
      </g>
      <g id="Grupo_121392" data-name="Grupo 121392" transform="translate(345.129 257.596)">
        <path id="Trazado_182286" data-name="Trazado 182286" d="M693.126,574.918,709,584.085l10.585-6.111c1.766-1.02,1.766-1.02,0-2.037l-12.35-7.131c-1.764-1.019-1.764-1.019-3.529,0Z" transform="translate(-693.126 -568.042)" fill="#64ae44" fill-rule="evenodd"/>
      </g>
      <g id="Grupo_121393" data-name="Grupo 121393" transform="translate(345.128 265.363)">
        <path id="Trazado_182287" data-name="Trazado 182287" d="M693.126,586.024,709,595.191v-.127L693.126,585.9Z" transform="translate(-693.126 -585.897)" fill="#4e9c2d" fill-rule="evenodd"/>
      </g>
      <g id="Grupo_121394" data-name="Grupo 121394" transform="translate(345.239 264.536)">
        <path id="Trazado_182288" data-name="Trazado 182288" d="M693.379,584.759l15.768,9.1V593.1l-15.768-9.1Z" transform="translate(-693.379 -583.994)" fill="#eef7fc" fill-rule="evenodd"/>
      </g>
      <g id="Grupo_121395" data-name="Grupo 121395" transform="translate(361.007 267.464)">
        <path id="Trazado_182289" data-name="Trazado 182289" d="M729.628,597.92l10.585-6.111c.956-.552,1.394-.8,1.315-1.083-.067.235-.505.488-1.315.956l-10.585,6.111Z" transform="translate(-729.628 -590.726)" fill="#388717" fill-rule="evenodd"/>
      </g>
      <g id="Grupo_121396" data-name="Grupo 121396" transform="translate(345.128 264.472)">
        <path id="Trazado_182290" data-name="Trazado 182290" d="M693.126,583.976,709,593.143v-.127l-15.878-9.167Z" transform="translate(-693.126 -583.849)" fill="#4e9c2d" fill-rule="evenodd"/>
      </g>
      <g id="Grupo_121397" data-name="Grupo 121397" transform="translate(345.129 265.299)">
        <path id="Trazado_182291" data-name="Trazado 182291" d="M720.53,588.326l-.622.358-.32.186-8.765,5.061-.165.1-.165.1-.165.1-.165.1-.165.1-.166.1-.165.1-.165.1-.166.1-.165.1-.055.032-.11.063-.11-.063-15.768-9.1.11-.064,15.768,9.1v-.764l10.585-6.111c.413-.238.729-.421.949-.574.509.355.5.55-.027.91Z" transform="translate(-693.126 -585.75)" fill="#64ae44" fill-rule="evenodd"/>
      </g>
      <g id="Grupo_121398" data-name="Grupo 121398" transform="translate(361.006 267.048)">
        <path id="Trazado_182292" data-name="Trazado 182292" d="M741.043,589.77l-11.416,6.591v.764l11.416-6.591Z" transform="translate(-729.627 -589.77)" fill="#bcded0" fill-rule="evenodd"/>
      </g>
      <g id="Grupo_121399" data-name="Grupo 121399" transform="translate(346.596 264.301)">
        <path id="Trazado_182293" data-name="Trazado 182293" d="M696.8,583.8c.164,0,.3-.077.3-.171s-.133-.171-.3-.171-.3.077-.3.171.133.171.3.171" transform="translate(-696.5 -583.455)" fill="#0f264d" fill-rule="evenodd"/>
      </g>
      <g id="Grupo_121400" data-name="Grupo 121400" transform="translate(348.361 265.32)">
        <path id="Trazado_182294" data-name="Trazado 182294" d="M700.854,586.139c.164,0,.3-.076.3-.171s-.132-.171-.3-.171-.3.077-.3.171.133.171.3.171" transform="translate(-700.558 -585.797)" fill="#0f264d" fill-rule="evenodd"/>
      </g>
      <g id="Grupo_121401" data-name="Grupo 121401" transform="translate(350.125 266.338)">
        <path id="Trazado_182295" data-name="Trazado 182295" d="M704.908,588.479c.163,0,.3-.077.3-.171s-.133-.172-.3-.172-.3.077-.3.172.132.171.3.171" transform="translate(-704.612 -588.137)" fill="#0f264d" fill-rule="evenodd"/>
      </g>
      <g id="Grupo_121402" data-name="Grupo 121402" transform="translate(351.89 267.357)">
        <path id="Trazado_182296" data-name="Trazado 182296" d="M708.965,590.822c.164,0,.3-.076.3-.171s-.132-.171-.3-.171-.3.077-.3.171.133.171.3.171" transform="translate(-708.669 -590.48)" fill="#0f264d" fill-rule="evenodd"/>
      </g>
      <g id="Grupo_121403" data-name="Grupo 121403" transform="translate(353.654 268.376)">
        <path id="Trazado_182297" data-name="Trazado 182297" d="M713.023,593.165c.163,0,.3-.077.3-.171s-.133-.171-.3-.171-.3.077-.3.171.133.171.3.171" transform="translate(-712.726 -592.823)" fill="#0f264d" fill-rule="evenodd"/>
      </g>
      <g id="Grupo_121404" data-name="Grupo 121404" transform="translate(355.42 269.395)">
        <path id="Trazado_182298" data-name="Trazado 182298" d="M717.08,595.507c.164,0,.3-.077.3-.171s-.133-.171-.3-.171-.3.077-.3.171.132.171.3.171" transform="translate(-716.784 -595.165)" fill="#0f264d" fill-rule="evenodd"/>
      </g>
      <g id="Grupo_121405" data-name="Grupo 121405" transform="translate(357.184 270.414)">
        <path id="Trazado_182299" data-name="Trazado 182299" d="M721.137,597.85c.164,0,.3-.077.3-.171s-.132-.171-.3-.171-.3.077-.3.171.133.171.3.171" transform="translate(-720.841 -597.508)" fill="#0f264d" fill-rule="evenodd"/>
      </g>
      <g id="Grupo_121406" data-name="Grupo 121406" transform="translate(358.949 271.433)">
        <path id="Trazado_182300" data-name="Trazado 182300" d="M725.195,600.192c.164,0,.3-.077.3-.171s-.132-.171-.3-.171-.3.077-.3.171.132.171.3.171" transform="translate(-724.899 -599.85)" fill="#0f264d" fill-rule="evenodd"/>
      </g>
      <g id="Grupo_121407" data-name="Grupo 121407" transform="translate(360.71 272.449)">
        <path id="Trazado_182301" data-name="Trazado 182301" d="M729.242,602.529c.164,0,.3-.077.3-.171s-.133-.171-.3-.171-.3.077-.3.171.132.171.3.171" transform="translate(-728.946 -602.187)" fill="#0f264d" fill-rule="evenodd"/>
      </g>
      <g id="Grupo_121408" data-name="Grupo 121408" transform="translate(345.487 264.215)">
        <path id="Trazado_182302" data-name="Trazado 182302" d="M694.1,584.766c0,.463.281.672.628.467l.036-.023.149.085a1.121,1.121,0,0,1-.185.14c-.43.255-.779,0-.779-.579a1.9,1.9,0,0,1,.779-1.5.46.46,0,0,1,.749.315.47.47,0,0,1-.122.015.445.445,0,0,1-.07,0,.36.36,0,0,0-.558-.124,1.53,1.53,0,0,0-.628,1.21" transform="translate(-693.949 -583.257)" fill="#1d1f38" fill-rule="evenodd"/>
      </g>
      <g id="Grupo_121409" data-name="Grupo 121409" transform="translate(347.251 265.234)">
        <path id="Trazado_182303" data-name="Trazado 182303" d="M698.157,587.109c0,.463.281.672.628.467l.037-.023.148.086a1.1,1.1,0,0,1-.185.14c-.43.254-.779,0-.779-.579a1.9,1.9,0,0,1,.779-1.5.461.461,0,0,1,.75.315.5.5,0,0,1-.122.015.51.51,0,0,1-.07,0,.36.36,0,0,0-.558-.124,1.53,1.53,0,0,0-.628,1.21" transform="translate(-698.006 -585.599)" fill="#1d1f38" fill-rule="evenodd"/>
      </g>
      <g id="Grupo_121410" data-name="Grupo 121410" transform="translate(349.015 266.252)">
        <path id="Trazado_182304" data-name="Trazado 182304" d="M702.211,589.449c0,.463.281.672.628.467l.037-.023.149.086a1.121,1.121,0,0,1-.185.14c-.43.254-.779,0-.779-.579a1.9,1.9,0,0,1,.779-1.5.461.461,0,0,1,.75.315.472.472,0,0,1-.123.015.531.531,0,0,1-.07,0,.36.36,0,0,0-.558-.124,1.531,1.531,0,0,0-.628,1.21" transform="translate(-702.06 -587.939)" fill="#1d1f38" fill-rule="evenodd"/>
      </g>
      <g id="Grupo_121411" data-name="Grupo 121411" transform="translate(350.779 267.271)">
        <path id="Trazado_182305" data-name="Trazado 182305" d="M706.267,591.791c0,.463.281.672.628.467l.037-.023.148.086a1.17,1.17,0,0,1-.185.14c-.43.254-.779,0-.779-.579a1.9,1.9,0,0,1,.779-1.5.46.46,0,0,1,.75.315.471.471,0,0,1-.122.015.5.5,0,0,1-.07,0,.36.36,0,0,0-.558-.124,1.53,1.53,0,0,0-.628,1.21" transform="translate(-706.116 -590.282)" fill="#1d1f38" fill-rule="evenodd"/>
      </g>
      <g id="Grupo_121412" data-name="Grupo 121412" transform="translate(352.545 268.29)">
        <path id="Trazado_182306" data-name="Trazado 182306" d="M710.326,594.134c0,.463.281.672.627.467a.392.392,0,0,0,.037-.023l.148.086a1.106,1.106,0,0,1-.185.139c-.43.255-.778,0-.778-.579a1.9,1.9,0,0,1,.778-1.5.461.461,0,0,1,.75.316.492.492,0,0,1-.122.015.507.507,0,0,1-.07,0,.361.361,0,0,0-.559-.124,1.53,1.53,0,0,0-.627,1.21" transform="translate(-710.175 -592.625)" fill="#1d1f38" fill-rule="evenodd"/>
      </g>
      <g id="Grupo_121413" data-name="Grupo 121413" transform="translate(354.31 269.309)">
        <path id="Trazado_182307" data-name="Trazado 182307" d="M714.383,596.477c0,.463.281.672.628.467l.037-.023.149.086a1.155,1.155,0,0,1-.185.139c-.43.255-.779,0-.779-.579a1.9,1.9,0,0,1,.779-1.5.461.461,0,0,1,.75.315.476.476,0,0,1-.123.015.517.517,0,0,1-.07,0,.36.36,0,0,0-.558-.124,1.531,1.531,0,0,0-.628,1.21" transform="translate(-714.232 -594.968)" fill="#1d1f38" fill-rule="evenodd"/>
      </g>
      <g id="Grupo_121414" data-name="Grupo 121414" transform="translate(356.074 270.327)">
        <path id="Trazado_182308" data-name="Trazado 182308" d="M718.44,598.819c0,.463.281.672.627.467l.037-.023.149.086a1.11,1.11,0,0,1-.186.14c-.43.254-.779-.005-.779-.579a1.9,1.9,0,0,1,.779-1.5.461.461,0,0,1,.75.316.491.491,0,0,1-.122.015.5.5,0,0,1-.07,0,.361.361,0,0,0-.558-.124,1.53,1.53,0,0,0-.627,1.21" transform="translate(-718.289 -597.309)" fill="#1d1f38" fill-rule="evenodd"/>
      </g>
      <g id="Grupo_121415" data-name="Grupo 121415" transform="translate(357.839 271.346)">
        <path id="Trazado_182309" data-name="Trazado 182309" d="M722.5,601.162c0,.463.281.672.628.467l.037-.023.148.086a1.158,1.158,0,0,1-.185.139c-.43.254-.778,0-.778-.58a1.9,1.9,0,0,1,.778-1.5.461.461,0,0,1,.75.315.478.478,0,0,1-.123.015.515.515,0,0,1-.069,0,.36.36,0,0,0-.558-.124,1.529,1.529,0,0,0-.628,1.21" transform="translate(-722.347 -599.652)" fill="#1d1f38" fill-rule="evenodd"/>
      </g>
      <g id="Grupo_121416" data-name="Grupo 121416" transform="translate(359.599 272.363)">
        <path id="Trazado_182310" data-name="Trazado 182310" d="M726.544,603.5c0,.463.281.672.628.467l.037-.023.149.086a1.1,1.1,0,0,1-.185.139c-.43.255-.779,0-.779-.579a1.9,1.9,0,0,1,.779-1.5.461.461,0,0,1,.75.316.493.493,0,0,1-.122.015.512.512,0,0,1-.07,0,.361.361,0,0,0-.558-.124,1.533,1.533,0,0,0-.628,1.211" transform="translate(-726.393 -601.989)" fill="#1d1f38" fill-rule="evenodd"/>
      </g>
      <g id="Grupo_121417" data-name="Grupo 121417" transform="translate(361.007 266.573)">
        <path id="Trazado_182311" data-name="Trazado 182311" d="M729.628,595.871l10.585-6.111c.956-.552,1.394-.806,1.315-1.083-.067.235-.505.488-1.315.956l-10.585,6.111Z" transform="translate(-729.628 -588.677)" fill="#388717" fill-rule="evenodd"/>
      </g>
      <g id="Grupo_121418" data-name="Grupo 121418" transform="translate(327.383 278.667)">
        <path id="Trazado_182312" data-name="Trazado 182312" d="M652.331,628.55l31.356,18.1,20.9-12.068-31.356-18.1Z" transform="translate(-652.331 -616.481)" fill="#fff" fill-rule="evenodd"/>
      </g>
    </g>
  </g>
</svg>
