<svg xmlns="http://www.w3.org/2000/svg" width="279.818" height="287.451" viewBox="0 0 279.818 287.451">
  <g id="Grupo_121462" data-name="Grupo 121462" transform="translate(-39.075 -30.648)">
    <path id="Trazado_182313" data-name="Trazado 182313" d="M293.882,259.862a127.956,127.956,0,1,0-194.11,0Z" transform="translate(-8.747 -5.248)" fill="#bd8ced"/>
    <g id="Grupo_121421" data-name="Grupo 121421" transform="translate(86.047 284.717)">
      <g id="Grupo_121420" data-name="Grupo 121420">
        <ellipse id="Elipse_5733" data-name="Elipse 5733" cx="26.219" cy="5.952" rx="26.219" ry="5.952" transform="translate(0 1.867)" fill="#bd8ced"/>
        <path id="Trazado_182314" data-name="Trazado 182314" d="M338.66,405.788c-5.462,0-10.667.162-15.411.454,3.31-.923,5.192-1.98,5.192-3.1,0-3.59-19.176-6.5-42.831-6.5s-42.832,2.911-42.832,6.5,19.176,6.5,42.832,6.5c6.071,0,11.843-.193,17.075-.538-2.6.782-4.058,1.661-4.058,2.59,0,3.259,17.924,5.9,40.033,5.9s40.034-2.642,40.034-5.9S360.77,405.788,338.66,405.788Z" transform="translate(-145.847 -392.158)" fill="#bd8ced"/>
        <path id="Trazado_182315" data-name="Trazado 182315" d="M184.9,410.743q-1.188,0-2.359.014c1.52-.7,2.359-1.456,2.359-2.248,0-3.5-16.22-6.33-36.227-6.33s-36.227,2.834-36.227,6.33,16.091,6.306,35.989,6.329c-3.609,1.211-5.686,2.617-5.686,4.117,0,4.536,18.872,8.212,42.152,8.212s42.152-3.676,42.152-8.212S208.178,410.743,184.9,410.743Z" transform="translate(-107.586 -393.785)" fill="#bd8ced"/>
        <ellipse id="Elipse_5734" data-name="Elipse 5734" cx="8.654" cy="2.417" rx="8.654" ry="2.417" transform="translate(214.532 5.302)" fill="#bd8ced"/>
        <path id="Trazado_182316" data-name="Trazado 182316" d="M397.854,394.838c0,.543-1.739.983-3.885.983s-3.885-.44-3.885-.983,1.74-.982,3.885-.982S397.854,394.3,397.854,394.838Z" transform="translate(-189.091 -391.342)" fill="#bd8ced"/>
        <ellipse id="Elipse_5735" data-name="Elipse 5735" cx="4.277" cy="1.236" rx="4.277" ry="1.236" transform="translate(81.558 3.898)" fill="#bd8ced"/>
        <path id="Trazado_182317" data-name="Trazado 182317" d="M252.512,391.23c0,.516-1.206.933-2.694.933s-2.693-.417-2.693-.933,1.206-.933,2.693-.933S252.512,390.715,252.512,391.23Z" transform="translate(-147.123 -390.297)" fill="#bd8ced"/>
      </g>
    </g>
    <g id="Grupo_121422" data-name="Grupo 121422" transform="translate(43.811 226.376)">
      <path id="Trazado_182318" data-name="Trazado 182318" d="M88.015,367.291c-4.14-11.868-8.329-23.837-14.875-34.567S57.42,312.455,45.779,307.712c3.971,15.089,7.878,31,18.1,42.782C70.437,358.053,79.083,362.78,88.015,367.291Z" transform="translate(-45.779 -307.712)" fill="#8dc63f"/>
      <path id="Trazado_182319" data-name="Trazado 182319" d="M88.511,363.013c-2.631-4.913-5.335-9.79-8.214-14.562q-2.395-3.968-4.966-7.827c-3.688-5.509-7.886-10.976-13.735-14.1,2.319,6.125,4.638,12.252,7.212,18.275a67.5,67.5,0,0,0,7.251,13.56,52.255,52.255,0,0,0,8.749,9.074c1.627,1.36,3.309,2.651,5.015,3.909l.071.056q1.376.712,2.765,1.414-1.018-2.919-2.052-5.841Q89.564,364.991,88.511,363.013Z" transform="translate(-50.422 -313.235)" fill="#7cb332"/>
    </g>
    <g id="Grupo_121423" data-name="Grupo 121423" transform="translate(39.075 262.042)">
      <path id="Trazado_182320" data-name="Trazado 182320" d="M81.621,379.083c-6.048-5.452-12.154-10.948-19.214-15s-15.243-6.619-23.331-5.688c6.953,7.335,14.127,15.155,23.6,18.667C68.758,379.309,75.142,379.3,81.621,379.083Z" transform="translate(-39.075 -358.199)" fill="#8dc63f"/>
      <path id="Trazado_182321" data-name="Trazado 182321" d="M80.57,376.577c-3.024-1.972-6.079-3.9-9.2-5.714q-2.6-1.509-5.259-2.9c-3.811-1.982-7.9-3.779-12.192-3.731,3.225,2.757,6.45,5.516,9.788,8.136a43.714,43.714,0,0,0,8.342,5.444,33.819,33.819,0,0,0,7.8,2.431c1.347.266,2.7.475,4.066.658l.057.01q1-.024,2.011-.058-1.488-1.341-2.985-2.679Q81.784,377.372,80.57,376.577Z" transform="translate(-43.432 -359.969)" fill="#7cb332"/>
    </g>
    <g id="Grupo_121424" data-name="Grupo 121424" transform="translate(62.981 211.307)">
      <path id="Trazado_182322" data-name="Trazado 182322" d="M87.985,331.331c-.3-8.137-.6-16.347-2.6-24.24s-5.858-15.55-12.157-20.71c-.426,10.1-1.047,20.691,3.029,29.941C78.869,322.254,83.318,326.832,87.985,331.331Z" transform="translate(-72.915 -286.381)" fill="#8dc63f"/>
      <path id="Trazado_182323" data-name="Trazado 182323" d="M89.238,328.777c-.689-3.544-1.432-7.079-2.3-10.584q-.724-2.914-1.578-5.793c-1.23-4.115-2.784-8.3-5.808-11.351.265,4.234.53,8.471.972,12.69a43.677,43.677,0,0,0,1.9,9.779,33.838,33.838,0,0,0,3.682,7.289c.747,1.153,1.541,2.273,2.357,3.378.011.015.022.033.033.047q.715.7,1.441,1.4c-.049-1.334-.1-2.671-.154-4.008C89.6,330.678,89.422,329.727,89.238,328.777Z" transform="translate(-74.863 -290.687)" fill="#7cb332"/>
    </g>
    <g id="Grupo_121425" data-name="Grupo 121425" transform="translate(220.084 225.504)">
      <path id="Trazado_182324" data-name="Trazado 182324" d="M296.124,350.774c4.862-6.532,9.762-13.126,13.14-20.535s5.163-15.794,3.479-23.762c-6.652,7.61-13.766,15.484-16.375,25.249C294.694,337.99,295.3,344.345,296.124,350.774Z" transform="translate(-295.304 -306.478)" fill="#8dc63f"/>
      <path id="Trazado_182325" data-name="Trazado 182325" d="M300.113,349.487c1.681-3.2,3.314-6.418,4.829-9.7q1.259-2.726,2.4-5.507c1.616-3.979,3.024-8.217,2.573-12.488-2.444,3.469-4.889,6.939-7.184,10.507a43.709,43.709,0,0,0-4.64,8.815,33.839,33.839,0,0,0-1.69,7.989c-.138,1.366-.221,2.738-.276,4.11,0,.018,0,.04,0,.058q.118,1,.246,2,1.2-1.606,2.388-3.222Q299.435,350.77,300.113,349.487Z" transform="translate(-295.543 -310.975)" fill="#7cb332"/>
    </g>
    <g id="Grupo_121426" data-name="Grupo 121426" transform="translate(220.121 212.7)">
      <path id="Trazado_182326" data-name="Trazado 182326" d="M299.7,328.953c2.466-6.561,4.949-13.183,5.979-20.116s.509-14.3-2.782-20.485c-3.69,7.88-7.7,16.087-7.531,24.786C295.468,318.718,297.482,323.831,299.7,328.953Z" transform="translate(-295.356 -288.353)" fill="#8dc63f"/>
      <path id="Trazado_182327" data-name="Trazado 182327" d="M302.4,327.3c.629-3.044,1.212-6.1,1.684-9.17.262-1.7.489-3.412.67-5.126.389-3.676.544-7.517-.846-10.943-1.2,3.451-2.391,6.9-3.44,10.4a37.629,37.629,0,0,0-1.739,8.4,29.108,29.108,0,0,0,.505,7.011c.211,1.164.469,2.317.751,3.465,0,.016.007.034.011.049q.335.8.679,1.593.606-1.614,1.207-3.234Q302.142,328.521,302.4,327.3Z" transform="translate(-296.332 -292.377)" fill="#7cb332"/>
    </g>
    <path id="Trazado_182328" data-name="Trazado 182328" d="M291.867,143.085a54.782,54.782,0,0,0-19.792-16.237c-1.5,19.929-2.249,39.981-1.813,59.962a70.153,70.153,0,0,0,15.1-9.969c4.47-4.075,8.181-9.2,9.667-15.06C296.725,155.081,295.511,147.912,291.867,143.085Z" transform="translate(-67.832 -28.241)" fill="#1c75bc"/>
    <path id="Trazado_182329" data-name="Trazado 182329" d="M273.544,127.568a6.225,6.225,0,0,0-1.2,2.257c0,.016-.007.033-.011.049q-.243,3.385-.455,6.773-.09,11.851-.18,23.7c-.03,4.021-.04,8.159,1.443,11.9a20.909,20.909,0,0,0,2.984,5.036c.673.87,2.41,3.693,3.82,3.333,1.234-.314,1.653-4.238,2-5.366q.993-3.27,2.2-6.47a10.577,10.577,0,0,0,.887-3.434,10.125,10.125,0,0,0-.713-3.377c-2.116-6.35-4.164-12.79-4.783-19.455a76.63,76.63,0,0,1-.019-11.412A54.432,54.432,0,0,0,273.544,127.568Z" transform="translate(-68.287 -28.452)" fill="#155f99"/>
    <g id="Grupo_121447" data-name="Grupo 121447" transform="translate(57.266 30.649)">
      <path id="Trazado_182330" data-name="Trazado 182330" d="M125.061,72.7s-6.664-.54-12.757,8.82c15.895-3.62,24.46-.618,24.46-.618S132.254,72.267,125.061,72.7Z" transform="translate(-78.764 -42.989)" fill="#808285"/>
      <path id="Trazado_182331" data-name="Trazado 182331" d="M172.756,61.431a52.349,52.349,0,0,1-7-10.634c2.852-2.512,3.143-7.5,2.008-11.129a12.987,12.987,0,0,0-7.683-7.911,18.219,18.219,0,0,0-11.2-.436c-4.463,1.162-8.752,3.951-10.528,8.207s-.236,9.969,3.979,11.844a52.262,52.262,0,0,1-8.738,15.821c11.119.093,22.241.187,33.355-.134,1.813-.052,3.732-.149,5.236-1.162A3.009,3.009,0,0,0,172.756,61.431ZM159.715,46.114a7.559,7.559,0,0,1-7.048.723,5.288,5.288,0,0,1-3.362-6.871,7.088,7.088,0,0,1,2.4-3.464c1.516-1.2,9.172-3.234,10.923,3.01C163.32,41.97,161.752,44.69,159.715,46.114Z" transform="translate(-85.012 -30.649)" fill="#bcbec0"/>
      <path id="Trazado_182332" data-name="Trazado 182332" d="M142.838,68.022a91.444,91.444,0,0,1,5.858-15.81,11.024,11.024,0,0,1-7.6-10.068,11.056,11.056,0,0,1,4.53-8.9,14.006,14.006,0,0,0-7.278,7.046c-1.776,4.257-.236,9.969,3.979,11.844a52.262,52.262,0,0,1-8.738,15.821Q138.213,67.995,142.838,68.022Z" transform="translate(-85.012 -31.411)" fill="#d1d3d4"/>
      <g id="Grupo_121427" data-name="Grupo 121427" transform="translate(0 33.247)">
        <path id="Trazado_182333" data-name="Trazado 182333" d="M72.448,77.713h143.42L234.2,286.775,92.517,303.856Z" transform="translate(-67.064 -77.713)" fill="#1c75bc"/>
        <path id="Trazado_182334" data-name="Trazado 182334" d="M219.538,99.55s12.943-4.8,8.747-21.837H210.347Z" transform="translate(-107.546 -77.713)" fill="#155f99"/>
        <path id="Trazado_182335" data-name="Trazado 182335" d="M70.21,77.713l-5.384,3.923,20.191,220.14,5.262,2.08Z" transform="translate(-64.826 -77.713)" fill="#519bd6"/>
        <path id="Trazado_182336" data-name="Trazado 182336" d="M239.252,289.4,226.618,145.28l-10.1-56.135-126.835-2.5s-1.374,165.1,24.491,217.834Z" transform="translate(-72.12 -80.334)" fill="#155f99"/>
      </g>
      <path id="Trazado_182337" data-name="Trazado 182337" d="M93.226,91.411l127.912-2.295c4.265,63,11.658,125.777,23.884,187.722-42.566,1.3-85.345,7.25-127.174,15.248C106.171,249.675,93.226,129.027,93.226,91.411Z" transform="translate(-73.163 -47.813)" fill="#fff"/>
      <path id="Trazado_182338" data-name="Trazado 182338" d="M215.59,90.057l5.487,13.038a15.954,15.954,0,0,0,9.49-13.307Z" transform="translate(-109.085 -48.01)" fill="#e6e7e8"/>
      <path id="Trazado_182339" data-name="Trazado 182339" d="M149.832,71.586l27.1-1.234a52.493,52.493,0,0,1-4.768-6.871,38.966,38.966,0,0,0-9.079,1.869A70.467,70.467,0,0,0,149.832,71.586Z" transform="translate(-89.781 -40.288)" fill="#808285"/>
      <g id="Grupo_121428" data-name="Grupo 121428" transform="translate(46.297 27.521)">
        <path id="Trazado_182340" data-name="Trazado 182340" d="M137.353,97.13l58.7.04c3.091-6.693,1.743-14.735-.722-22a6.337,6.337,0,0,0-5.416-4.3,261.149,261.149,0,0,0-59.557.922C136.9,75.236,137.932,87.706,137.353,97.13Z" transform="translate(-130.362 -69.607)" fill="#bcbec0"/>
        <path id="Trazado_182341" data-name="Trazado 182341" d="M199.346,85.322l-60.708.17a48.085,48.085,0,0,1,1.281,11.474l60.086-.317A30.606,30.606,0,0,0,199.346,85.322Z" transform="translate(-132.792 -74.22)" fill="#d1d3d4"/>
        <path id="Trazado_182342" data-name="Trazado 182342" d="M173.287,71.518c-3.592.076-7.269.316-10.561,1.755-.588.257-1.258.733-1.14,1.364.1.548.733.8,1.272.937,8.269,2.172,16.913,2.073,25.376,1.448,1.663-.123,10.193.12,9.834-2.147-.481-3.028-7.9-2.665-9.985-2.852A134.157,134.157,0,0,0,173.287,71.518Z" transform="translate(-139.524 -70.159)" fill="#d1d3d4"/>
        <ellipse id="Elipse_5736" data-name="Elipse 5736" cx="4.106" cy="1.589" rx="4.106" ry="1.589" transform="translate(11.351 2.928)" fill="#d1d3d4"/>
      </g>
      <g id="Grupo_121429" data-name="Grupo 121429" transform="translate(114.985 73.634)">
        <path id="Trazado_182343" data-name="Trazado 182343" d="M255.266,163.052l-23.231,1.177-4.441-28.17,23.231-1.177Zm-20.836-1.774,17.556-.889-3.556-22.556-17.555.889Z" transform="translate(-227.594 -134.882)" fill="#bcbec0"/>
      </g>
      <g id="Grupo_121430" data-name="Grupo 121430" transform="translate(122.199 122.749)">
        <path id="Trazado_182344" data-name="Trazado 182344" d="M265.355,232.6l-23.237,1.071-4.312-28.19,23.237-1.07Zm-20.828-1.869,17.559-.809-3.452-22.572-17.56.809Z" transform="translate(-237.806 -204.408)" fill="#bcbec0"/>
      </g>
      <g id="Grupo_121431" data-name="Grupo 121431" transform="translate(130.832 171.778)">
        <path id="Trazado_182345" data-name="Trazado 182345" d="M254.835,303.4l-4.809-28.11,23.214-1.481,4.809,28.11Zm-1.493-25.49,3.851,22.508,17.542-1.119-3.851-22.508Z" transform="translate(-250.026 -273.811)" fill="#bcbec0"/>
      </g>
      <g id="Grupo_121436" data-name="Grupo 121436" transform="translate(30.165 78.615)">
        <g id="Grupo_121432" data-name="Grupo 121432" transform="translate(1.628 6.198)">
          <path id="Trazado_182346" data-name="Trazado 182346" d="M111.6,156.58a1.766,1.766,0,0,1-.056-3.531l73.2-2.341a1.766,1.766,0,1,1,.113,3.53l-73.2,2.341Z" transform="translate(-109.831 -150.707)" fill="#808285"/>
        </g>
        <g id="Grupo_121433" data-name="Grupo 121433" transform="translate(3.043 13.607)">
          <path id="Trazado_182347" data-name="Trazado 182347" d="M113.6,167.068a1.766,1.766,0,0,1-.056-3.531l73.2-2.341a1.766,1.766,0,0,1,.113,3.53l-73.2,2.341Z" transform="translate(-111.834 -161.195)" fill="#808285"/>
        </g>
        <g id="Grupo_121434" data-name="Grupo 121434" transform="translate(4.458 22.187)">
          <path id="Trazado_182348" data-name="Trazado 182348" d="M115.6,178.043a1.766,1.766,0,0,1-.055-3.531l36.6-1.17a1.766,1.766,0,1,1,.113,3.53l-36.6,1.17Z" transform="translate(-113.837 -173.341)" fill="#808285"/>
        </g>
        <g id="Grupo_121435" data-name="Grupo 121435">
          <path id="Trazado_182349" data-name="Trazado 182349" d="M109.292,146.636a1.766,1.766,0,0,1-.055-3.531l36.6-1.171a1.766,1.766,0,0,1,.114,3.53l-36.6,1.171Z" transform="translate(-107.527 -141.933)" fill="#ff6b00"/>
        </g>
      </g>
      <g id="Grupo_121441" data-name="Grupo 121441" transform="translate(39.611 129.466)">
        <g id="Grupo_121437" data-name="Grupo 121437" transform="translate(2.083 3.811)">
          <path id="Trazado_182350" data-name="Trazado 182350" d="M125.609,229.727a1.766,1.766,0,0,1-.164-3.524l72.91-6.884a1.766,1.766,0,1,1,.332,3.517l-72.91,6.883A1.671,1.671,0,0,1,125.609,229.727Z" transform="translate(-123.846 -219.31)" fill="#808285"/>
        </g>
        <g id="Grupo_121438" data-name="Grupo 121438" transform="translate(3.955 11.119)">
          <path id="Trazado_182351" data-name="Trazado 182351" d="M128.26,240.071a1.766,1.766,0,0,1-.164-3.524l72.91-6.883a1.766,1.766,0,1,1,.332,3.516l-72.91,6.884C128.372,240.069,128.315,240.071,128.26,240.071Z" transform="translate(-126.496 -229.655)" fill="#808285"/>
        </g>
        <g id="Grupo_121439" data-name="Grupo 121439" transform="translate(5.827 21.869)">
          <path id="Trazado_182352" data-name="Trazado 182352" d="M130.911,251.846a1.766,1.766,0,0,1-.164-3.524l36.455-3.442a1.766,1.766,0,0,1,.331,3.517l-36.455,3.442C131.023,251.843,130.966,251.846,130.911,251.846Z" transform="translate(-129.147 -244.873)" fill="#808285"/>
        </g>
        <g id="Grupo_121440" data-name="Grupo 121440">
          <path id="Trazado_182353" data-name="Trazado 182353" d="M122.662,220.89a1.766,1.766,0,0,1-.164-3.524l36.455-3.442a1.766,1.766,0,0,1,.332,3.517l-36.455,3.442C122.774,220.888,122.718,220.89,122.662,220.89Z" transform="translate(-120.898 -213.915)" fill="#ff6b00"/>
        </g>
      </g>
      <g id="Grupo_121446" data-name="Grupo 121446" transform="translate(48.144 180.581)">
        <g id="Grupo_121442" data-name="Grupo 121442" transform="translate(2.2 3.182)">
          <path id="Trazado_182354" data-name="Trazado 182354" d="M137.856,302.383a1.766,1.766,0,0,1-.193-3.522l72.788-8.073a1.765,1.765,0,1,1,.389,3.51l-72.787,8.074A1.679,1.679,0,0,1,137.856,302.383Z" transform="translate(-136.091 -290.776)" fill="#808285"/>
        </g>
        <g id="Grupo_121443" data-name="Grupo 121443" transform="translate(4.192 10.457)">
          <path id="Trazado_182355" data-name="Trazado 182355" d="M140.675,312.682a1.766,1.766,0,0,1-.193-3.522l72.788-8.073a1.766,1.766,0,1,1,.389,3.51l-72.788,8.074A1.677,1.677,0,0,1,140.675,312.682Z" transform="translate(-138.911 -301.075)" fill="#808285"/>
        </g>
        <g id="Grupo_121444" data-name="Grupo 121444" transform="translate(6.183 21.77)">
          <path id="Trazado_182356" data-name="Trazado 182356" d="M143.494,324.658a1.766,1.766,0,0,1-.192-3.521L179.7,317.1a1.766,1.766,0,1,1,.389,3.51l-36.393,4.037A1.683,1.683,0,0,1,143.494,324.658Z" transform="translate(-141.73 -317.089)" fill="#808285"/>
        </g>
        <g id="Grupo_121445" data-name="Grupo 121445">
          <path id="Trazado_182357" data-name="Trazado 182357" d="M134.741,293.842a1.766,1.766,0,0,1-.193-3.521l36.393-4.037a1.766,1.766,0,1,1,.39,3.51l-36.393,4.037A1.691,1.691,0,0,1,134.741,293.842Z" transform="translate(-132.977 -286.272)" fill="#ff6b00"/>
        </g>
      </g>
      <path id="Trazado_182358" data-name="Trazado 182358" d="M225.956,136.741c5.048,1.657,9.73,3.9,13.554,7.931,4.961-6.386,9.433-12.168,16.432-17.144A90.771,90.771,0,0,0,240.7,153.753,50.24,50.24,0,0,0,225.956,136.741Z" transform="translate(-112.128 -59.089)" fill="#ff6b00"/>
      <path id="Trazado_182359" data-name="Trazado 182359" d="M236.08,209.5c5.049,1.657,9.73,3.9,13.554,7.931,4.961-6.386,9.434-12.168,16.432-17.144a90.739,90.739,0,0,0-15.239,26.224A50.257,50.257,0,0,0,236.08,209.5Z" transform="translate(-115.1 -80.45)" fill="#ff6b00"/>
      <path id="Trazado_182360" data-name="Trazado 182360" d="M248.637,277.506c5.048,1.657,9.73,3.9,13.554,7.93,4.961-6.385,9.433-12.168,16.432-17.144a90.751,90.751,0,0,0-15.239,26.224A50.253,50.253,0,0,0,248.637,277.506Z" transform="translate(-118.786 -100.413)" fill="#ff6b00"/>
    </g>
    <g id="Grupo_121454" data-name="Grupo 121454" transform="translate(204.728 109.688)">
      <path id="Trazado_182361" data-name="Trazado 182361" d="M303.291,387.785l-14.126,6.856c-.552.268-1.195.682-1.145,1.295.059.743,1.028.969,1.773,1l19.97.714v-8.1A32.96,32.96,0,0,1,303.291,387.785Z" transform="translate(-277.808 -214.53)" fill="#fff"/>
      <path id="Trazado_182362" data-name="Trazado 182362" d="M371.473,405.332c-1.354,2.649-7.574,5.209-11.638,7.181-.477.231-1.031.588-.988,1.117.052.641.887.836,1.531.859,4.149.148,10.766.3,16.285.445a3.429,3.429,0,0,0,3.166-4.942l-3.176-6.9C374.876,402.782,373.141,406.02,371.473,405.332Z" transform="translate(-298.601 -219.018)" fill="#fff"/>
      <path id="Trazado_182363" data-name="Trazado 182363" d="M362.486,231.461c-7.495,2.575-14.736,2.457-21.623,3.4-1.212,1.693-5.866,8.547-7.078,10.24l19.435,2.44a9.13,9.13,0,0,0,3.159.028,7.019,7.019,0,0,0,3.758-2.7A15.277,15.277,0,0,0,362.486,231.461Z" transform="translate(-291.244 -168.639)" fill="#092942"/>
      <path id="Trazado_182364" data-name="Trazado 182364" d="M323.184,214.637c2.52-3.856,5.995-6.528,9.511-6-.286-.042-3,6.284-3.421,7.006a46.792,46.792,0,0,1-4.281,6.21,36.946,36.946,0,0,1-4.814,4.9c-.5.418-1.854,2-2.285.732-.272-.8.878-3.245,1.141-3.981A42.3,42.3,0,0,1,323.184,214.637Z" transform="translate(-286.567 -161.919)" fill="#092942"/>
      <g id="Grupo_121449" data-name="Grupo 121449">
        <g id="Grupo_121448" data-name="Grupo 121448" transform="translate(0)">
          <path id="Trazado_182365" data-name="Trazado 182365" d="M392.672,159.048,313.759,228.9l-12.52-14.142,78.912-69.851a9.444,9.444,0,0,1,13.331.811h0A9.444,9.444,0,0,1,392.672,159.048Z" transform="translate(-281.69 -142.533)" fill="#fbb040"/>
          <path id="Trazado_182366" data-name="Trazado 182366" d="M293.115,244.77l-19.549,29.92,32.069-15.778Z" transform="translate(-273.566 -172.546)" fill="#f98c6e"/>
          <rect id="Rect치ngulo_36866" data-name="Rect치ngulo 36866" width="96.432" height="7.594" transform="matrix(0.749, -0.663, 0.663, 0.749, 23.292, 76.452)" fill="#9c681c"/>
          <path id="Trazado_182367" data-name="Trazado 182367" d="M280.577,271.934l-7.011,10.731,11.5-5.659Z" transform="translate(-273.566 -180.521)" fill="#ff6b00"/>
          <path id="Trazado_182368" data-name="Trazado 182368" d="M409.608,144.906l-8.027,7.107,12.52,14.142,8.027-7.107a9.444,9.444,0,1,0-12.52-14.142Z" transform="translate(-311.147 -142.533)" fill="#f98c6e"/>
          <rect id="Rect치ngulo_36867" data-name="Rect치ngulo 36867" width="7.594" height="18.888" transform="translate(86.07 13.343) rotate(-41.519)" fill="#fff"/>
        </g>
        <path id="Trazado_182369" data-name="Trazado 182369" d="M384.548,160.371a9.434,9.434,0,0,0,.811-13.331L273.566,246l32.069-15.778Z" transform="translate(-273.566 -143.856)" fill="#231f20" opacity="0.25"/>
      </g>
      <path id="Trazado_182370" data-name="Trazado 182370" d="M367.924,222.4c1.819,3.249,1.964,12.149,1.127,15.777,2.784.468,5.926-3.948,8.709-3.48a23.357,23.357,0,0,1-.875-10.272c.158-1.134.367-2.41-.322-3.324-.872-1.157-2.657-1.037-4.005-.511S369.368,222.513,367.924,222.4Z" transform="translate(-301.266 -165.335)" fill="#e67a5c"/>
      <path id="Trazado_182371" data-name="Trazado 182371" d="M338.4,295.376s-17.438,16.242-21.206,29.193S308.1,359.42,308.1,359.42l9.72,1.906,9.968-30.87,15.777-16.484S344.3,297.738,338.4,295.376Z" transform="translate(-283.705 -187.402)" fill="#092942"/>
      <path id="Trazado_182372" data-name="Trazado 182372" d="M345.734,295.376a128.221,128.221,0,0,0-12.646,14.013c.949,4.97,2.085,9.915,3.2,14.76q.472,2.042.97,4.078L350.9,313.972S351.633,297.738,345.734,295.376Z" transform="translate(-291.04 -187.402)" fill="#051d2e"/>
      <path id="Trazado_182373" data-name="Trazado 182373" d="M368.858,280.13c-.886,2.357-7.492,5.336-10.015,5.824a6.864,6.864,0,0,1-5.967-2.107c-1.531-1.542-3.046-3.474-3.076-5.62-.435-31.867,5.476-38.575,10.85-43.882,4.7-4.638,11.034-3.8,14.612,1.647,3.958,6.024,1.864,14.155.278,20.614C373.394,265.349,372.432,270.622,368.858,280.13Z" transform="translate(-295.939 -168.6)" fill="#0e4066"/>
      <path id="Trazado_182374" data-name="Trazado 182374" d="M362.337,271.495a51.432,51.432,0,0,0,9.622-29.513,41.885,41.885,0,0,1-9.483,14.454,10.193,10.193,0,0,1-2.071,1.782c-2.231,1.34-5.064,1.022-7.593.408-.558-.135-1.12-.283-1.681-.427-.454,2.946-.8,6.347-1.012,10.289A75.8,75.8,0,0,0,362.337,271.495Z" transform="translate(-296.04 -171.728)" fill="#092942"/>
      <path id="Trazado_182375" data-name="Trazado 182375" d="M364.8,316.849c2.339-7.182,4.037-11.114,3.776-18.921-12.085,3.678-19.448-2.552-19.448-2.552-1.893,17.258-2.338,26.513-.006,43.726,1.369,10.107,11.575,24.778,17.327,33.466,2.479-.622,3.614-1.125,6.093-1.747-2.136-8.022-6.047-22.5-10.3-29.774C363.243,332.026,361.938,325.628,364.8,316.849Z" transform="translate(-295.28 -187.402)" fill="#092942"/>
      <path id="Trazado_182376" data-name="Trazado 182376" d="M335.835,209.312c1.96-1.618,5.668-2.486,8-1.481.6.259,1.218.726,1.244,1.379.033.837-.884,1.358-1.676,1.631a21.014,21.014,0,0,1-7.688,1.122C334.893,211.726,333.875,210.931,335.835,209.312Z" transform="translate(-291.515 -161.576)" fill="#f98c6e"/>
      <path id="Trazado_182377" data-name="Trazado 182377" d="M358.166,257.02a5.389,5.389,0,0,0,2.285-.178,5.054,5.054,0,0,0,2.36-2.552,35.526,35.526,0,0,0,3.763-11.091,7.27,7.27,0,0,0-1.985-6.595,22.336,22.336,0,0,0-8.192,14.726c-1.221-.035-2.51-.056-3.787-.081-.392,1.6-.747,3.362-1.052,5.338Z" transform="translate(-296.462 -170.149)" fill="#092942"/>
      <g id="Grupo_121450" data-name="Grupo 121450" transform="translate(30.992 63.051)">
        <path id="Trazado_182378" data-name="Trazado 182378" d="M322.506,254.092a5.2,5.2,0,0,0-2.427-2.055,2.034,2.034,0,0,0-2.605,1.216c-.328,1.506,1.683,2.93,1.079,4.349-.173.407-.538.7-.742,1.1a2.119,2.119,0,0,0,.49,2.334,5.814,5.814,0,0,0,2.179,1.272,8.654,8.654,0,0,0,3.452.795,2.722,2.722,0,0,0,1.967-.8c.942-1.079-.132-2.694-.646-3.729A29.067,29.067,0,0,0,322.506,254.092Z" transform="translate(-317.438 -237.701)" fill="#f98c6e"/>
        <path id="Trazado_182379" data-name="Trazado 182379" d="M349.712,252.895c2.157-8.717,1.888-10.833,4.972-16.564a9.581,9.581,0,0,1,4.945-4.028,6.109,6.109,0,0,1,6.1.645,6.187,6.187,0,0,1,2.013,4.455,14.893,14.893,0,0,1-.782,4.945c-3.289,11.2-5,12.8-11.849,22.264-9.333-.874-21.66-2.809-28.279-6.3-1.344-.709-1.431-2.993-.626-4.282.872-1.4,2.879-1.422,4.5-1.12C335.9,253.88,341.777,253.044,349.712,252.895Z" transform="translate(-319.861 -231.785)" fill="#0e4066"/>
      </g>
      <path id="Trazado_182380" data-name="Trazado 182380" d="M307.043,383.064l11.451,3.091-1.236,3.885-11.2-2.972Z" transform="translate(-283.103 -213.144)" fill="#0e4066"/>
      <path id="Trazado_182381" data-name="Trazado 182381" d="M380.147,397.8l-8.272,3.776,1.8,3.708,8.006-3.709Z" transform="translate(-302.426 -217.471)" fill="#0e4066"/>
      <path id="Trazado_182382" data-name="Trazado 182382" d="M309.763,400.717V398.53l-21.413-.281a.951.951,0,0,0-.331.759c.059.743,1.028.969,1.773,1Z" transform="translate(-277.808 -217.602)" fill="#808285"/>
      <path id="Trazado_182383" data-name="Trazado 182383" d="M359.511,416.473c-.371.225-.7.531-.664.941.052.641.887.836,1.531.859,4.149.148,10.766.3,16.285.445a3.424,3.424,0,0,0,3.455-2.759Q369.818,416.332,359.511,416.473Z" transform="translate(-298.601 -222.801)" fill="#808285"/>
      <g id="Grupo_121453" data-name="Grupo 121453" transform="translate(55.096 28.977)">
        <g id="Grupo_121451" data-name="Grupo 121451">
          <path id="Trazado_182384" data-name="Trazado 182384" d="M357.387,212.356c-.285,2.269.008,5.784,1.528,7.492a5.6,5.6,0,0,0,5.139,1.517,12.29,12.29,0,0,0,4.994-2.417,31.533,31.533,0,0,0,6.768-6.772c1.769-2.414,3.238-5.462,2.35-8.32a8.25,8.25,0,0,0-4.428-4.619,11.3,11.3,0,0,0-7.773-1.019C359.437,199.917,358.089,206.761,357.387,212.356Z" transform="translate(-353.241 -187.769)" fill="#f98c6e"/>
          <path id="Trazado_182385" data-name="Trazado 182385" d="M372.49,207.128a7.469,7.469,0,0,0-6.109-9.018,18.469,18.469,0,0,0-5.457.348,9.606,9.606,0,0,1-5.4-.406,6.647,6.647,0,0,1-3.19-3.488,11.524,11.524,0,0,1-.777-4.736,9.452,9.452,0,0,1,.581-3.331,4.836,4.836,0,0,1,2.164-2.53,3.846,3.846,0,0,1,5.417,4.642,11.369,11.369,0,0,1,5.156-4.024c1.249-.51,2.848-.727,3.808.222a2.728,2.728,0,0,1,.64,2.388,7,7,0,0,1-1,2.352,8.632,8.632,0,0,1,7.468-2.388,1.462,1.462,0,0,1,.831.35,1.444,1.444,0,0,1,.091,1.49,6.22,6.22,0,0,1-2.882,3.309c2.01.784,4.137,1.657,5.375,3.423a7.358,7.358,0,0,1,1.118,4.819,10.218,10.218,0,0,1-4.645,7.771,3.039,3.039,0,0,1-2.019.579A1.64,1.64,0,0,1,372.49,207.128Z" transform="translate(-351.558 -183.551)" fill="#092942"/>
          <path id="Trazado_182386" data-name="Trazado 182386" d="M381.653,214.846a1.957,1.957,0,0,1,1.4-.218,1.479,1.479,0,0,1,.93,1.233,3.116,3.116,0,0,1-.287,1.585,7.358,7.358,0,0,1-3.709,3.847,1.16,1.16,0,0,1-1.072.081c-.882-.556-.587-2.923-.227-3.769A6.259,6.259,0,0,1,381.653,214.846Z" transform="translate(-359.419 -192.657)" fill="#f98c6e"/>
        </g>
        <path id="Trazado_182387" data-name="Trazado 182387" d="M369.712,211.773c-.41,1.029-1.194,1.684-1.751,1.462s-.677-1.236-.268-2.265,1.194-1.684,1.751-1.462S370.122,210.743,369.712,211.773Z" transform="translate(-356.223 -191.158)" fill="#092942"/>
        <path id="Trazado_182388" data-name="Trazado 182388" d="M361.43,211.773c-.41,1.029-1.194,1.684-1.751,1.462s-.677-1.236-.268-2.265,1.194-1.684,1.751-1.462S361.84,210.743,361.43,211.773Z" transform="translate(-353.792 -191.158)" fill="#092942"/>
        <path id="Trazado_182389" data-name="Trazado 182389" d="M360.8,216.97a3.126,3.126,0,0,0-.688.268.651.651,0,0,0-.333.614.747.747,0,0,0,.508.508,2.122,2.122,0,0,0,2.241-.525,2.592,2.592,0,0,0,.63-2.262c-.044-.23-.218-.707-.529-.53-.211.12-.28.609-.4.813A2.7,2.7,0,0,1,360.8,216.97Z" transform="translate(-353.97 -192.785)" fill="#d1684b"/>
        <g id="Grupo_121452" data-name="Grupo 121452" transform="translate(9.796 25.599)">
          <path id="Trazado_182390" data-name="Trazado 182390" d="M366.349,222.669a2.9,2.9,0,0,1-.649-.073.353.353,0,1,1,.157-.688,2.281,2.281,0,0,0,2.756-1.828.353.353,0,1,1,.7.123,2.981,2.981,0,0,1-2.959,2.466Z" transform="translate(-365.425 -219.787)" fill="#d1684b"/>
        </g>
      </g>
    </g>
    <path id="Trazado_182391" data-name="Trazado 182391" d="M303.524,143.436a20.783,20.783,0,0,1-7.326,4.771c-5.669,8.9-1.254,10.025,3.356,7.492q2.743-1.508,5.485-3.019a1.858,1.858,0,0,0,.793-.656,1.878,1.878,0,0,0-.086-1.495C304.978,148.315,305.271,145,303.524,143.436Z" transform="translate(-74.697 -33.11)" fill="#e67a5c"/>
    <path id="Trazado_182392" data-name="Trazado 182392" d="M275.836,246.9a39,39,0,0,0-3.057,5.064,1.649,1.649,0,0,0-.25,1.192,1.131,1.131,0,0,0,.873.7,3.329,3.329,0,0,0,1.167-.035A33.679,33.679,0,0,0,273.4,259.4a1.084,1.084,0,0,0,.891.942c.562.041,2.085-2.112,3.322-4.258a13.517,13.517,0,0,0,2.6-1.3,4.435,4.435,0,0,0,1.774-2.2,4.814,4.814,0,0,0-.872-4.091,5.882,5.882,0,0,0-1.909-1.835C278.423,246.223,276.705,246.71,275.836,246.9Z" transform="translate(-68.522 -63.361)" fill="#f98c6e"/>
    <path id="Trazado_182393" data-name="Trazado 182393" d="M297.357,165.374c1.246,20.4-5.508,42.719-14.754,61.089a15.129,15.129,0,0,1-6.858-.709,254,254,0,0,1,8.469-47.346c.7-2.633,1.482-5.348,3.235-7.435S294.844,164.319,297.357,165.374Z" transform="translate(-69.478 -39.505)" fill="#1c75bc"/>
    <g id="Grupo_121457" data-name="Grupo 121457" transform="translate(224.277 95.761)">
      <g id="Grupo_121455" data-name="Grupo 121455">
        <path id="Trazado_182394" data-name="Trazado 182394" d="M315.09,154.5c-1.937,1.446-5.374,3.062-7.867,2.679a6.132,6.132,0,0,1-4.474-3.553,11.257,11.257,0,0,1-.737-5.517,28.824,28.824,0,0,1,2.246-9.333c1.185-2.781,3.138-5.644,6.32-6.407a9.939,9.939,0,0,1,6.929,1.3,11.868,11.868,0,0,1,5.584,6.053C325.411,146.16,319.864,150.935,315.09,154.5Z" transform="translate(-301.451 -125.565)" fill="#f98c6e"/>
        <path id="Trazado_182395" data-name="Trazado 182395" d="M304.408,136.214c3.843,1.106,6.821.528,8.746-3.187.953,4.381,9.247,19.292,17.267,12.152-3.936-2.031-3.707-6.159-5.025-10.175a10.137,10.137,0,0,0-2.612-4.384,6.359,6.359,0,0,0-4.99-1.729,19.088,19.088,0,0,0,3.043-1.416c.324-.187.674-.433.7-.783.033-.506-.621-.812-1.175-.894a5.306,5.306,0,0,0-3.97,1.017,6.059,6.059,0,0,0-2.781-3.578,2.667,2.667,0,0,0-1.12-.414,1.168,1.168,0,0,0-1.055.415,1.285,1.285,0,0,0-.118.937,6.123,6.123,0,0,0,1.657,3.269,7.857,7.857,0,0,0-6.935,2.887,19.2,19.2,0,0,0-3.2,6.62C303.207,136.835,304.033,136.332,304.408,136.214Z" transform="translate(-301.707 -122.819)" fill="#092942"/>
        <path id="Trazado_182396" data-name="Trazado 182396" d="M306.31,139.6a1.906,1.906,0,0,0-.634-1.3,1.779,1.779,0,0,0-1.7-.135,3.281,3.281,0,0,0-1.3,1.084,6.783,6.783,0,0,0-1.358,5.187,1.153,1.153,0,0,0,.566.952c1.042.454,3.063-1.052,3.633-1.807A5.731,5.731,0,0,0,306.31,139.6Z" transform="translate(-301.239 -127.278)" fill="#f98c6e"/>
      </g>
      <path id="Trazado_182397" data-name="Trazado 182397" d="M317.607,149.12c-.711.894-.851,1.905-.312,2.261s1.552-.081,2.263-.975.851-1.906.312-2.261S318.318,148.227,317.607,149.12Z" transform="translate(-305.856 -130.218)" fill="#092942"/>
      <path id="Trazado_182398" data-name="Trazado 182398" d="M322.548,156.144c-.711.894-.85,1.906-.312,2.261s1.551-.081,2.263-.975.85-1.906.312-2.261S323.26,155.251,322.548,156.144Z" transform="translate(-307.307 -132.28)" fill="#092942"/>
      <path id="Trazado_182399" data-name="Trazado 182399" d="M318.017,159.077a2.888,2.888,0,0,1,.161.726.631.631,0,0,1-.371.608.9.9,0,0,1-.775-.161,2.041,2.041,0,0,1-.85-2.179,2.654,2.654,0,0,1,1.724-1.735c.24-.085.786-.19.807.168.015.243-.4.561-.514.774A2.454,2.454,0,0,0,318.017,159.077Z" transform="translate(-305.608 -132.634)" fill="#d1684b"/>
      <g id="Grupo_121456" data-name="Grupo 121456" transform="translate(5.566 21.514)">
        <path id="Trazado_182400" data-name="Trazado 182400" d="M309.654,157.183a3.068,3.068,0,0,0,.455.513.418.418,0,0,0,.551,0,.328.328,0,0,0-.006-.5,2.246,2.246,0,0,1-.757-1.673,2.208,2.208,0,0,1,.809-1.635.328.328,0,0,0,.022-.5.418.418,0,0,0-.55-.025,2.771,2.771,0,0,0-.524,3.818Z" transform="translate(-309.118 -153.274)" fill="#d1684b"/>
      </g>
    </g>
    <g id="Grupo_121461" data-name="Grupo 121461" transform="translate(77.762 192.928)">
      <path id="Trazado_182401" data-name="Trazado 182401" d="M195.006,358.529a16.681,16.681,0,0,1,4.8-.187,5.642,5.642,0,0,1,4.011,2.4c1.024,1.675.747,3.825.223,5.717a49.622,49.622,0,0,1-4.574,10.3c-4.212,7.747-8.645,15.372-13.078,22.994a13.675,13.675,0,0,1-4.2-.261,4.186,4.186,0,0,1-2.807-2.657,6.2,6.2,0,0,1,.112-2.809q2.423-12.409,4.848-24.816c.521-2.668,1.091-5.445,2.761-7.591S192.615,357.233,195.006,358.529Z" transform="translate(-118.916 -289.069)" fill="#092942"/>
      <path id="Trazado_182402" data-name="Trazado 182402" d="M202.909,374.68a8.024,8.024,0,0,1-.451-.751,27.268,27.268,0,0,1-2.935-10.443,26.316,26.316,0,0,1,.139-5.2c-.781.052-1.563.157-2.338.263a3.162,3.162,0,0,0-1.133-.345q-1.991.521-3.977,1.066a10.065,10.065,0,0,0-2.79,2.369,13.478,13.478,0,0,0-2.266,5.257c.987,1.344,1.914,2.745,2.874,4.1a65.771,65.771,0,0,0,9.2,10.416c.858-1.541,1.715-3.082,2.557-4.631Q202.354,375.732,202.909,374.68Z" transform="translate(-121.234 -289.085)" fill="#051d2e"/>
      <path id="Trazado_182403" data-name="Trazado 182403" d="M196.343,384.264a49.583,49.583,0,0,0-4.7-6.7c-1.56-1.774-3.851-3.438-6.1-2.728-.105.033-.2.083-.3.124l-2.327,11.912a6.36,6.36,0,0,1,1.138.379,11.791,11.791,0,0,1,5.382,6.152,22.079,22.079,0,0,1,1.375,5.444q3.517-6.075,6.951-12.2C197.311,385.836,196.827,385.042,196.343,384.264Z" transform="translate(-119.988 -293.918)" fill="#051d2e"/>
      <path id="Trazado_182404" data-name="Trazado 182404" d="M132.784,318.2a179.508,179.508,0,0,0,34.074,30.352c-1.185,1.516-2.538,3.165-4.446,3.405-1.565.2-3.064-.608-4.436-1.387-6.267-3.556-12.623-7.179-17.669-12.323A27.211,27.211,0,0,1,132.784,318.2Z" transform="translate(-105.259 -277.341)" fill="#ffc533"/>
      <path id="Trazado_182405" data-name="Trazado 182405" d="M132.784,318.2a27.214,27.214,0,0,0,7.523,20.047,45.808,45.808,0,0,0,5.192,4.492c.037-1.363.052-2.728.03-4.092-.041-2.54-.182-5.091-.422-7.63Q138.636,324.911,132.784,318.2Z" transform="translate(-105.259 -277.341)" fill="#ffb600"/>
      <path id="Trazado_182406" data-name="Trazado 182406" d="M110.377,313.147q-5.221,1.965-10.279,4.2a7.087,7.087,0,0,0-3.24,2.23c-.9,1.405-.4,3.161.12,4.738q6.506,19.705,14.579,39.063c.338.812,4.882,12.1,5.752,12.23,4.695.713,5.671-9.809,10.375-10.153a7.788,7.788,0,0,0,3.632-.9,5.536,5.536,0,0,0,2.056-3.6c1.512-6.063-4.158-36.66-8-42.451S117.361,310.52,110.377,313.147Z" transform="translate(-94.58 -275.536)" fill="#ffc533"/>
      <path id="Trazado_182407" data-name="Trazado 182407" d="M133.815,357.873a6.093,6.093,0,0,0,1.857.372c-.286-2.706-.714-5.754-1.244-8.9a40.679,40.679,0,0,1-9.1-2.422,49.508,49.508,0,0,1-5.111-2.355,85.775,85.775,0,0,1-15.547-11.083,49.565,49.565,0,0,0,6.393,9.863,43.87,43.87,0,0,0,8.152,6.662A63.453,63.453,0,0,0,133.815,357.873Z" transform="translate(-97.019 -281.831)" fill="#ffb600"/>
      <path id="Trazado_182408" data-name="Trazado 182408" d="M116.788,303.468a21.512,21.512,0,0,0-.288,8.2,2.117,2.117,0,0,1-2.248,2.459,20.879,20.879,0,0,1-3.235-.484,2.524,2.524,0,0,1-1.159-.5,2.68,2.68,0,0,1-.652-1.6q-.66-3.953-1.321-7.905a3.332,3.332,0,0,1,.143-2.224,3.126,3.126,0,0,1,2.726-1.124,7.326,7.326,0,0,1,3.286.487C115.057,301.234,117.041,302.379,116.788,303.468Z" transform="translate(-97.927 -272.08)" fill="#e67a5c"/>
      <g id="Grupo_121459" data-name="Grupo 121459">
        <path id="Trazado_182409" data-name="Trazado 182409" d="M122.006,289.95c.658,2.325.939,6.112-.309,8.3a6.132,6.132,0,0,1-4.917,2.908,11.265,11.265,0,0,1-5.416-1.284,28.832,28.832,0,0,1-7.914-5.434c-2.174-2.1-4.15-4.948-3.725-8.193a9.935,9.935,0,0,1,3.7-6.005,11.855,11.855,0,0,1,7.648-3.052C117.907,277.33,120.384,284.217,122.006,289.95Z" transform="translate(-95.549 -265.305)" fill="#f98c6e"/>
        <path id="Trazado_182410" data-name="Trazado 182410" d="M116.879,291.6c.58.983,1.476,1.475,2,1.1s.478-1.479-.1-2.461-1.476-1.476-2-1.1S116.3,290.612,116.879,291.6Z" transform="translate(-100.465 -268.773)" fill="#092942"/>
        <path id="Trazado_182411" data-name="Trazado 182411" d="M125.2,289.491c.581.983,1.476,1.476,2,1.1s.479-1.478-.1-2.461-1.476-1.476-2-1.1S124.624,288.507,125.2,289.491Z" transform="translate(-102.91 -268.155)" fill="#092942"/>
        <path id="Trazado_182412" data-name="Trazado 182412" d="M126.293,294.958a2.891,2.891,0,0,1,.735.109.632.632,0,0,1,.436.564.9.9,0,0,1-.427.666,2.039,2.039,0,0,1-2.339.015,2.653,2.653,0,0,1-1-2.23c.006-.254.1-.8.446-.694.232.073.381.572.539.757A2.459,2.459,0,0,0,126.293,294.958Z" transform="translate(-102.603 -270.054)" fill="#d1684b"/>
        <g id="Grupo_121458" data-name="Grupo 121458" transform="translate(17.086 28.037)">
          <path id="Trazado_182413" data-name="Trazado 182413" d="M121.423,302.443a2.956,2.956,0,0,0,.641-.242.418.418,0,0,0,.2-.514.328.328,0,0,0-.468-.173,2.247,2.247,0,0,1-1.832.109,2.2,2.2,0,0,1-1.237-1.34.329.329,0,0,0-.458-.2.417.417,0,0,0-.221.5,2.771,2.771,0,0,0,3.379,1.854Z" transform="translate(-118.024 -300.052)" fill="#d1684b"/>
        </g>
        <path id="Trazado_182414" data-name="Trazado 182414" d="M102.339,290.01a8.626,8.626,0,0,0,.433-10.322,56.358,56.358,0,0,0,11.836-3.027c1.666-.618,3.434-1.43,4.241-3.013a5.707,5.707,0,0,0,.255-3.858c-.9-3.877-3.837-6.945-6.949-9.425l1.642,4.91a18.516,18.516,0,0,0-5.382-3.98,39.907,39.907,0,0,1,2.642,6.912,19.792,19.792,0,0,0-11.194,1.888c-3.358,1.837-5.969,5.324-6.024,9.151a10.58,10.58,0,0,0,2.39,6.6C97.709,287.719,100.2,288.946,102.339,290.01Z" transform="translate(-93.839 -260.364)" fill="#092942"/>
        <path id="Trazado_182415" data-name="Trazado 182415" d="M104.086,298.138a1.9,1.9,0,0,0-1.445.126,1.779,1.779,0,0,0-.733,1.539,3.29,3.29,0,0,0,.548,1.6,6.782,6.782,0,0,0,4.359,3.122,1.154,1.154,0,0,0,1.091-.188c.8-.812.112-3.237-.39-4.039A5.729,5.729,0,0,0,104.086,298.138Z" transform="translate(-96.207 -271.429)" fill="#f98c6e"/>
      </g>
      <path id="Trazado_182416" data-name="Trazado 182416" d="M103.813,348.372a86.966,86.966,0,0,0,16.133,10.682,54.608,54.608,0,0,0,14.728,4.927c-.083-1.929-.3-4.248-.62-6.783-2.27-.81-4.517-1.683-6.727-2.642a113.789,113.789,0,0,1-27.254-16.726Q101.885,343.113,103.813,348.372Z" transform="translate(-95.669 -283.105)" fill="#ffb600"/>
      <path id="Trazado_182417" data-name="Trazado 182417" d="M107.166,328.522c1.5,6.228,6.829,11.415,13.174,14.742s13.663,5.018,20.939,6.363a4.9,4.9,0,0,1,.857,1.909,1.843,1.843,0,0,1-.726,1.963,3.816,3.816,0,0,1-2,.415,49.547,49.547,0,0,1-26.106-6.838A39.311,39.311,0,0,1,96.937,328.4a8.657,8.657,0,0,1-.8-3.462,3.827,3.827,0,0,1,1.682-3.117c1.827-1.18,4.605-.565,6.217.826A11.941,11.941,0,0,1,107.166,328.522Z" transform="translate(-94.513 -278.221)" fill="#ffc533"/>
      <path id="Trazado_182418" data-name="Trazado 182418" d="M189.5,348.945c.3,1.323.262,5.085.523,6.773-12.882,4.665-26.267,6.486-40.034,10.339l-6.529,1.828a3.3,3.3,0,0,1-2.391.052c-.724-.381-.934-1.64-.177-1.949,13.982-5.7,27.408-12.87,41.757-17.574a11.552,11.552,0,0,1,3.323-.727C187.114,347.664,189.248,347.835,189.5,348.945Z" transform="translate(-107.513 -285.998)" fill="#92c6f0"/>
      <g id="Grupo_121460" data-name="Grupo 121460" transform="translate(45.754 42.971)">
        <path id="Trazado_182419" data-name="Trazado 182419" d="M162.268,326.131l33.356-4.912a2.461,2.461,0,0,1,2.784,2.874,213.161,213.161,0,0,0-3.043,23.846c-11.806,1.574-23.109,2.987-36.759,5.06.906-9.211,1.339-16.528,1.557-24.49A2.469,2.469,0,0,1,162.268,326.131Z" transform="translate(-158.606 -321.192)" fill="#92c6f0"/>
        <path id="Trazado_182420" data-name="Trazado 182420" d="M191.431,342.647c-.4,2.29-2.28,3.876-4.2,3.541s-3.156-2.463-2.757-4.754,2.281-3.875,4.2-3.54S191.83,340.358,191.431,342.647Z" transform="translate(-166.177 -326.082)" fill="#a6d7ff"/>
      </g>
      <path id="Trazado_182421" data-name="Trazado 182421" d="M128.077,394.019c4.061,1.462,8.967,1.072,13.07-.267,9.476-3.092,17.022-10.184,24.229-17.07,4.987,7.206,11.054,14.124,16.041,21.329,1.068,1.544,2.239,3.17,3.991,3.842s6.287-4.759,6.069-6.2a12.884,12.884,0,0,0-1.583-4.047,229.57,229.57,0,0,0-13.931-22.457c-1.9-2.738-4.056-5.62-7.237-6.609-3.315-1.031-6.856.259-10.106,1.481-10.462,3.936-18.921,5.2-30.545,8.828C114.772,377.006,121.507,391.653,128.077,394.019Z" transform="translate(-101.642 -290.25)" fill="#092942"/>
      <path id="Trazado_182422" data-name="Trazado 182422" d="M232.115,413.412c.458.09,1,.259,1.111.714.128.547-.482.956-1,1.173-5.213,2.177-10.885,2.954-16.484,3.709a3.763,3.763,0,0,1-2.085-.114,3.409,3.409,0,0,1-1.5-1.889,4.511,4.511,0,0,1-.471-2.46,4.018,4.018,0,0,1,2.2-2.636,8.715,8.715,0,0,1,3.05-1.327,17.234,17.234,0,0,1,3.266.607q3.845.685,7.684,1.409Q230,413,232.115,413.412Z" transform="translate(-128.424 -304.462)" fill="#fff"/>
      <path id="Trazado_182423" data-name="Trazado 182423" d="M176.732,416.253a3.507,3.507,0,0,0-.083,2.343,2.556,2.556,0,0,0,1.57,1.321,7.316,7.316,0,0,0,2.087.285c3.772.138,7.547.126,11.321.115a19.635,19.635,0,0,0,3.164-.179c.585-.1,1.3-.437,1.231-1.025-.052-.418-.486-.659-.87-.832q-4.258-1.921-8.616-3.61-2.21-.857-4.445-1.652c-.839-.3-2.439-1.215-3.359-.839C177.59,412.646,177.043,415.194,176.732,416.253Z" transform="translate(-118.099 -304.906)" fill="#fff"/>
    </g>
  </g>
</svg>
