<svg xmlns="http://www.w3.org/2000/svg" xmlns:xlink="http://www.w3.org/1999/xlink" width="1223.28" height="455.48" viewBox="0 0 1223.28 455.48">
  <defs>
    <linearGradient id="linear-gradient" x1="1.043" y1="-0.125" x2="0.336" y2="1.321" gradientUnits="objectBoundingBox">
      <stop offset="0" stop-color="#64f6f0"/>
      <stop offset="0.645" stop-color="#4b31a8"/>
      <stop offset="1" stop-color="#461698"/>
    </linearGradient>
    <filter id="Rect치ngulo_34835" x="0" y="0" width="1223.28" height="455.48" filterUnits="userSpaceOnUse">
      <feOffset dy="10" input="SourceAlpha"/>
      <feGaussianBlur stdDeviation="5" result="blur"/>
      <feFlood flood-opacity="0.09"/>
      <feComposite operator="in" in2="blur"/>
      <feComposite in="SourceGraphic"/>
    </filter>
    <clipPath id="clip-path">
      <path id="Rectangle_652" data-name="Rectangle 652" d="M1175.118,0H18.8C8.418,0,0,7.081,0,15.815v395.37C0,419.919,8.418,427,18.8,427H1175.118c10.384,0,18.8-7.081,18.8-15.815V15.815C1193.92,7.081,1185.5,0,1175.118,0Z" transform="translate(0 0)" fill="url(#linear-gradient)"/>
    </clipPath>
    <radialGradient id="radial-gradient" cx="0.473" cy="0.169" r="1.287" gradientTransform="translate(0.274 -0.091) rotate(45)" gradientUnits="objectBoundingBox">
      <stop offset="0" stop-color="#ffd673"/>
      <stop offset="0.457" stop-color="#ffb600"/>
      <stop offset="0.973" stop-color="#ff6b00"/>
    </radialGradient>
  </defs>
  <g id="Grupo_118726" data-name="Grupo 118726" transform="translate(14.36 5)">
    <g transform="matrix(1, 0, 0, 1, -14.36, -5)" filter="url(#Rect치ngulo_34835)">
      <rect id="Rect치ngulo_34835-2" data-name="Rect치ngulo 34835" width="1193.28" height="425.48" rx="18" transform="translate(15 5)" fill="#fff9e9"/>
    </g>
    <g id="Enmascarar_grupo_45" data-name="Enmascarar grupo 45" transform="translate(0 0)" opacity="0.34" clip-path="url(#clip-path)">
      <path id="Trazado_180584" data-name="Trazado 180584" d="M227.068.7C352.474,1.093,454.45,103.07,454.839,228.476A225.375,225.375,0,0,1,228.476,454.839C103.07,454.45,1.093,352.474.7,227.068A225.375,225.375,0,0,1,227.068.7Z" transform="translate(718.964 479.671) rotate(-45)" opacity="0.4" fill="url(#radial-gradient)"/>
      <path id="Trazado_180585" data-name="Trazado 180585" d="M141.892.44C220.256.683,283.98,64.407,284.223,142.772A140.834,140.834,0,0,1,142.772,284.223C64.407,283.98.683,220.256.44,141.892A140.834,140.834,0,0,1,141.892.44Z" transform="translate(868.8 59.068) rotate(-45)" opacity="0.3" fill="url(#radial-gradient)"/>
      <path id="Trazado_157137" data-name="Trazado 157137" d="M36.147.2A36.334,36.334,0,0,1,72.321,36.371,35.794,35.794,0,0,1,36.371,72.321,36.334,36.334,0,0,1,.2,36.147,35.794,35.794,0,0,1,36.147.2Z" transform="translate(745.384 88.942) rotate(-90)" opacity="0.25" fill="url(#radial-gradient)"/>
      <g id="Grupo_108104" data-name="Grupo 108104" transform="translate(1210.164 -169.222) rotate(90)" style="mix-blend-mode: overlay;isolation: isolate">
        <g id="Grupo_108103" data-name="Grupo 108103" transform="translate(0)">
          <path id="Trazado_157091" data-name="Trazado 157091" d="M960.543,223.729c-86.989,17.929-217.7,54.291-297.058,14.2-51.732-26.134-89.679-73.408-138.1-105.326A271.27,271.27,0,0,0,398.939,88.92c-40.531-3.332-81.247,2.539-121.909,2s-83.407-8.539-114.278-35.175c-16.786-14.484-29.461-33.974-48.566-45.177C80.068-9.44,36.864,2.59,0,16.829" transform="translate(264.962)" fill="none" stroke="#fff" stroke-miterlimit="10" stroke-width="0.835" style="mix-blend-mode: color-dodge;isolation: isolate"/>
          <path id="Trazado_157092" data-name="Trazado 157092" d="M968.277,219.117c-24.52,5.472-52.433,12.375-81.757,18.481-27,5.642-55.23,10.578-82.924,12.99-49,4.3-96.045.964-132.7-17.74-6.987-3.562-13.737-7.488-20.308-11.683C608.361,194.212,573.6,156.2,531.311,129.734a268.77,268.77,0,0,0-29.329-15.914,275.09,275.09,0,0,0-97.558-24.966c-27.466-1.817-55.022.455-82.63,2.025-13.187.749-26.391,1.336-39.593,1.226a251.811,251.811,0,0,1-50.149-5.062c-23.785-5.068-46.242-14.465-64.644-30.233C150.493,42.316,137.591,22.933,118.343,11.8,83.767-8.152,37.01.5,0,13.514" transform="translate(258.499 5.935)" fill="none" stroke="#fff" stroke-miterlimit="10" stroke-width="0.835" opacity="0.976" style="mix-blend-mode: color-dodge;isolation: isolate"/>
          <path id="Trazado_157093" data-name="Trazado 157093" d="M976.012,214.788c-24.528,5.891-52.371,13.184-81.691,19.539-27.057,5.9-55.429,10.949-83.249,13.155-49.1,3.956-95.9-.437-132.77-19.433-7.007-3.6-13.786-7.549-20.4-11.741-42.518-26.939-77.991-63.849-120.664-89.161A269.134,269.134,0,0,0,507.711,112a279.463,279.463,0,0,0-97.8-22.929c-27.5-1.379-55.1,1.206-82.8,3.01-13.225.86-26.482,1.54-39.74,1.495a245.793,245.793,0,0,1-50.383-4.967C213.1,83.5,190.608,73.94,172.066,58.162c-17.044-14.5-30.175-33.78-49.565-44.845C87.466-6.581,37.156-1.306,0,10.483" transform="translate(252.036 11.588)" fill="none" stroke="#fff" stroke-miterlimit="10" stroke-width="0.835" opacity="0.951" style="mix-blend-mode: color-dodge;isolation: isolate"/>
          <path id="Trazado_157094" data-name="Trazado 157094" d="M983.746,210.813c-24.536,6.311-52.31,13.992-81.626,20.6-27.111,6.164-55.628,11.322-83.574,13.319-49.2,3.611-95.757-1.837-132.837-21.124-7.025-3.644-13.835-7.612-20.493-11.8-42.812-26.923-78.994-62.732-122.053-86.89a269.952,269.952,0,0,0-29.723-14.381A284.361,284.361,0,0,0,415.4,89.642c-27.54-.941-55.186,1.957-82.965,3.995-13.264.971-26.572,1.745-39.886,1.764a240.186,240.186,0,0,1-50.619-4.873c-23.986-5.149-46.521-14.873-65.2-30.661-17.173-14.513-30.531-33.683-50.064-44.679C91.165-4.655,37.3-2.758,0,7.805" transform="translate(245.574 16.886)" fill="none" stroke="#fff" stroke-miterlimit="10" stroke-width="0.835" opacity="0.927" style="mix-blend-mode: color-dodge;isolation: isolate"/>
          <path id="Trazado_157095" data-name="Trazado 157095" d="M991.481,207.259c-24.544,6.73-52.248,14.8-81.561,21.654-27.165,6.425-55.826,11.694-83.9,13.483-49.3,3.264-95.613-3.237-132.9-22.816-7.043-3.685-13.884-7.673-20.586-11.858-43.106-26.909-80-61.615-123.443-84.619a270.88,270.88,0,0,0-29.92-13.614,289.763,289.763,0,0,0-98.287-18.854c-27.578-.5-55.268,2.707-83.132,4.98-13.3,1.082-26.662,1.948-40.033,2.033a234.977,234.977,0,0,1-50.853-4.778c-24.087-5.19-46.661-15.076-65.482-30.875-17.3-14.523-30.889-33.587-50.563-44.514C94.864-2.31,37.448-3.79,0,5.547" transform="translate(239.112 21.764)" fill="none" stroke="#fff" stroke-miterlimit="10" stroke-width="0.835" opacity="0.902" style="mix-blend-mode: color-dodge;isolation: isolate"/>
          <path id="Trazado_157096" data-name="Trazado 157096" d="M999.215,204.18c-24.552,7.15-52.186,15.608-81.495,22.711-27.219,6.685-56.025,12.066-84.224,13.647-49.4,2.917-95.47-4.639-132.97-24.508-7.063-3.727-13.933-7.735-20.679-11.917-43.4-26.894-81-60.5-124.833-82.348A271.948,271.948,0,0,0,524.9,108.918,295.717,295.717,0,0,0,426.368,92.1c-27.615-.065-55.351,3.458-83.3,5.965-13.341,1.193-26.753,2.152-40.179,2.3A230.005,230.005,0,0,1,251.8,95.684C227.613,90.454,205,80.4,186.04,64.595c-17.43-14.533-31.221-33.535-51.063-44.348C98.608.428,37.594-4.347,0,3.765" transform="translate(232.649 26.167)" fill="none" stroke="#fff" stroke-miterlimit="10" stroke-width="0.835" opacity="0.878" style="mix-blend-mode: color-dodge;isolation: isolate"/>
          <path id="Trazado_157097" data-name="Trazado 157097" d="M1006.95,201.527c-24.561,7.569-52.125,16.417-81.43,23.769-27.273,6.947-56.223,12.438-84.548,13.811-49.5,2.572-95.326-6.039-133.037-26.2-7.081-3.768-13.982-7.8-20.771-11.975-43.693-26.878-82-59.38-126.222-80.078a273.48,273.48,0,0,0-30.314-12.08,302.264,302.264,0,0,0-98.773-14.779c-27.653.372-55.433,4.208-83.467,6.95-13.379,1.3-26.843,2.356-40.326,2.571a225.387,225.387,0,0,1-51.323-4.589c-24.288-5.271-46.94-15.484-66.04-31.3C173.138,53.08,159.122,34.177,139.134,23.44,102.313,3.662,37.739-4.477,0,2.41" transform="translate(226.187 30.142)" fill="none" stroke="#fff" stroke-miterlimit="10" stroke-width="0.835" opacity="0.854" style="mix-blend-mode: color-dodge;isolation: isolate"/>
          <path id="Trazado_157098" data-name="Trazado 157098" d="M1014.683,199.263c-24.568,7.989-52.079,17.166-81.364,24.827-27.342,7.152-56.422,12.81-84.873,13.975-49.6,2.225-95.182-7.44-133.1-27.891-7.1-3.809-14.031-7.859-20.864-12.034-43.987-26.864-83-58.263-127.612-77.807a274.912,274.912,0,0,0-30.511-11.313,309.482,309.482,0,0,0-99.016-12.742c-27.69.811-55.515,4.959-83.635,7.935-13.417,1.416-26.933,2.559-40.472,2.84-17.166.364-34.666-.813-51.558-4.494-24.389-5.312-47.079-15.687-66.319-31.518-17.687-14.552-31.929-33.355-52.063-44.016C106.018,7.285,37.885-4.219,0,1.444" transform="translate(219.724 33.73)" fill="none" stroke="#fff" stroke-miterlimit="10" stroke-width="0.835" opacity="0.829" style="mix-blend-mode: color-dodge;isolation: isolate"/>
          <path id="Trazado_157099" data-name="Trazado 157099" d="M1022.418,197.311c-24.577,8.408-52.019,17.967-81.3,25.883-27.4,7.408-56.624,13.121-85.2,14.14-49.706,1.772-95.039-8.841-133.17-29.583-7.119-3.85-14.081-7.922-20.956-12.093-44.281-26.849-84.007-57.146-129-75.537a276.531,276.531,0,0,0-30.708-10.546c-31.643-8.806-65.173-12.231-99.259-10.705-27.727,1.249-55.6,5.71-83.8,8.92-13.456,1.527-27.024,2.763-40.62,3.109-17.246.448-34.823-.688-51.793-4.4a157.675,157.675,0,0,1-66.6-31.732C182.2,60.205,167.73,41.5,147.45,30.916,109.722,11.221,38.031-3.648,0,.788" transform="translate(213.261 37.005)" fill="none" stroke="#fff" stroke-miterlimit="10" stroke-width="0.835" opacity="0.805" style="mix-blend-mode: color-dodge;isolation: isolate"/>
          <path id="Trazado_157100" data-name="Trazado 157100" d="M1030.152,195.594c-24.585,8.828-51.959,18.77-81.233,26.941-27.455,7.663-56.822,13.488-85.523,14.3-49.805,1.417-94.9-10.241-133.237-31.275-7.138-3.891-14.13-7.984-21.049-12.151-44.574-26.833-85.008-56.029-130.391-73.266a278.511,278.511,0,0,0-30.905-9.779c-31.8-8.036-65.372-10.731-99.5-8.668-27.765,1.686-55.679,6.46-83.97,9.905-13.494,1.638-27.114,2.968-40.766,3.378-17.326.531-34.981-.564-52.028-4.3A159.719,159.719,0,0,1,204.67,78.733c-17.944-14.572-32.637-33.174-53.061-43.686C113.426,15.395,38.177-2.841,0,.369" transform="translate(206.799 40.044)" fill="none" stroke="#fff" stroke-miterlimit="10" stroke-width="0.835" opacity="0.78" style="mix-blend-mode: color-dodge;isolation: isolate"/>
          <path id="Trazado_157101" data-name="Trazado 157101" d="M1037.886,194.055c-24.593,9.247-51.9,19.573-81.168,28-27.511,7.919-57.02,13.854-85.849,14.468a261.346,261.346,0,0,1-133.3-32.966c-7.156-3.932-14.179-8.046-21.141-12.21-44.869-26.818-86.011-54.911-131.781-71a280.736,280.736,0,0,0-31.1-9.013c-31.954-7.264-65.572-9.231-99.745-6.63-27.8,2.124-55.762,7.211-84.137,10.89-13.532,1.749-27.205,3.171-40.913,3.646-17.406.615-35.138-.439-52.263-4.209a161.792,161.792,0,0,1-67.157-32.16c-18.073-14.582-32.992-33.082-53.56-43.52C117.128,19.746,38.323-1.858,0,.127" transform="translate(200.337 42.907)" fill="none" stroke="#fff" stroke-miterlimit="10" stroke-width="0.835" opacity="0.756" style="mix-blend-mode: color-dodge;isolation: isolate"/>
          <path id="Trazado_157102" data-name="Trazado 157102" d="M1045.621,192.648c-24.6,9.667-51.84,20.377-81.1,29.056-27.567,8.176-57.218,14.223-86.173,14.633-50,.708-94.607-13.042-133.37-34.659-7.174-3.974-14.228-8.108-21.234-12.269-45.162-26.8-87.014-53.794-133.171-68.724a283.059,283.059,0,0,0-31.3-8.246c-32.11-6.494-65.771-7.731-99.988-4.594-27.84,2.562-55.844,7.962-84.3,11.875-13.57,1.86-27.3,3.375-41.059,3.916-17.485.7-35.3-.314-52.5-4.115a163.863,163.863,0,0,1-67.436-32.375c-18.2-14.592-33.348-32.989-54.06-43.354C120.831,24.23,38.469-.742,0,.017" transform="translate(193.874 45.638)" fill="none" stroke="#fff" stroke-miterlimit="10" stroke-width="0.835" opacity="0.732" style="mix-blend-mode: color-dodge;isolation: isolate"/>
          <path id="Trazado_157103" data-name="Trazado 157103" d="M1053.355,191.334c-24.61,10.086-51.78,21.182-81.038,30.114-27.623,8.433-57.416,14.59-86.5,14.8-50.1.356-94.463-14.442-133.437-36.35-7.193-4.015-14.276-8.17-21.326-12.328C685.6,160.778,643.04,134.89,596.5,121.113a285.492,285.492,0,0,0-31.5-7.479c-32.266-5.723-65.969-6.231-100.231-2.556-27.877,3-55.926,8.712-84.472,12.86-13.609,1.971-27.387,3.579-41.206,4.185-17.565.782-35.453-.19-52.733-4.02a165.977,165.977,0,0,1-67.715-32.589c-18.33-14.6-33.7-32.9-54.559-43.188C124.533,28.808,38.615.466,0,0" transform="translate(187.412 48.275)" fill="none" stroke="#fff" stroke-miterlimit="10" stroke-width="0.835" opacity="0.707" style="mix-blend-mode: color-dodge;isolation: isolate"/>
          <path id="Trazado_157104" data-name="Trazado 157104" d="M1061.089,190.036c-24.617,10.506-51.72,21.987-80.972,31.171-27.678,8.691-57.615,15.126-86.823,14.961-50.2-.283-94.32-15.843-133.5-38.042-7.212-4.056-14.326-8.232-21.42-12.387-45.75-26.773-89.018-51.559-135.95-64.182a288.251,288.251,0,0,0-31.693-6.713c-32.422-4.952-66.169-4.731-100.474-.519-27.915,3.438-56.008,9.463-84.64,13.845a404.1,404.1,0,0,1-41.352,4.454c-17.645.865-35.611-.065-52.968-3.926A168.111,168.111,0,0,1,223.3,95.9c-18.459-14.612-34.06-32.8-55.059-43.023C128.234,33.4,38.761,1.691,0,0" transform="translate(180.949 50.896)" fill="none" stroke="#fff" stroke-miterlimit="10" stroke-width="0.835" opacity="0.683" style="mix-blend-mode: color-dodge;isolation: isolate"/>
          <path id="Trazado_157105" data-name="Trazado 157105" d="M1068.824,188.739c-24.626,10.925-51.661,22.792-80.906,32.229-27.735,8.949-57.813,15.328-87.148,15.125-50.3-.348-94.176-17.244-133.57-39.734-7.231-4.1-14.375-8.294-21.512-12.445-46.044-26.758-90.021-50.442-137.34-61.912a291.349,291.349,0,0,0-31.89-5.945c-32.578-4.181-66.368-3.232-100.717,1.518-27.953,3.875-56.091,10.213-84.807,14.83a394.181,394.181,0,0,1-41.5,4.723c-17.726.949-35.769.059-53.2-3.831-25.092-5.6-48.055-17.113-68.273-33.017-18.587-14.622-34.416-32.71-55.558-42.857C131.935,38,38.907,2.916,0,0" transform="translate(174.486 53.516)" fill="none" stroke="#fff" stroke-miterlimit="10" stroke-width="0.835" opacity="0.659" style="mix-blend-mode: color-dodge;isolation: isolate"/>
          <path id="Trazado_157106" data-name="Trazado 157106" d="M1076.558,187.442c-24.633,11.345-51.6,23.6-80.841,33.286-27.791,9.207-58.011,15.7-87.473,15.289-50.4-.7-94.033-18.645-133.637-41.425-7.249-4.138-14.424-8.356-21.6-12.5-46.338-26.743-91.024-49.325-138.729-59.641a294.543,294.543,0,0,0-32.087-5.178c-32.734-3.41-66.567-1.731-100.96,3.556-27.99,4.313-56.172,10.964-84.975,15.815a384.651,384.651,0,0,1-41.645,4.991c-17.805,1.034-35.926.185-53.439-3.736-25.193-5.638-48.195-17.317-68.552-33.232C213.9,90.032,197.844,72.05,176.558,61.973,135.635,42.6,39.053,4.142,0,0" transform="translate(168.024 56.136)" fill="none" stroke="#fff" stroke-miterlimit="10" stroke-width="0.835" opacity="0.634" style="mix-blend-mode: color-dodge;isolation: isolate"/>
          <path id="Trazado_157107" data-name="Trazado 157107" d="M1084.293,186.145c-24.643,11.764-51.54,24.4-80.776,34.344-27.846,9.467-58.209,16.067-87.8,15.453-50.495-1.048-93.888-20.045-133.7-43.117-7.269-4.179-14.473-8.418-21.7-12.562-46.632-26.728-92.027-48.207-140.12-57.371a297.909,297.909,0,0,0-32.284-4.411c-32.889-2.64-66.766-.231-101.2,5.593-28.028,4.751-56.255,11.714-85.142,16.8a376.117,376.117,0,0,1-41.792,5.26c-17.886,1.117-36.084.309-53.674-3.641-25.293-5.678-48.335-17.52-68.831-33.445-18.845-14.641-35.129-32.519-56.557-42.526C139.335,47.2,39.2,5.368,0,0" transform="translate(161.562 58.757)" fill="none" stroke="#fff" stroke-miterlimit="10" stroke-width="0.835" opacity="0.61" style="mix-blend-mode: color-dodge;isolation: isolate"/>
          <path id="Trazado_157108" data-name="Trazado 157108" d="M1092.026,184.848c-24.65,12.184-51.479,25.211-80.71,35.4-27.9,9.727-58.407,16.438-88.123,15.617-50.594-1.4-93.744-21.445-133.77-44.808-7.287-4.221-14.522-8.481-21.79-12.621-46.926-26.712-93.029-47.09-141.508-55.1a301.337,301.337,0,0,0-32.481-3.644c-33.045-1.869-66.966,1.268-101.446,7.63-28.065,5.189-56.337,12.465-85.31,17.785a368.075,368.075,0,0,1-41.939,5.529c-17.964,1.2-36.241.433-53.909-3.547-25.394-5.718-48.474-17.724-69.11-33.66-18.973-14.651-35.486-32.424-57.056-42.36C143.033,51.8,39.344,6.593,0,0" transform="translate(155.1 61.378)" fill="none" stroke="#fff" stroke-miterlimit="10" stroke-width="0.835" opacity="0.585" style="mix-blend-mode: color-dodge;isolation: isolate"/>
          <path id="Trazado_157109" data-name="Trazado 157109" d="M1099.761,183.55c-24.658,12.6-51.419,26.019-80.645,36.459-27.956,9.987-58.6,16.808-88.447,15.781-50.693-1.744-93.6-22.846-133.837-46.5-7.305-4.262-14.571-8.543-21.882-12.68-47.219-26.7-94.031-45.973-142.9-52.829a304.859,304.859,0,0,0-32.678-2.878c-33.2-1.1-67.165,2.768-101.689,9.668-28.1,5.627-56.42,13.216-85.477,18.77a360.557,360.557,0,0,1-42.085,5.8c-18.045,1.284-36.4.558-54.144-3.453-25.5-5.759-48.614-17.927-69.389-33.873-19.1-14.661-35.843-32.328-57.556-42.195C146.733,56.4,39.491,7.818,0,0" transform="translate(148.637 63.998)" fill="none" stroke="#fff" stroke-miterlimit="10" stroke-width="0.835" opacity="0.561" style="mix-blend-mode: color-dodge;isolation: isolate"/>
          <path id="Trazado_157110" data-name="Trazado 157110" d="M1107.5,182.254c-24.666,13.023-51.358,26.826-80.58,37.516-28.012,10.247-58.8,17.18-88.772,15.946-50.791-2.092-93.457-24.246-133.9-48.192-7.325-4.3-14.621-8.605-21.975-12.739-47.513-26.683-95.034-44.855-144.289-50.558a308.727,308.727,0,0,0-32.875-2.111c-33.356-.327-67.363,4.269-101.932,11.705-28.14,6.065-56.5,13.966-85.645,19.755a353.49,353.49,0,0,1-42.232,6.068c-18.124,1.367-36.557.683-54.379-3.358-25.6-5.8-48.754-18.132-69.669-34.088-19.23-14.671-36.2-32.231-58.056-42.028C150.431,61,39.637,9.044,0,0" transform="translate(142.175 66.618)" fill="none" stroke="#fff" stroke-miterlimit="10" stroke-width="0.835" opacity="0.537" style="mix-blend-mode: color-dodge;isolation: isolate"/>
          <path id="Trazado_157111" data-name="Trazado 157111" d="M1115.23,180.956c-24.675,13.442-51.3,27.636-80.514,38.574-28.067,10.508-59,17.551-89.1,16.11-50.89-2.437-93.313-25.647-133.97-49.884-7.343-4.344-14.669-8.667-22.067-12.8-47.808-26.668-96.036-43.738-145.678-48.288a312.379,312.379,0,0,0-33.072-1.344c-33.512.443-67.563,5.768-102.175,13.742-28.178,6.5-56.584,14.717-85.812,20.74a346.4,346.4,0,0,1-42.379,6.336c-18.2,1.452-36.714.808-54.614-3.262-25.7-5.841-48.893-18.335-69.948-34.3-19.36-14.681-36.558-32.134-58.555-41.863C154.128,65.6,39.782,10.269,0,0" transform="translate(135.712 69.239)" fill="none" stroke="#fff" stroke-miterlimit="10" stroke-width="0.835" opacity="0.512" style="mix-blend-mode: color-dodge;isolation: isolate"/>
          <path id="Trazado_157112" data-name="Trazado 157112" d="M1122.964,179.658c-24.683,13.862-51.237,28.444-80.448,39.632-28.122,10.77-59.2,17.925-89.423,16.275-50.988-2.784-93.169-27.048-134.037-51.576-7.362-4.385-14.718-8.73-22.16-12.856-48.1-26.653-97.038-42.62-147.068-46.017a316.669,316.669,0,0,0-33.269-.578c-33.668,1.215-67.762,7.268-102.418,15.779-28.215,6.941-56.666,15.468-85.98,21.725a340.094,340.094,0,0,1-42.525,6.605c-18.284,1.535-36.872.933-54.849-3.168-25.8-5.881-49.032-18.538-70.227-34.516-19.488-14.69-36.915-32.037-59.054-41.7C157.827,70.206,39.928,11.494,0,0" transform="translate(129.249 71.86)" fill="none" stroke="#fff" stroke-miterlimit="10" stroke-width="0.835" opacity="0.488" style="mix-blend-mode: color-dodge;isolation: isolate"/>
          <path id="Trazado_157113" data-name="Trazado 157113" d="M1130.7,178.361c-24.691,14.281-51.176,29.254-80.383,40.689-28.176,11.031-59.4,18.3-89.747,16.438-51.086-3.128-93.026-28.448-134.1-53.267-7.38-4.426-14.768-8.792-22.253-12.914-48.4-26.638-98.041-41.5-148.457-43.747a321.25,321.25,0,0,0-33.466.19c-33.824,1.985-67.961,8.768-102.661,17.817-28.252,7.378-56.748,16.218-86.147,22.71a334.2,334.2,0,0,1-42.672,6.874c-18.365,1.619-37.029,1.057-55.084-3.073-25.9-5.922-49.172-18.742-70.506-34.73-19.617-14.7-37.274-31.94-59.554-41.532C161.524,74.811,40.074,12.72,0,0" transform="translate(122.787 74.48)" fill="none" stroke="#fff" stroke-miterlimit="10" stroke-width="0.835" opacity="0.463" style="mix-blend-mode: color-dodge;isolation: isolate"/>
          <path id="Trazado_157114" data-name="Trazado 157114" d="M1138.432,177.064c-24.7,14.7-51.114,30.064-80.318,41.747-28.231,11.293-59.6,18.67-90.072,16.6-51.186-3.472-92.882-29.849-134.17-54.959-7.4-4.468-14.817-8.853-22.345-12.973-48.689-26.623-99.043-40.386-149.848-41.476a325.291,325.291,0,0,0-33.662.957c-33.979,2.756-68.161,10.268-102.9,19.854-28.29,7.816-56.83,16.968-86.315,23.7a328.543,328.543,0,0,1-42.818,7.143c-18.443,1.7-37.187,1.182-55.318-2.979-26-5.962-49.311-18.946-70.785-34.945-19.746-14.71-37.633-31.841-60.053-41.366C165.221,79.417,40.22,13.946,0,0" transform="translate(116.325 77.1)" fill="none" stroke="#fff" stroke-miterlimit="10" stroke-width="0.835" opacity="0.439" style="mix-blend-mode: color-dodge;isolation: isolate"/>
          <path id="Trazado_157115" data-name="Trazado 157115" d="M1146.167,175.767c-24.707,15.12-51.052,30.873-80.253,42.8-28.285,11.557-59.794,19.044-90.4,16.767-51.284-3.816-92.738-31.25-134.236-56.651-7.418-4.509-14.866-8.916-22.439-13.032-48.983-26.607-100.045-39.268-151.236-39.2a329.767,329.767,0,0,0-33.86,1.724c-34.135,3.527-68.36,11.768-103.147,21.891-28.328,8.254-56.913,17.719-86.482,24.681a323.281,323.281,0,0,1-42.965,7.412c-18.524,1.785-37.345,1.307-55.554-2.884-26.1-6-49.451-19.15-71.065-35.159-19.874-14.72-37.991-31.742-60.552-41.2C168.917,84.023,40.366,15.171,0,0" transform="translate(109.862 79.721)" fill="none" stroke="#fff" stroke-miterlimit="10" stroke-width="0.835" opacity="0.415" style="mix-blend-mode: color-dodge;isolation: isolate"/>
          <path id="Trazado_157116" data-name="Trazado 157116" d="M1153.9,174.47c-24.715,15.54-50.99,31.684-80.187,43.862-28.339,11.82-59.993,19.417-90.722,16.931-51.383-4.159-92.595-32.65-134.3-58.343-7.436-4.55-14.915-8.978-22.531-13.091-49.276-26.592-101.048-38.151-152.627-36.934a334.454,334.454,0,0,0-34.057,2.49c-34.291,4.3-68.558,13.268-103.39,23.929-28.365,8.692-56.994,18.47-86.649,25.666a317.907,317.907,0,0,1-43.112,7.681c-18.6,1.87-37.5,1.432-55.788-2.788-26.2-6.044-49.591-19.354-71.344-35.373-20-14.73-38.349-31.643-61.052-41.035C172.614,88.63,40.512,16.4,0,0" transform="translate(103.4 82.341)" fill="none" stroke="#fff" stroke-miterlimit="10" stroke-width="0.835" opacity="0.39" style="mix-blend-mode: color-dodge;isolation: isolate"/>
          <path id="Trazado_157117" data-name="Trazado 157117" d="M1161.636,173.173c-24.724,15.959-50.929,32.495-80.122,44.919-28.393,12.084-60.19,19.793-91.046,17.1-51.482-4.5-92.451-34.05-134.37-60.034-7.455-4.591-14.964-9.04-22.623-13.15-49.57-26.577-102.051-37.033-154.016-34.663A338.8,338.8,0,0,0,645.2,130.6c-34.447,5.068-68.758,14.768-103.633,25.966-28.4,9.13-57.077,19.22-86.817,26.651a313.179,313.179,0,0,1-43.258,7.95c-18.684,1.953-37.66,1.556-56.024-2.694-26.3-6.084-49.73-19.557-71.623-35.587-20.131-14.74-38.708-31.543-61.551-40.869C176.31,93.238,40.657,17.622,0,0" transform="translate(96.937 84.962)" fill="none" stroke="#fff" stroke-miterlimit="10" stroke-width="0.835" opacity="0.366" style="mix-blend-mode: color-dodge;isolation: isolate"/>
          <path id="Trazado_157118" data-name="Trazado 157118" d="M1169.37,171.876c-24.732,16.379-50.866,33.306-80.056,45.977-28.447,12.347-60.39,20.167-91.372,17.26-51.581-4.842-92.307-35.451-134.436-61.727-7.474-4.632-15.014-9.1-22.716-13.208-49.865-26.562-103.053-35.916-155.406-32.392a343.877,343.877,0,0,0-34.451,4.024c-34.6,5.839-68.957,16.269-103.876,28-28.44,9.568-57.159,19.971-86.985,27.636a308.648,308.648,0,0,1-43.4,8.219c-18.763,2.037-37.817,1.681-56.258-2.6-26.4-6.126-49.87-19.761-71.9-35.8-20.26-14.749-39.067-31.443-62.051-40.7C180.005,97.847,40.8,18.848,0,0" transform="translate(90.474 87.582)" fill="none" stroke="#fff" stroke-miterlimit="10" stroke-width="0.835" opacity="0.341" style="mix-blend-mode: color-dodge;isolation: isolate"/>
          <path id="Trazado_157119" data-name="Trazado 157119" d="M1177.1,170.578c-24.74,16.8-50.8,34.118-79.991,47.035-28.5,12.612-60.588,20.542-91.7,17.424-51.68-5.182-92.163-36.852-134.5-63.418-7.493-4.674-15.063-9.165-22.809-13.267-50.158-26.547-104.055-34.8-156.8-30.121a348.553,348.553,0,0,0-34.648,4.791c-34.758,6.61-69.156,17.768-104.118,30.04-28.478,10.005-57.241,20.721-87.152,28.62a304.378,304.378,0,0,1-43.552,8.488c-18.844,2.12-37.975,1.806-56.494-2.5-26.5-6.167-50.009-19.965-72.181-36.016-20.389-14.759-39.426-31.343-62.55-40.537C183.7,102.457,40.95,20.073,0,0" transform="translate(84.012 90.203)" fill="none" stroke="#fff" stroke-miterlimit="10" stroke-width="0.835" opacity="0.317" style="mix-blend-mode: color-dodge;isolation: isolate"/>
          <path id="Trazado_157120" data-name="Trazado 157120" d="M1184.839,169.281c-24.748,17.218-50.741,34.931-79.925,48.091-28.553,12.876-60.786,20.919-92.022,17.588-51.78-5.522-92.02-38.252-134.57-65.11-7.511-4.715-15.111-9.226-22.9-13.325-50.452-26.532-105.058-33.682-158.185-27.851-11.729,1.257-23.388,3.154-34.844,5.557-34.914,7.381-69.355,19.268-104.362,32.077-28.516,10.443-57.324,21.472-87.32,29.606a300.224,300.224,0,0,1-43.7,8.757c-18.922,2.2-38.133,1.93-56.728-2.411-26.6-6.207-50.149-20.169-72.46-36.23-20.517-14.77-39.785-31.242-63.049-40.372C187.4,107.068,41.1,21.3,0,0" transform="translate(77.55 92.824)" fill="none" stroke="#fff" stroke-miterlimit="10" stroke-width="0.835" opacity="0.293" style="mix-blend-mode: color-dodge;isolation: isolate"/>
          <path id="Trazado_157121" data-name="Trazado 157121" d="M1192.574,167.983c-24.756,17.637-50.678,35.743-79.86,49.15-28.606,13.141-60.985,21.295-92.346,17.752-51.88-5.86-91.876-39.652-134.636-66.8-7.531-4.757-15.161-9.289-22.994-13.384-50.746-26.517-106.061-32.564-159.575-25.581-11.812,1.513-23.537,3.668-35.042,6.325-35.069,8.152-69.554,20.768-104.6,34.115-28.553,10.882-57.406,22.223-87.487,30.591a296.194,296.194,0,0,1-43.845,9.025c-19,2.288-38.29,2.055-56.964-2.315-26.7-6.247-50.288-20.372-72.74-36.444-20.646-14.78-40.143-31.141-63.549-40.206C191.091,111.679,41.242,22.524,0,0" transform="translate(71.087 95.444)" fill="none" stroke="#fff" stroke-miterlimit="10" stroke-width="0.835" opacity="0.268" style="mix-blend-mode: color-dodge;isolation: isolate"/>
          <path id="Trazado_157122" data-name="Trazado 157122" d="M1200.307,166.687c-24.765,18.057-50.614,36.556-79.795,50.206-28.659,13.408-61.184,21.672-92.671,17.917-51.98-6.2-91.732-41.054-134.7-68.493-7.549-4.8-15.209-9.351-23.086-13.443-51.04-26.5-107.063-31.447-160.965-23.31-11.893,1.769-23.684,4.182-35.239,7.092-35.225,8.922-69.753,22.268-104.847,36.152-28.59,11.319-57.488,22.973-87.655,31.576a292.5,292.5,0,0,1-43.992,9.295c-19.082,2.371-38.447,2.18-57.2-2.221-26.8-6.288-50.428-20.575-73.019-36.658-20.774-14.789-40.5-31.039-64.048-40.041C194.786,116.292,41.388,23.75,0,0" transform="translate(64.625 98.064)" fill="none" stroke="#fff" stroke-miterlimit="10" stroke-width="0.835" opacity="0.244" style="mix-blend-mode: color-dodge;isolation: isolate"/>
          <path id="Trazado_157123" data-name="Trazado 157123" d="M1208.042,165.389c-24.773,18.476-50.552,37.369-79.73,51.264-28.711,13.673-61.39,22.111-93,18.08-52.092-6.434-91.589-42.454-134.77-70.185-7.568-4.838-15.259-9.413-23.18-13.5-51.334-26.487-108.065-30.33-162.354-21.039-11.976,2.026-23.833,4.695-35.436,7.859-35.381,9.693-69.952,23.768-105.091,38.189-28.628,11.757-57.57,23.724-87.822,32.561a289.042,289.042,0,0,1-44.138,9.564c-19.163,2.455-38.605,2.3-57.433-2.126-26.9-6.329-50.568-20.78-73.3-36.873-20.9-14.8-40.862-30.937-64.547-39.875C198.48,120.906,41.533,24.974,0,0" transform="translate(58.162 100.685)" fill="none" stroke="#fff" stroke-miterlimit="10" stroke-width="0.835" opacity="0.22" style="mix-blend-mode: color-dodge;isolation: isolate"/>
          <path id="Trazado_157124" data-name="Trazado 157124" d="M1215.776,164.093c-24.781,18.9-50.462,38.236-79.664,52.322-28.738,13.992-61.59,22.483-93.322,18.244-52.191-6.78-91.444-43.854-134.836-71.876-7.586-4.879-15.308-9.475-23.272-13.56-51.627-26.472-109.068-29.213-163.744-18.768-12.057,2.281-23.981,5.208-35.633,8.625-35.536,10.464-70.151,25.268-105.334,40.227-28.665,12.195-57.652,24.475-87.989,33.546a285.679,285.679,0,0,1-44.285,9.833c-19.242,2.538-38.762,2.429-57.668-2.031-27-6.37-50.707-20.984-73.577-37.087-21.032-14.809-41.222-30.835-65.048-39.709C202.175,125.52,41.68,26.2,0,0" transform="translate(51.699 103.305)" fill="none" stroke="#fff" stroke-miterlimit="10" stroke-width="0.835" opacity="0.195" style="mix-blend-mode: color-dodge;isolation: isolate"/>
          <path id="Trazado_157125" data-name="Trazado 157125" d="M1223.511,162.795c-24.789,19.315-50.4,39.045-79.6,53.379-28.792,14.253-61.788,22.856-93.646,18.409-52.291-7.127-91.3-45.255-134.9-73.569A262.91,262.91,0,0,0,892,147.4c-51.921-26.457-110.071-28.1-165.133-16.5-12.139,2.537-24.13,5.721-35.83,9.392-35.693,11.234-70.351,26.767-105.577,42.264-28.7,12.633-57.734,25.225-88.157,34.531a282.358,282.358,0,0,1-44.431,10.1c-19.323,2.623-38.92,2.555-57.9-1.936-27.1-6.41-50.847-21.187-73.856-37.3-21.16-14.819-41.581-30.733-65.547-39.544C205.868,130.134,41.826,27.425,0,0" transform="translate(45.237 105.926)" fill="none" stroke="#fff" stroke-miterlimit="10" stroke-width="0.835" opacity="0.171" style="mix-blend-mode: color-dodge;isolation: isolate"/>
          <path id="Trazado_157126" data-name="Trazado 157126" d="M1231.245,161.5c-24.8,19.735-50.338,39.854-79.533,54.437-28.847,14.514-61.987,23.228-93.971,18.573-52.391-7.473-91.157-46.655-134.969-75.26a251.1,251.1,0,0,0-23.458-13.677c-52.215-26.442-111.073-26.978-166.523-14.227-12.221,2.793-24.278,6.235-36.027,10.159-35.849,12.006-70.55,28.268-105.82,44.3-28.74,13.071-57.817,25.975-88.324,35.516a279.339,279.339,0,0,1-44.578,10.37c-19.4,2.706-39.078,2.679-58.138-1.841-27.205-6.451-50.986-21.39-74.135-37.515-21.289-14.828-41.956-30.584-66.046-39.377C209.529,134.843,41.971,28.651,0,0" transform="translate(38.775 108.546)" fill="none" stroke="#fff" stroke-miterlimit="10" stroke-width="0.835" opacity="0.146" style="mix-blend-mode: color-dodge;isolation: isolate"/>
          <path id="Trazado_157127" data-name="Trazado 157127" d="M1238.979,160.2c-24.805,20.154-50.277,40.662-79.468,55.494-28.9,14.775-62.186,23.6-94.3,18.737-52.491-7.819-91.013-48.056-135.036-76.952a240.8,240.8,0,0,0-23.55-13.736c-52.509-26.427-112.075-25.86-167.913-11.955-12.3,3.048-24.425,6.748-36.223,10.925-36,12.777-70.749,29.768-106.063,46.339-28.777,13.509-57.9,26.726-88.491,36.5a276.413,276.413,0,0,1-44.725,10.639c-19.482,2.789-39.236,2.8-58.373-1.747-27.306-6.491-51.125-21.594-74.415-37.729-21.417-14.838-42.313-30.488-66.546-39.212C213.228,139.446,42.117,29.876,0,0" transform="translate(32.313 111.167)" fill="none" stroke="#fff" stroke-miterlimit="10" stroke-width="0.835" opacity="0.122" style="mix-blend-mode: color-dodge;isolation: isolate"/>
          <path id="Trazado_157128" data-name="Trazado 157128" d="M1246.714,158.9c-24.814,20.574-50.215,41.47-79.4,56.552-28.955,15.036-62.384,23.972-94.621,18.9-52.59-8.165-90.87-49.457-135.1-78.644a231.412,231.412,0,0,0-23.642-13.8c-52.8-26.412-113.078-24.743-169.3-9.685-12.385,3.3-24.574,7.261-36.42,11.693-36.16,13.547-70.949,31.267-106.306,48.375-28.815,13.946-57.982,27.477-88.66,37.486A273.649,273.649,0,0,1,468.385,240.7c-19.561,2.873-39.393,2.928-58.608-1.652-27.406-6.533-51.265-21.8-74.694-37.943-21.546-14.849-42.67-30.391-67.045-39.047C216.927,144.049,42.263,31.1,0,0" transform="translate(25.85 113.787)" fill="none" stroke="#fff" stroke-miterlimit="10" stroke-width="0.835" opacity="0.098" style="mix-blend-mode: color-dodge;isolation: isolate"/>
          <path id="Trazado_157129" data-name="Trazado 157129" d="M1254.448,157.607c-24.822,20.993-50.154,42.278-79.337,57.609-29.009,15.3-62.583,24.343-94.945,19.065-52.69-8.512-90.726-50.857-135.17-80.335a222.832,222.832,0,0,0-23.735-13.854c-53.1-26.4-114.081-23.626-170.693-7.414-12.466,3.561-24.722,7.776-36.617,12.46C677.635,159.456,642.8,177.905,607.4,195.551c-28.853,14.384-58.063,28.227-88.827,38.471A271.077,271.077,0,0,1,473.557,245.2c-19.642,2.957-39.551,3.053-58.843-1.558-27.507-6.573-51.4-22-74.973-38.158C318.067,190.626,296.714,175.19,272.2,166.6,220.626,148.653,42.409,32.328,0,0" transform="translate(19.387 116.407)" fill="none" stroke="#fff" stroke-miterlimit="10" stroke-width="0.835" opacity="0.073" style="mix-blend-mode: color-dodge;isolation: isolate"/>
          <path id="Trazado_157130" data-name="Trazado 157130" d="M1262.182,156.309c-24.83,21.413-50.092,43.086-79.271,58.667-29.064,15.558-62.782,24.716-95.271,19.23-52.789-8.858-90.582-52.257-135.236-82.027a214.919,214.919,0,0,0-23.828-13.912c-53.391-26.381-115.083-22.509-172.082-5.144-12.549,3.817-24.871,8.289-36.815,13.226-36.471,15.09-71.346,34.268-106.792,52.45-28.89,14.823-58.145,28.978-88.994,39.456A268.439,268.439,0,0,1,478.729,249.7c-19.722,3.041-39.708,3.178-59.078-1.463-27.608-6.614-51.544-22.205-75.252-38.372-21.8-14.867-43.385-30.2-68.044-38.715C224.324,153.256,42.555,33.553,0,0" transform="translate(12.925 119.028)" fill="none" stroke="#fff" stroke-miterlimit="10" stroke-width="0.835" opacity="0.049" style="mix-blend-mode: color-dodge;isolation: isolate"/>
          <path id="Trazado_157131" data-name="Trazado 157131" d="M1269.917,155.012c-24.838,21.832-50.031,43.894-79.206,59.724-29.117,15.819-62.981,25.088-95.6,19.394-52.889-9.2-90.438-53.659-135.3-83.719a207.556,207.556,0,0,0-23.92-13.971c-53.685-26.367-116.085-21.391-173.472-2.873-12.63,4.073-25.018,8.8-37.011,13.993-36.627,15.859-71.546,35.767-107.035,54.487-28.928,15.26-58.228,29.729-89.162,40.441A266.057,266.057,0,0,1,483.9,254.2c-19.8,3.124-39.866,3.3-59.313-1.368-27.708-6.654-51.684-22.409-75.531-38.586-21.933-14.878-43.742-30.1-68.543-38.549C228.024,157.859,42.7,34.778,0,0" transform="translate(6.462 121.649)" fill="none" stroke="#fff" stroke-miterlimit="10" stroke-width="0.835" opacity="0.024" style="mix-blend-mode: color-dodge;isolation: isolate"/>
          <path id="Trazado_157132" data-name="Trazado 157132" d="M1277.651,153.714c-24.846,22.252-49.968,44.7-79.14,60.782s-63.179,25.46-95.921,19.559c-62.082-11.19-102.638-71.738-159.382-99.44-65.856-32.15-145.3-16.03-212.07,14.158S603.6,222.347,534.53,246.723c-33.664,11.881-70.31,19.063-105.006,10.71-53.385-12.852-92.786-59.692-144.853-77.184C231.722,162.462,42.846,36,0,0" transform="translate(0 124.269)" fill="none" stroke="#fff" stroke-miterlimit="10" stroke-width="0.835" opacity="0" style="mix-blend-mode: color-dodge;isolation: isolate"/>
        </g>
      </g>
    </g>
  </g>
</svg>
